<svg xmlns="http://www.w3.org/2000/svg" width="486" height="486" viewBox="0 0 486 486" fill="none"><path d="M225.382 0.700932C228.78 0.469273 232.795 0.237615 234.262 0.199005C235.729 0.121785 238.972 0.0445657 241.404 0.00595599C243.836 -0.0326538 249.318 0.121785 253.565 0.314834C257.811 0.507883 263.988 0.9712 267.27 1.28008C270.551 1.62757 276.111 2.32254 279.624 2.86308C283.137 3.40361 288.503 4.36886 291.592 4.98662C294.68 5.64298 299.274 6.68544 301.822 7.3032C304.37 7.95957 309.157 9.2723 312.439 10.2375C315.72 11.2028 321.473 13.0947 325.179 14.446C328.885 15.7587 334.444 17.9209 337.533 19.2336C340.621 20.5463 346.412 23.2104 350.466 25.2181C354.52 27.2258 359.963 30.083 362.627 31.6274C365.291 33.1331 369.808 35.8744 372.664 37.6505C375.521 39.4651 380.386 42.747 383.474 44.9477C386.563 47.1485 391.002 50.4303 393.319 52.2836C395.635 54.1368 399.38 57.2256 401.619 59.1561C403.858 61.048 408.761 65.6812 412.583 69.4263C416.366 73.1328 421.501 78.4224 423.972 81.2023C426.443 83.9436 429.879 87.959 431.577 90.0825C433.276 92.2061 436.326 96.1057 438.295 98.7697C440.264 101.434 443.236 105.604 444.858 108.036C446.479 110.468 449.452 115.179 451.421 118.461C453.428 121.743 456.826 127.92 458.988 132.167C461.188 136.414 463.929 142.128 465.165 144.908C466.361 147.65 468.33 152.515 469.566 155.719C470.801 158.885 472.847 164.792 474.16 168.846C475.472 172.862 477.403 179.657 478.484 183.904C479.526 188.151 480.993 194.831 481.727 198.769C482.422 202.707 483.387 208.769 483.811 212.282C484.236 215.796 484.815 220.892 485.085 223.672C485.356 226.684 485.549 234.483 485.549 243.17C485.549 253.942 485.394 259.386 484.892 264.406C484.506 268.112 483.773 274.212 483.232 277.919C482.692 281.626 481.765 287.263 481.148 290.467C480.491 293.633 479.294 299.039 478.445 302.436C477.557 305.834 476.167 310.969 475.279 313.826C474.43 316.683 472.963 321.123 472.036 323.672C471.148 326.22 469.952 329.424 469.45 330.814C468.909 332.204 467.79 334.984 466.94 336.992C466.091 339 464.277 343.092 462.887 346.065C461.536 349.038 459.065 353.98 457.405 357.069C455.745 360.158 453.235 364.559 451.884 366.915C450.494 369.231 447.753 373.594 445.823 376.567C443.854 379.54 440.186 384.752 437.638 388.15C435.09 391.548 431.268 396.412 429.145 398.961C427.022 401.509 422.775 406.296 419.687 409.578C416.637 412.86 411.425 418.034 408.143 421.045C404.862 424.057 400.384 428.034 398.144 429.887C395.905 431.74 391.311 435.331 387.914 437.879C384.517 440.428 379.305 444.095 376.332 446.065C373.359 447.995 368.997 450.736 366.68 452.126C364.364 453.478 359.924 455.987 356.836 457.647C353.747 459.308 348.806 461.779 345.833 463.13C342.861 464.52 338.768 466.335 336.761 467.184C334.753 468.033 331.974 469.153 330.584 469.694C329.194 470.196 325.99 471.393 323.442 472.281C320.894 473.207 316.454 474.674 313.597 475.524C310.74 476.412 305.606 477.802 302.208 478.69C298.811 479.539 293.445 480.736 290.24 481.392C287.075 482.01 281.4 482.937 277.693 483.477C273.987 484.018 267.888 484.751 264.181 485.138C259.201 485.64 253.719 485.794 243.141 485.794C234.764 485.794 226.695 485.601 223.645 485.331C220.788 485.06 215.576 484.481 212.063 484.057C208.55 483.632 202.489 482.667 198.551 481.972C194.613 481.238 187.934 479.771 183.688 478.728C179.441 477.647 172.917 475.794 169.21 474.597C165.504 473.4 159.675 471.393 156.277 470.118C152.88 468.806 147.398 466.566 144.116 465.099C140.835 463.632 135.005 460.813 131.183 458.844C127.361 456.875 121.532 453.671 118.25 451.663C114.969 449.694 109.834 446.451 106.862 444.404C103.889 442.397 99.7195 439.424 97.5962 437.802C95.4728 436.219 91.9983 433.516 89.8749 431.818C87.7516 430.08 83.7752 426.682 80.9955 424.211C78.2159 421.74 72.7725 416.451 68.8346 412.435C64.8968 408.42 59.4147 402.435 56.6737 399.154C53.9327 395.872 49.879 390.737 47.6785 387.764C45.478 384.791 42.235 380.196 40.4592 377.532C38.6833 374.868 36.0195 370.621 34.4752 368.073C32.931 365.525 30.2286 360.737 28.4527 357.455C26.6768 354.173 23.9744 348.768 22.4687 345.486C20.9631 342.204 18.6081 336.799 17.2955 333.517C15.9829 330.235 13.821 324.405 12.547 320.583C11.273 316.76 9.49709 311.008 8.64776 307.842C7.75982 304.637 6.44721 299.27 5.67509 295.873C4.90297 292.475 3.7834 286.722 3.2043 283.131C2.58661 279.541 1.81449 274.135 1.50564 271.162C1.15818 268.189 0.694909 263.325 0.463273 260.352C0.19303 257.379 0 249.657 0 243.17C0 236.684 0.19303 228.769 0.463273 225.603C0.694909 222.398 1.274 216.838 1.69867 213.248C2.12333 209.657 3.08849 203.402 3.822 199.348C4.55552 195.294 5.75231 189.58 6.44721 186.607C7.18073 183.634 8.45473 178.769 9.34267 175.796C10.192 172.823 11.8521 167.534 13.0489 164.02C14.2456 160.507 16.3304 154.947 17.643 151.665C18.9942 148.383 21.2719 143.171 22.739 140.082C24.1674 136.993 26.6382 132.051 28.221 129.078C29.8039 126.105 32.6607 121.048 34.591 117.882C36.4827 114.677 39.4554 110.005 41.1927 107.457C42.8913 104.909 46.1343 100.391 48.3734 97.4184C50.6126 94.4454 53.7397 90.4686 55.3225 88.5381C56.9054 86.6077 60.2255 82.7853 62.6963 80.044C65.1671 77.2641 69.684 72.5923 72.7338 69.6194C75.7837 66.6078 80.3006 62.4379 82.7328 60.3144C85.165 58.1909 89.1028 54.909 91.4192 53.0172C93.7355 51.1639 97.7506 48.1137 100.299 46.2605L100.469 46.139C103.006 44.3321 106.518 41.8308 108.406 40.5848C110.336 39.3107 114.467 36.6852 117.671 34.7934C120.837 32.8629 125.894 30.0057 128.867 28.4227C131.84 26.8397 136.781 24.3687 139.87 22.9402C142.958 21.473 148.17 19.195 151.452 17.8437C154.733 16.5309 160.292 14.446 163.806 13.2491C167.319 12.0522 172.608 10.392 175.58 9.54257C178.553 8.65454 183.417 7.38042 186.39 6.68544C189.363 5.95186 194.652 4.83218 198.165 4.17581C201.678 3.51944 207.816 2.5542 211.87 2.05227C215.924 1.55035 221.985 0.93259 225.382 0.700932Z" fill="#6B00C9"></path><path d="M105.124 126.762C105.973 121.897 106.668 117.843 106.668 117.804C106.668 117.727 109.95 117.688 114.003 117.688C121.3 117.688 121.338 117.688 121.493 118.577C121.609 119.04 121.956 121.858 122.304 124.831C122.651 127.804 124.079 136.993 125.431 145.294C126.82 153.596 128.365 163.209 128.867 166.723C129.561 171.588 129.677 173.209 129.33 173.595C129.06 173.866 128.172 174.252 127.322 174.445C126.473 174.638 125.006 174.715 124.041 174.599C123.076 174.483 121.995 174.29 121.647 174.213C120.991 174.059 120.952 175.603 120.952 230.815L121.84 231.008C122.304 231.124 123.848 231.201 125.315 231.201C126.743 231.201 128.674 231.433 129.639 231.703C130.604 231.935 131.492 232.398 131.569 232.668C131.685 232.9 131.955 237.958 132.187 243.865C132.457 250.467 132.534 259.27 132.341 266.915C132.187 273.71 131.955 280.66 131.569 285.448L129.639 286.104C128.558 286.49 126.859 286.761 123.848 286.606V250.313L122.883 248.576C122.342 247.649 121.647 246.799 121.338 246.722C121.03 246.645 120.18 247.031 119.524 247.572C118.675 248.241 118.07 249.193 117.709 250.429C117.323 251.896 117.246 255.641 117.671 286.799H114.389C112.575 286.799 110.683 286.645 109.293 286.22L109.371 269.039C109.448 257.301 109.332 251.355 109.023 250.313C108.791 249.464 108.212 248.267 107.749 247.649C106.977 246.684 106.745 246.606 106.012 246.993C105.51 247.224 104.738 248.074 103.387 250.313L103.58 286.799H101.765C100.723 286.799 99.0241 286.49 95.897 285.448L95.5881 282.938C95.4337 281.548 95.2793 270.892 95.2793 259.193C95.2793 247.533 95.3951 236.8 95.5881 235.371C95.8584 232.746 95.8584 232.746 97.4798 231.973C98.7924 231.394 99.9892 231.201 106.668 231.201V174.445H98.5608V172.051C98.5608 170.7 98.9083 166.491 99.3329 162.669C99.7962 158.846 100.916 151.202 101.842 145.681C102.807 140.159 104.275 131.665 105.124 126.762Z" fill="white"></path><path d="M332.938 136.337C335.757 131.279 339.424 125.024 341.084 122.437L344.173 117.688H351.431L351.662 120.507C351.778 122.051 351.701 124.638 351.431 126.376C351.16 128.075 350.658 130.352 350.272 131.395C349.925 132.476 349.23 134.098 348.728 135.063C348.265 136.028 346.836 138.461 345.601 140.468C344.366 142.476 343.323 144.445 343.323 144.831C343.323 145.179 343.671 146.298 344.095 147.341C344.559 148.345 346.335 151.549 351.238 159.735H367.452L368.688 158.113C369.344 157.225 370.502 155.449 371.197 154.175C371.93 152.901 373.359 150.352 376.138 145.101L373.204 140.198C371.583 137.457 369.884 134.291 369.382 133.132C368.881 131.974 368.224 129.658 367.877 128.036C367.529 126.376 367.259 124.291 367.259 123.403C367.259 122.476 367.414 120.816 367.838 117.688H375.559L377.142 120.7C378.03 122.322 380.424 126.53 382.508 130.044C384.593 133.557 387.334 138.422 390.963 145.294L389.149 148.769C388.145 150.7 384.979 156.375 382.045 161.395C379.111 166.414 376.409 171.086 375.366 172.9H366.487V231.201L367.915 231.433C368.726 231.587 370.772 231.587 375.559 231.24L377.451 234.792C378.493 236.761 380.964 241.124 382.895 244.522C384.863 247.919 387.604 252.514 391.504 258.807L390.037 261.317C389.226 262.707 386.292 267.726 383.512 272.514C380.694 277.301 377.799 282.475 375.559 286.799L343.516 286.606L338.961 278.498C336.451 274.058 332.938 267.958 331.124 264.985C328.923 261.355 327.92 259.309 328.035 258.807C328.151 258.382 330.159 254.83 332.552 250.892C334.907 246.954 337.764 241.896 338.922 239.618C340.08 237.301 341.74 234.676 342.628 233.672C343.555 232.707 344.983 231.664 345.833 231.317C346.798 230.969 348.226 230.776 351.739 231.008L352.01 229.464C352.164 228.614 352.357 215.641 352.434 200.622C352.55 179.039 352.473 173.209 352.087 173.016C351.855 172.823 349.809 172.707 343.516 172.707L338.112 163.209C335.139 157.997 331.626 152.051 330.274 150.005C328.962 147.92 327.881 146.067 327.881 145.874C327.881 145.681 330.159 141.356 332.938 136.337Z" fill="white"></path><path d="M105.124 126.762C105.973 121.897 106.668 117.843 106.668 117.804C106.668 117.727 109.95 117.688 114.003 117.688C121.3 117.688 121.338 117.688 121.493 118.577C121.609 119.04 121.956 121.858 122.304 124.831C122.651 127.804 124.079 136.993 125.431 145.294C126.82 153.596 128.365 163.209 128.867 166.723C129.561 171.588 129.677 173.209 129.33 173.595C129.06 173.866 128.172 174.252 127.322 174.445C126.473 174.638 125.006 174.715 124.041 174.599C123.076 174.483 121.995 174.29 121.647 174.213C120.991 174.059 120.952 175.603 120.952 230.815L121.84 231.008C122.304 231.124 123.848 231.201 125.315 231.201C126.743 231.201 128.674 231.433 129.639 231.703C130.604 231.935 131.492 232.398 131.569 232.668C131.685 232.9 131.955 237.958 132.187 243.865C132.457 250.467 132.534 259.27 132.341 266.915C132.187 273.71 131.955 280.66 131.569 285.448L129.639 286.104C128.558 286.49 126.859 286.761 123.848 286.606V250.313L122.883 248.576C122.342 247.649 121.647 246.799 121.338 246.722C121.03 246.645 120.18 247.031 119.524 247.572C118.675 248.241 118.07 249.193 117.709 250.429C117.323 251.896 117.246 255.641 117.671 286.799H114.389C112.575 286.799 110.683 286.645 109.293 286.22L109.371 269.039C109.448 257.301 109.332 251.355 109.023 250.313C108.791 249.464 108.212 248.267 107.749 247.649C106.977 246.684 106.745 246.606 106.012 246.993C105.51 247.224 104.738 248.074 103.387 250.313L103.58 286.799H101.765C100.723 286.799 99.0241 286.49 95.897 285.448L95.5881 282.938C95.4337 281.548 95.2793 270.892 95.2793 259.193C95.2793 247.533 95.3951 236.8 95.5881 235.371C95.8584 232.746 95.8584 232.746 97.4798 231.973C98.7924 231.394 99.9892 231.201 106.668 231.201V174.445H98.5608V172.051C98.5608 170.7 98.9083 166.491 99.3329 162.669C99.7962 158.846 100.916 151.202 101.842 145.681C102.807 140.159 104.275 131.665 105.124 126.762Z" stroke="#6B00C9" stroke-width="0.386061"></path><path d="M332.938 136.337C335.757 131.279 339.424 125.024 341.084 122.437L344.173 117.688H351.431L351.662 120.507C351.778 122.051 351.701 124.638 351.431 126.376C351.16 128.075 350.658 130.352 350.272 131.395C349.925 132.476 349.23 134.098 348.728 135.063C348.265 136.028 346.836 138.461 345.601 140.468C344.366 142.476 343.323 144.445 343.323 144.831C343.323 145.179 343.671 146.298 344.095 147.341C344.559 148.345 346.335 151.549 351.238 159.735H367.452L368.688 158.113C369.344 157.225 370.502 155.449 371.197 154.175C371.93 152.901 373.359 150.352 376.138 145.101L373.204 140.198C371.583 137.457 369.884 134.291 369.382 133.132C368.881 131.974 368.224 129.658 367.877 128.036C367.529 126.376 367.259 124.291 367.259 123.403C367.259 122.476 367.414 120.816 367.838 117.688H375.559L377.142 120.7C378.03 122.322 380.424 126.53 382.508 130.044C384.593 133.557 387.334 138.422 390.963 145.294L389.149 148.769C388.145 150.7 384.979 156.375 382.045 161.395C379.111 166.414 376.409 171.086 375.366 172.9H366.487V231.201L367.915 231.433C368.726 231.587 370.772 231.587 375.559 231.24L377.451 234.792C378.493 236.761 380.964 241.124 382.895 244.522C384.863 247.919 387.604 252.514 391.504 258.807L390.037 261.317C389.226 262.707 386.292 267.726 383.512 272.514C380.694 277.301 377.799 282.475 375.559 286.799L343.516 286.606L338.961 278.498C336.451 274.058 332.938 267.958 331.124 264.985C328.923 261.355 327.92 259.309 328.035 258.807C328.151 258.382 330.159 254.83 332.552 250.892C334.907 246.954 337.764 241.896 338.922 239.618C340.08 237.301 341.74 234.676 342.628 233.672C343.555 232.707 344.983 231.664 345.833 231.317C346.798 230.969 348.226 230.776 351.739 231.008L352.01 229.464C352.164 228.614 352.357 215.641 352.434 200.622C352.55 179.039 352.473 173.209 352.087 173.016C351.855 172.823 349.809 172.707 343.516 172.707L338.112 163.209C335.139 157.997 331.626 152.051 330.274 150.005C328.962 147.92 327.881 146.067 327.881 145.874C327.881 145.681 330.159 141.356 332.938 136.337Z" stroke="#6B00C9" stroke-width="0.386061"></path><path d="M219.012 52.2456C220.826 51.9367 223.259 51.4734 224.417 51.2804C225.575 51.0873 230.71 51.0101 235.806 51.0487C243.372 51.1259 245.92 51.319 249.704 52.014C252.252 52.4773 256.344 53.3653 258.776 53.9831C261.208 54.6394 265.03 55.7977 267.269 56.5699C269.509 57.3421 273.215 58.9637 275.531 60.122C277.848 61.3189 279.894 62.5544 280.125 62.8633C280.396 63.288 279.083 66.5312 274.991 75.4115C271.941 81.9751 267.308 91.7048 264.683 97.0329C262.019 102.322 259.355 108.153 258.738 109.967C258.043 112.129 257.502 114.755 257.232 117.689C256.962 120.855 256.962 123.79 257.232 127.921C257.464 131.087 257.772 137.882 257.888 142.979C258.004 148.075 258.004 152.708 257.618 154.368H214.765L214.534 150.43C214.418 148.229 214.534 142.979 214.842 138.731C215.113 134.484 215.344 127.535 215.344 123.288C215.344 117.149 215.19 115.064 214.649 113.056C214.263 111.666 212.256 106.994 210.171 102.631C208.048 98.2685 204.457 90.5465 202.102 85.45C199.786 80.3535 196.466 72.9791 194.729 69.0409C193.03 65.1027 191.602 61.705 191.602 61.512C191.602 61.3189 192.914 60.5081 194.574 59.6973C196.234 58.9251 199.67 57.5738 202.218 56.6857C204.766 55.8363 208.858 54.6008 211.291 53.9831C213.723 53.3653 217.197 52.5931 219.012 52.2456Z" fill="white"></path><path d="M172.723 75.952C174.731 73.9057 177.742 71.1644 179.441 69.8131C182.336 67.5737 182.568 67.4579 183.031 68.1142C183.34 68.5389 184.382 70.508 185.386 72.5157C186.39 74.5234 188.822 80.006 190.752 84.6778C192.721 89.3496 195.539 95.4499 197.045 98.1912C198.551 100.933 200.635 104.871 201.639 106.878C202.643 108.886 203.878 111.743 204.342 113.249C204.998 115.334 205.23 117.226 205.384 121.743C205.538 125.141 205.384 130.237 205.075 134.098C204.805 137.728 204.612 143.751 204.728 154.368H151.837L151.683 153.48C151.567 153.017 151.181 150.469 150.834 147.805C150.409 144.677 150.177 140.276 150.177 135.257C150.139 131.01 150.37 125.874 150.641 123.867C150.911 121.859 151.567 118.114 152.108 115.566C152.648 113.017 153.729 108.925 154.54 106.492C155.35 104.06 156.74 100.315 157.705 98.1912C158.632 96.0677 160.485 92.5156 161.798 90.2762C163.11 88.0369 165.311 84.755 166.662 82.9404C168.013 81.1257 170.716 77.9983 172.723 75.952Z" fill="white"></path><path d="M274.605 99.5426C277.307 94.1372 281.592 85.0639 284.102 79.3497V79.3883C286.611 73.674 288.85 69.0409 289.082 69.0409C289.275 69.0409 291.012 70.3922 292.943 72.0524C294.873 73.7126 297.691 76.5312 299.274 78.3072C300.818 80.1219 302.98 82.7859 304.022 84.2917C305.065 85.7975 306.879 88.5388 307.999 90.4693C309.157 92.3998 310.856 95.7202 311.821 97.921C312.786 100.083 314.292 103.905 315.102 106.377C315.913 108.886 317.033 113.017 317.573 115.566C318.114 118.114 318.77 121.859 319.04 123.867C319.349 125.99 319.581 131.087 319.581 136.029C319.581 140.739 319.349 146.338 319.079 148.577C318.809 150.816 318.5 153.017 318.23 154.368L268.08 154.175L267.81 143.172C267.617 137.11 267.501 128.5 267.501 124.06C267.501 116.222 267.54 115.836 268.582 112.67C269.2 110.855 271.902 104.948 274.605 99.5426Z" fill="white"></path><path d="M159.172 156.608C167.589 156.299 196.659 156.029 242.176 155.874C280.704 155.758 313.906 155.604 315.913 155.565C317.921 155.527 320.237 155.681 321.009 155.874C321.82 156.106 323.017 156.724 323.673 157.341C324.368 157.921 325.14 158.847 325.951 160.507L324.098 160.7C323.094 160.778 315.604 161.087 307.42 161.357C297.575 161.704 274.257 161.859 238.315 161.859C208.472 161.859 175.078 161.704 144.116 161.202L144.232 159.581C144.309 158.307 144.502 157.921 145.274 157.573C145.853 157.303 151.297 156.917 159.172 156.608Z" fill="white"></path><path d="M156.47 178.847V172.785V166.685H316.299L316.492 178.461L319.774 178.963C321.588 179.233 323.634 179.774 324.329 180.121C325.101 180.507 325.758 181.241 325.989 181.936C326.182 182.554 326.337 184.059 326.337 185.218C326.337 186.376 326.028 188.461 325.603 189.851C325.179 191.241 324.059 194.175 323.094 196.414C322.167 198.654 321.125 201.434 320.777 202.592C320.314 204.175 320.16 206.067 320.237 210.121C320.353 215.485 320.314 215.565 319.119 218.033L319.117 218.036C318.461 219.426 317.071 221.395 316.068 222.437C315.025 223.48 313.288 224.754 312.246 225.256C311.126 225.758 309.582 226.144 308.578 226.144C306.995 226.144 306.802 226.221 306.57 227.186C306.416 227.804 305.412 232.437 304.331 237.534C303.25 242.63 301.822 248.962 301.166 251.626C300.509 254.291 299.313 258.422 298.502 260.816C297.652 263.171 296.378 266.414 295.606 267.958C294.834 269.464 293.599 271.665 292.904 272.785C292.17 273.866 290.858 275.564 289.931 276.53C289.043 277.495 288.233 278.306 288.117 278.306C288.001 278.306 286.688 277.379 285.221 276.298C283.754 275.178 280.203 272.244 277.346 269.812C274.489 267.341 270.667 264.175 265.532 260.121H250.476C241.172 260.121 231.597 259.889 225.382 259.503C219.437 259.155 213.916 259.001 211.87 259.155C209.939 259.31 207.43 259.696 206.272 260.005C205.114 260.314 203.376 261.009 202.411 261.588C201.446 262.128 197.701 265.526 194.111 269.155C190.521 272.746 186.853 276.221 184.459 277.881L182.992 276.452C182.143 275.642 180.753 273.943 179.827 272.669C178.939 271.395 177.472 268.962 176.622 267.263C175.773 265.565 174.538 262.514 173.881 260.507C173.186 258.499 172.221 255.101 171.681 252.978C171.14 250.854 169.751 244.599 168.592 239.078C167.434 233.557 166.353 228.576 166.199 227.959C166.006 227.225 165.697 226.916 165.156 226.916C164.732 226.916 163.496 226.685 162.454 226.376C161.334 226.028 159.79 225.179 158.786 224.291C157.821 223.441 156.084 221.434 152.802 216.762L152.725 212.09C152.687 208.383 152.455 206.723 151.721 204.136C151.181 202.322 149.83 198.268 148.71 195.063C146.819 189.696 146.703 189.001 146.664 185.527C146.625 182.052 146.703 181.743 147.591 180.816C148.131 180.237 149.173 179.581 149.907 179.349C150.641 179.117 152.416 178.886 156.47 178.847Z" fill="white"></path><path d="M221.907 269.58C223.413 269.001 226.077 268.229 227.891 267.843C230.516 267.263 232.37 267.148 237.157 267.225C241.674 267.341 243.797 267.572 245.843 268.151C247.349 268.576 249.588 269.348 250.862 269.85C252.136 270.391 254.491 271.626 256.074 272.669C257.657 273.711 260.127 275.68 261.517 277.07C262.907 278.499 265.03 281.124 266.189 282.939C267.385 284.715 269.393 288.344 273.06 295.68L270.667 297.92C269.316 299.155 267.038 300.854 265.532 301.742C264.065 302.63 261.517 303.865 259.934 304.483C258.351 305.101 255.649 305.989 253.95 306.414C252.252 306.838 249.125 307.495 247.001 307.842C244.453 308.267 240.902 308.499 236.578 308.499C232.524 308.499 228.47 308.267 225.961 307.881C223.722 307.533 220.016 306.723 217.661 306.066C215.113 305.371 211.561 303.981 208.781 302.591C206.233 301.356 203.183 299.464 201.987 298.46C200.828 297.456 199.516 296.182 199.13 295.68C198.512 294.792 198.473 294.483 198.898 292.977C199.13 292.012 199.902 290.005 200.597 288.537C201.292 287.032 202.45 284.947 203.183 283.904C203.917 282.823 205.538 280.854 206.812 279.503C208.125 278.151 210.132 276.298 211.291 275.371C212.449 274.483 214.727 273.016 216.309 272.167C217.892 271.317 220.44 270.159 221.907 269.58Z" fill="white"></path><path d="M152.918 291.163C155.196 291.124 158.632 290.931 160.524 290.738C162.454 290.545 164.346 290.429 164.77 290.506C165.195 290.545 166.315 290.7 167.28 290.815C168.284 290.931 169.673 291.472 170.561 292.089C171.411 292.707 173.264 294.638 174.654 296.452C176.082 298.228 178.244 300.661 179.479 301.781C180.753 302.939 183.765 305.217 186.197 306.838C188.629 308.46 192.567 310.777 194.883 311.973C197.238 313.17 200.944 314.831 203.183 315.719C205.423 316.568 208.704 317.726 210.519 318.228C212.333 318.73 215.537 319.502 217.661 319.927C219.784 320.352 223.336 320.892 225.575 321.124C227.814 321.356 231.443 321.549 233.682 321.549C235.921 321.549 239.936 321.278 242.677 320.97C245.38 320.622 249.279 320.004 251.364 319.58C253.41 319.116 256.923 318.151 259.162 317.417C261.401 316.684 265.494 314.985 268.235 313.634C271.014 312.282 274.991 310.004 277.114 308.576C279.237 307.147 282.287 304.946 283.87 303.634C285.453 302.36 289.121 299.001 297.189 291.047H307.343C312.902 291.047 317.457 291.163 317.457 291.317C317.457 291.472 315.99 293.634 314.253 296.105C312.516 298.614 309.35 302.669 307.227 305.178C305.103 307.649 301.706 311.201 299.699 313.055C297.691 314.946 294.911 317.34 293.522 318.46C292.132 319.58 288.927 321.858 286.379 323.556C283.831 325.217 279.508 327.688 276.728 329.039C273.987 330.39 270.011 332.128 267.964 332.9C265.88 333.634 261.865 334.869 259.085 335.603C256.267 336.375 251.595 337.34 248.739 337.803C244.299 338.537 241.982 338.691 232.91 338.691C224.417 338.691 221.405 338.576 217.854 337.996C215.422 337.61 211.406 336.8 208.974 336.182C206.542 335.603 202.72 334.444 200.481 333.672C198.242 332.9 194.767 331.51 192.76 330.622C190.752 329.695 187.355 327.958 185.232 326.722C183.108 325.526 179.981 323.556 178.282 322.398C176.584 321.201 173.457 318.807 171.333 317.07C169.21 315.333 165.195 311.587 162.415 308.73C159.636 305.912 156.007 301.858 154.308 299.734C152.609 297.611 150.679 295.024 149.984 294.02C149.328 293.016 148.749 291.974 148.749 291.703C148.749 291.356 149.868 291.201 152.918 291.163Z" fill="white"></path><path d="M102.923 295.873C104.236 295.757 106.089 295.603 107.054 295.526C108.019 295.448 111.648 295.41 115.162 295.41C118.675 295.371 125.276 295.487 138.209 295.873L141.684 300.506C143.614 303.016 146.819 307.031 148.865 309.387C150.872 311.703 154.656 315.719 157.281 318.267C159.906 320.815 163.882 324.367 166.122 326.143C168.361 327.919 172.26 330.776 174.808 332.437C177.356 334.097 181.603 336.568 184.266 337.919C186.93 339.271 190.868 341.085 193.069 341.973C195.231 342.823 198.975 344.135 201.369 344.869C203.724 345.564 207.971 346.606 210.712 347.147C213.491 347.688 217.468 348.344 219.591 348.614C221.907 348.923 227.428 349.116 233.296 349.077C240.361 349.077 244.492 348.884 247.966 348.421C250.63 348.074 254.954 347.301 257.618 346.761C260.282 346.22 265.069 344.908 268.235 343.865C271.439 342.823 276.651 340.699 279.816 339.155C283.021 337.61 287.267 335.294 289.275 334.058C291.282 332.823 295.027 330.236 297.575 328.305C300.471 326.143 304.756 322.321 309.003 318.074C312.709 314.329 317.303 309.387 319.156 307.07C321.009 304.715 323.634 301.201 327.495 295.68H366.101L363.939 300.198C362.781 302.707 360.812 306.568 359.577 308.807C358.341 311.008 356.99 313.402 356.604 314.097C355.87 315.333 355.87 315.371 356.72 316.993C357.222 317.881 358.611 319.85 359.847 321.356C361.082 322.823 364.866 326.452 368.263 329.425C371.622 332.398 375.521 335.873 376.872 337.147C378.223 338.421 380.385 340.776 381.659 342.398C382.933 343.981 384.555 346.452 385.25 347.881C385.983 349.309 386.832 351.664 387.18 353.093C387.566 354.753 387.72 356.568 387.605 358.035C387.489 359.27 387.064 361.278 386.678 362.475C386.253 363.633 385.25 365.641 384.439 366.915C383.59 368.151 378.995 373.131 374.208 377.958C368.61 383.556 364.634 387.263 363.013 388.305C361.623 389.154 359.654 390.197 358.573 390.544C357.337 390.969 355.484 391.201 353.361 391.201C351.238 391.201 349.346 390.93 347.956 390.467C346.798 390.081 344.868 389.27 343.71 388.691C342.551 388.112 340.274 386.606 338.691 385.332C337.108 384.097 334.83 382.012 333.672 380.737C332.514 379.502 329.734 376.297 327.534 373.633C325.294 371.008 322.013 367.301 320.198 365.409C318.384 363.556 316.068 361.394 313.211 359.386L309.659 361.626C307.69 362.9 304.447 364.792 302.517 365.873C300.548 366.954 297.421 368.575 295.568 369.425C293.676 370.313 289.931 371.934 287.152 373.054C284.411 374.174 279.199 376.066 275.57 377.224C271.979 378.382 267.81 379.656 266.304 380.042C264.837 380.429 263.37 380.931 263.061 381.162C262.637 381.51 262.598 384.097 262.83 396.645C263.023 407.108 262.984 412.899 262.675 415.757C262.405 417.957 261.865 421.085 261.44 422.706C261.015 424.289 260.205 426.451 259.703 427.533C259.162 428.575 258.004 430.197 257.116 431.123C256.228 432.05 254.723 433.17 253.757 433.671C252.792 434.135 251.248 434.714 250.283 434.946C249.318 435.216 246.538 435.602 244.106 435.834C241.288 436.142 236.23 436.22 230.208 436.104C224.996 435.988 219.668 435.718 218.356 435.486C217.004 435.216 214.997 434.714 213.916 434.289C212.796 433.865 210.943 432.706 209.785 431.702C208.665 430.66 207.314 429.154 206.812 428.305C206.31 427.417 205.577 425.795 205.191 424.637C204.766 423.44 204.226 421.278 203.917 419.811C203.531 417.764 203.376 412.745 203.376 381.587L195.848 378.961C191.717 377.533 185.54 375.332 182.143 374.058C178.746 372.822 173.611 370.738 170.754 369.425C167.897 368.151 163.651 365.95 161.296 364.56C158.979 363.209 156.895 362.05 156.663 362.05C156.47 362.089 155.428 362.552 154.347 363.17C153.304 363.788 151.297 365.294 149.946 366.568C148.594 367.803 145.158 371.51 142.379 374.83C139.561 378.112 135.816 382.205 134.04 383.942C132.264 385.641 129.755 387.726 128.481 388.575C127.207 389.386 124.852 390.506 123.269 391.008C120.798 391.78 119.833 391.896 116.706 391.741C113.733 391.587 112.614 391.355 110.722 390.467C108.83 389.579 107.131 388.112 101.418 382.398C97.5958 378.537 92.5384 373.556 90.1834 371.355C86.7475 368.035 85.7051 366.761 84.6241 364.599C83.4273 362.128 83.3115 361.587 83.3115 358.421C83.3501 355.757 83.5432 354.29 84.2767 352.243C84.7786 350.738 86.0912 348.228 87.1335 346.645C88.3689 344.83 93.5807 339.155 100.993 331.587C107.518 324.869 112.845 319.271 112.845 319.116C112.845 318.962 111.919 317.379 110.76 315.641C109.602 313.904 106.823 309.001 104.583 304.753C102.344 300.506 100.491 296.8 100.491 296.568C100.53 296.298 101.495 296.028 102.923 295.873Z" fill="white"></path><path d="M219.012 52.2456C220.826 51.9367 223.259 51.4734 224.417 51.2804C225.575 51.0873 230.71 51.0101 235.806 51.0487C243.372 51.1259 245.92 51.319 249.704 52.014C252.252 52.4773 256.344 53.3653 258.776 53.9831C261.208 54.6394 265.03 55.7977 267.269 56.5699C269.509 57.3421 273.215 58.9637 275.531 60.122C277.848 61.3189 279.894 62.5544 280.125 62.8633C280.396 63.288 279.083 66.5312 274.991 75.4115C271.941 81.9751 267.308 91.7048 264.683 97.0329C262.019 102.322 259.355 108.153 258.738 109.967C258.043 112.129 257.502 114.755 257.232 117.689C256.962 120.855 256.962 123.79 257.232 127.921C257.464 131.087 257.772 137.882 257.888 142.979C258.004 148.075 258.004 152.708 257.618 154.368H214.765L214.534 150.43C214.418 148.229 214.534 142.979 214.842 138.731C215.113 134.484 215.344 127.535 215.344 123.288C215.344 117.149 215.19 115.064 214.649 113.056C214.263 111.666 212.256 106.994 210.171 102.631C208.048 98.2685 204.457 90.5465 202.102 85.45C199.786 80.3535 196.466 72.9791 194.729 69.0409C193.03 65.1027 191.602 61.705 191.602 61.512C191.602 61.3189 192.914 60.5081 194.574 59.6973C196.234 58.9251 199.67 57.5738 202.218 56.6857C204.766 55.8363 208.858 54.6008 211.291 53.9831C213.723 53.3653 217.197 52.5931 219.012 52.2456Z" stroke="#6B00C9" stroke-width="0.386061"></path><path d="M172.723 75.952C174.731 73.9057 177.742 71.1644 179.441 69.8131C182.336 67.5737 182.568 67.4579 183.031 68.1142C183.34 68.5389 184.382 70.508 185.386 72.5157C186.39 74.5234 188.822 80.006 190.752 84.6778C192.721 89.3496 195.539 95.4499 197.045 98.1912C198.551 100.933 200.635 104.871 201.639 106.878C202.643 108.886 203.878 111.743 204.342 113.249C204.998 115.334 205.23 117.226 205.384 121.743C205.538 125.141 205.384 130.237 205.075 134.098C204.805 137.728 204.612 143.751 204.728 154.368H151.837L151.683 153.48C151.567 153.017 151.181 150.469 150.834 147.805C150.409 144.677 150.177 140.276 150.177 135.257C150.139 131.01 150.37 125.874 150.641 123.867C150.911 121.859 151.567 118.114 152.108 115.566C152.648 113.017 153.729 108.925 154.54 106.492C155.35 104.06 156.74 100.315 157.705 98.1912C158.632 96.0677 160.485 92.5156 161.798 90.2762C163.11 88.0369 165.311 84.755 166.662 82.9404C168.013 81.1257 170.716 77.9983 172.723 75.952Z" stroke="#6B00C9" stroke-width="0.386061"></path><path d="M274.605 99.5426C277.307 94.1372 281.592 85.0639 284.102 79.3497V79.3883C286.611 73.674 288.85 69.0409 289.082 69.0409C289.275 69.0409 291.012 70.3922 292.943 72.0524C294.873 73.7126 297.691 76.5312 299.274 78.3072C300.818 80.1219 302.98 82.7859 304.022 84.2917C305.065 85.7975 306.879 88.5388 307.999 90.4693C309.157 92.3998 310.856 95.7202 311.821 97.921C312.786 100.083 314.292 103.905 315.102 106.377C315.913 108.886 317.033 113.017 317.573 115.566C318.114 118.114 318.77 121.859 319.04 123.867C319.349 125.99 319.581 131.087 319.581 136.029C319.581 140.739 319.349 146.338 319.079 148.577C318.809 150.816 318.5 153.017 318.23 154.368L268.08 154.175L267.81 143.172C267.617 137.11 267.501 128.5 267.501 124.06C267.501 116.222 267.54 115.836 268.582 112.67C269.2 110.855 271.902 104.948 274.605 99.5426Z" stroke="#6B00C9" stroke-width="0.386061"></path><path d="M159.172 156.608C167.589 156.299 196.659 156.029 242.176 155.874C280.704 155.758 313.906 155.604 315.913 155.565C317.921 155.527 320.237 155.681 321.009 155.874C321.82 156.106 323.017 156.724 323.673 157.341C324.368 157.921 325.14 158.847 325.951 160.507L324.098 160.7C323.094 160.778 315.604 161.087 307.42 161.357C297.575 161.704 274.257 161.859 238.315 161.859C208.472 161.859 175.078 161.704 144.116 161.202L144.232 159.581C144.309 158.307 144.502 157.921 145.274 157.573C145.853 157.303 151.297 156.917 159.172 156.608Z" stroke="#6B00C9" stroke-width="0.386061"></path><path d="M156.47 178.847V172.785V166.685H316.299L316.492 178.461L319.774 178.963C321.588 179.233 323.634 179.774 324.329 180.121C325.101 180.507 325.758 181.241 325.989 181.936C326.182 182.554 326.337 184.059 326.337 185.218C326.337 186.376 326.028 188.461 325.603 189.851C325.179 191.241 324.059 194.175 323.094 196.414C322.167 198.654 321.125 201.434 320.777 202.592C320.314 204.175 320.16 206.067 320.237 210.121C320.353 215.485 320.314 215.565 319.119 218.033L319.117 218.036C318.461 219.426 317.071 221.395 316.068 222.437C315.025 223.48 313.288 224.754 312.246 225.256C311.126 225.758 309.582 226.144 308.578 226.144C306.995 226.144 306.802 226.221 306.57 227.186C306.416 227.804 305.412 232.437 304.331 237.534C303.25 242.63 301.822 248.962 301.166 251.626C300.509 254.291 299.313 258.422 298.502 260.816C297.652 263.171 296.378 266.414 295.606 267.958C294.834 269.464 293.599 271.665 292.904 272.785C292.17 273.866 290.858 275.564 289.931 276.53C289.043 277.495 288.233 278.306 288.117 278.306C288.001 278.306 286.688 277.379 285.221 276.298C283.754 275.178 280.203 272.244 277.346 269.812C274.489 267.341 270.667 264.175 265.532 260.121H250.476C241.172 260.121 231.597 259.889 225.382 259.503C219.437 259.155 213.916 259.001 211.87 259.155C209.939 259.31 207.43 259.696 206.272 260.005C205.114 260.314 203.376 261.009 202.411 261.588C201.446 262.128 197.701 265.526 194.111 269.155C190.521 272.746 186.853 276.221 184.459 277.881L182.992 276.452C182.143 275.642 180.753 273.943 179.827 272.669C178.939 271.395 177.472 268.962 176.622 267.263C175.773 265.565 174.538 262.514 173.881 260.507C173.186 258.499 172.221 255.101 171.681 252.978C171.14 250.854 169.751 244.599 168.592 239.078C167.434 233.557 166.353 228.576 166.199 227.959C166.006 227.225 165.697 226.916 165.156 226.916C164.732 226.916 163.496 226.685 162.454 226.376C161.334 226.028 159.79 225.179 158.786 224.291C157.821 223.441 156.084 221.434 152.802 216.762L152.725 212.09C152.687 208.383 152.455 206.723 151.721 204.136C151.181 202.322 149.83 198.268 148.71 195.063C146.819 189.696 146.703 189.001 146.664 185.527C146.625 182.052 146.703 181.743 147.591 180.816C148.131 180.237 149.173 179.581 149.907 179.349C150.641 179.117 152.416 178.886 156.47 178.847Z" stroke="#6B00C9" stroke-width="0.386061"></path><path d="M221.907 269.58C223.413 269.001 226.077 268.229 227.891 267.843C230.516 267.263 232.37 267.148 237.157 267.225C241.674 267.341 243.797 267.572 245.843 268.151C247.349 268.576 249.588 269.348 250.862 269.85C252.136 270.391 254.491 271.626 256.074 272.669C257.657 273.711 260.127 275.68 261.517 277.07C262.907 278.499 265.03 281.124 266.189 282.939C267.385 284.715 269.393 288.344 273.06 295.68L270.667 297.92C269.316 299.155 267.038 300.854 265.532 301.742C264.065 302.63 261.517 303.865 259.934 304.483C258.351 305.101 255.649 305.989 253.95 306.414C252.252 306.838 249.125 307.495 247.001 307.842C244.453 308.267 240.902 308.499 236.578 308.499C232.524 308.499 228.47 308.267 225.961 307.881C223.722 307.533 220.016 306.723 217.661 306.066C215.113 305.371 211.561 303.981 208.781 302.591C206.233 301.356 203.183 299.464 201.987 298.46C200.828 297.456 199.516 296.182 199.13 295.68C198.512 294.792 198.473 294.483 198.898 292.977C199.13 292.012 199.902 290.005 200.597 288.537C201.292 287.032 202.45 284.947 203.183 283.904C203.917 282.823 205.538 280.854 206.812 279.503C208.125 278.151 210.132 276.298 211.291 275.371C212.449 274.483 214.727 273.016 216.309 272.167C217.892 271.317 220.44 270.159 221.907 269.58Z" stroke="#6B00C9" stroke-width="0.386061"></path><path d="M152.918 291.163C155.196 291.124 158.632 290.931 160.524 290.738C162.454 290.545 164.346 290.429 164.77 290.506C165.195 290.545 166.315 290.7 167.28 290.815C168.284 290.931 169.673 291.472 170.561 292.089C171.411 292.707 173.264 294.638 174.654 296.452C176.082 298.228 178.244 300.661 179.479 301.781C180.753 302.939 183.765 305.217 186.197 306.838C188.629 308.46 192.567 310.777 194.883 311.973C197.238 313.17 200.944 314.831 203.183 315.719C205.423 316.568 208.704 317.726 210.519 318.228C212.333 318.73 215.537 319.502 217.661 319.927C219.784 320.352 223.336 320.892 225.575 321.124C227.814 321.356 231.443 321.549 233.682 321.549C235.921 321.549 239.936 321.278 242.677 320.97C245.38 320.622 249.279 320.004 251.364 319.58C253.41 319.116 256.923 318.151 259.162 317.417C261.401 316.684 265.494 314.985 268.235 313.634C271.014 312.282 274.991 310.004 277.114 308.576C279.237 307.147 282.287 304.946 283.87 303.634C285.453 302.36 289.121 299.001 297.189 291.047H307.343C312.902 291.047 317.457 291.163 317.457 291.317C317.457 291.472 315.99 293.634 314.253 296.105C312.516 298.614 309.35 302.669 307.227 305.178C305.103 307.649 301.706 311.201 299.699 313.055C297.691 314.946 294.911 317.34 293.522 318.46C292.132 319.58 288.927 321.858 286.379 323.556C283.831 325.217 279.508 327.688 276.728 329.039C273.987 330.39 270.011 332.128 267.964 332.9C265.88 333.634 261.865 334.869 259.085 335.603C256.267 336.375 251.595 337.34 248.739 337.803C244.299 338.537 241.982 338.691 232.91 338.691C224.417 338.691 221.405 338.576 217.854 337.996C215.422 337.61 211.406 336.8 208.974 336.182C206.542 335.603 202.72 334.444 200.481 333.672C198.242 332.9 194.767 331.51 192.76 330.622C190.752 329.695 187.355 327.958 185.232 326.722C183.108 325.526 179.981 323.556 178.282 322.398C176.584 321.201 173.457 318.807 171.333 317.07C169.21 315.333 165.195 311.587 162.415 308.73C159.636 305.912 156.007 301.858 154.308 299.734C152.609 297.611 150.679 295.024 149.984 294.02C149.328 293.016 148.749 291.974 148.749 291.703C148.749 291.356 149.868 291.201 152.918 291.163Z" stroke="#6B00C9" stroke-width="0.386061"></path><path d="M102.923 295.873C104.236 295.757 106.089 295.603 107.054 295.526C108.019 295.448 111.648 295.41 115.162 295.41C118.675 295.371 125.276 295.487 138.209 295.873L141.684 300.506C143.614 303.016 146.819 307.031 148.865 309.387C150.872 311.703 154.656 315.719 157.281 318.267C159.906 320.815 163.882 324.367 166.122 326.143C168.361 327.919 172.26 330.776 174.808 332.437C177.356 334.097 181.603 336.568 184.266 337.919C186.93 339.271 190.868 341.085 193.069 341.973C195.231 342.823 198.975 344.135 201.369 344.869C203.724 345.564 207.971 346.606 210.712 347.147C213.491 347.688 217.468 348.344 219.591 348.614C221.907 348.923 227.428 349.116 233.296 349.077C240.361 349.077 244.492 348.884 247.966 348.421C250.63 348.074 254.954 347.301 257.618 346.761C260.282 346.22 265.069 344.908 268.235 343.865C271.439 342.823 276.651 340.699 279.816 339.155C283.021 337.61 287.267 335.294 289.275 334.058C291.282 332.823 295.027 330.236 297.575 328.305C300.471 326.143 304.756 322.321 309.003 318.074C312.709 314.329 317.303 309.387 319.156 307.07C321.009 304.715 323.634 301.201 327.495 295.68H366.101L363.939 300.198C362.781 302.707 360.812 306.568 359.577 308.807C358.341 311.008 356.99 313.402 356.604 314.097C355.87 315.333 355.87 315.371 356.72 316.993C357.222 317.881 358.611 319.85 359.847 321.356C361.082 322.823 364.866 326.452 368.263 329.425C371.622 332.398 375.521 335.873 376.872 337.147C378.223 338.421 380.385 340.776 381.659 342.398C382.933 343.981 384.555 346.452 385.25 347.881C385.983 349.309 386.832 351.664 387.18 353.093C387.566 354.753 387.72 356.568 387.605 358.035C387.489 359.27 387.064 361.278 386.678 362.475C386.253 363.633 385.25 365.641 384.439 366.915C383.59 368.151 378.995 373.131 374.208 377.958C368.61 383.556 364.634 387.263 363.013 388.305C361.623 389.154 359.654 390.197 358.573 390.544C357.337 390.969 355.484 391.201 353.361 391.201C351.238 391.201 349.346 390.93 347.956 390.467C346.798 390.081 344.868 389.27 343.71 388.691C342.551 388.112 340.274 386.606 338.691 385.332C337.108 384.097 334.83 382.012 333.672 380.737C332.514 379.502 329.734 376.297 327.534 373.633C325.294 371.008 322.013 367.301 320.198 365.409C318.384 363.556 316.068 361.394 313.211 359.386L309.659 361.626C307.69 362.9 304.447 364.792 302.517 365.873C300.548 366.954 297.421 368.575 295.568 369.425C293.676 370.313 289.931 371.934 287.152 373.054C284.411 374.174 279.199 376.066 275.57 377.224C271.979 378.382 267.81 379.656 266.304 380.042C264.837 380.429 263.37 380.931 263.061 381.162C262.637 381.51 262.598 384.097 262.83 396.645C263.023 407.108 262.984 412.899 262.675 415.757C262.405 417.957 261.865 421.085 261.44 422.706C261.015 424.289 260.205 426.451 259.703 427.533C259.162 428.575 258.004 430.197 257.116 431.123C256.228 432.05 254.723 433.17 253.757 433.671C252.792 434.135 251.248 434.714 250.283 434.946C249.318 435.216 246.538 435.602 244.106 435.834C241.288 436.142 236.23 436.22 230.208 436.104C224.996 435.988 219.668 435.718 218.356 435.486C217.004 435.216 214.997 434.714 213.916 434.289C212.796 433.865 210.943 432.706 209.785 431.702C208.665 430.66 207.314 429.154 206.812 428.305C206.31 427.417 205.577 425.795 205.191 424.637C204.766 423.44 204.226 421.278 203.917 419.811C203.531 417.764 203.376 412.745 203.376 381.587L195.848 378.961C191.717 377.533 185.54 375.332 182.143 374.058C178.746 372.822 173.611 370.738 170.754 369.425C167.897 368.151 163.651 365.95 161.296 364.56C158.979 363.209 156.895 362.05 156.663 362.05C156.47 362.089 155.428 362.552 154.347 363.17C153.304 363.788 151.297 365.294 149.946 366.568C148.594 367.803 145.158 371.51 142.379 374.83C139.561 378.112 135.816 382.205 134.04 383.942C132.264 385.641 129.755 387.726 128.481 388.575C127.207 389.386 124.852 390.506 123.269 391.008C120.798 391.78 119.833 391.896 116.706 391.741C113.733 391.587 112.614 391.355 110.722 390.467C108.83 389.579 107.131 388.112 101.418 382.398C97.5958 378.537 92.5384 373.556 90.1834 371.355C86.7475 368.035 85.7051 366.761 84.6241 364.599C83.4273 362.128 83.3115 361.587 83.3115 358.421C83.3501 355.757 83.5432 354.29 84.2767 352.243C84.7786 350.738 86.0912 348.228 87.1335 346.645C88.3689 344.83 93.5807 339.155 100.993 331.587C107.518 324.869 112.845 319.271 112.845 319.116C112.845 318.962 111.919 317.379 110.76 315.641C109.602 313.904 106.823 309.001 104.583 304.753C102.344 300.506 100.491 296.8 100.491 296.568C100.53 296.298 101.495 296.028 102.923 295.873Z" stroke="#6B00C9" stroke-width="0.386061"></path><path d="M245.65 66.5309C245.65 65.4884 245.805 62.863 245.998 60.7394L246.384 56.8398L249.588 57.1487C251.364 57.3032 254.26 57.7279 256.074 58.0754C257.889 58.3842 261.016 59.195 263.023 59.8514C265.031 60.4692 268.235 61.7819 270.165 62.7085C272.057 63.6738 274.026 64.7162 275.416 65.7587L273.292 69.8899C272.096 72.2065 271.13 74.4073 271.13 74.832C271.13 75.2567 271.015 75.6042 270.822 75.6042C270.667 75.6042 268.814 74.9092 266.691 74.0598C264.567 73.1718 261.363 71.9363 259.549 71.3185C257.734 70.6621 255.147 69.9286 253.758 69.6197C252.368 69.3494 249.974 68.9633 245.65 68.4614V66.5309Z" fill="#6B00C9"></path><path d="M232.1 67.5347V62.5155V57.4962H242.137V67.5347H232.1Z" fill="#6B00C9"></path><path d="M154.038 134.909C154 130.16 154.193 125.797 154.501 123.596C154.772 121.627 155.081 120.044 155.158 120.044C155.235 120.044 158.632 121.781 162.725 123.944C166.642 126.014 173.144 129.322 177.485 131.532L178.051 131.82C182.414 133.982 188.513 137.11 191.563 138.77C194.652 140.391 197.779 142.206 198.512 142.785C199.284 143.364 200.172 144.484 200.558 145.256C200.945 146.067 201.176 147.341 201.022 149.967H155.081L154.617 146.299C154.347 144.252 154.077 139.156 154.038 134.909Z" fill="#6B00C9"></path><path d="M168.207 192.823L168.129 189.426L168.014 186.067H303.907L303.714 192.823L300.741 192.901C298 192.978 297.73 193.055 297.576 193.866C297.46 194.368 297.383 196.839 297.383 199.387C297.383 201.935 297.653 206.684 297.962 210.005C298.348 213.48 298.502 217.225 298.348 218.962C298.232 220.777 297.807 222.746 297.267 223.943C296.803 225.024 295.645 226.607 294.757 227.418C293.869 228.229 292.364 229.232 291.476 229.657C290.588 230.043 288.696 230.584 287.306 230.815C285.53 231.163 280.898 231.24 257.001 230.893L254.646 221.51C253.372 216.337 251.171 207.804 247.349 193.016L245.998 192.746C245.264 192.63 243.797 192.708 242.716 192.978C241.597 193.248 239.821 194.136 236.153 196.8L234.03 195.101C232.64 193.982 231.25 193.248 229.976 192.978C228.934 192.746 227.544 192.63 226.888 192.746C225.807 192.978 225.691 193.21 224.108 198.113C223.22 200.931 221.869 205.41 221.174 208.074C220.441 210.7 219.051 216.375 218.047 220.622C217.043 224.87 216.04 228.924 215.538 231.047H200.365C185.811 231.047 185.116 231.008 182.684 230.198C181.101 229.657 179.518 228.769 178.321 227.688C177.279 226.761 176.005 225.178 175.503 224.175C175.001 223.171 174.384 221.086 174.152 219.541C173.804 217.418 173.804 215.024 174.152 209.426C174.384 205.372 174.615 200.468 174.615 198.499C174.615 196.53 174.422 194.484 174.191 193.982C173.843 193.094 173.611 192.978 168.207 192.823Z" fill="#6B00C9"></path><path d="M344.521 256.105C345.37 254.406 347.223 251.163 348.651 248.885L351.199 244.715H368.418L369.499 247.147C370.116 248.46 371.854 251.587 376.139 258.614L374.904 261.047C374.247 262.36 372.896 264.831 371.854 266.529C370.85 268.228 369.653 270.468 368.418 273.286L350.852 273.325L350.118 271.858C349.732 271.047 348.536 268.923 347.455 267.109C346.335 265.294 344.907 262.784 342.976 259.194L344.521 256.105Z" fill="#6B00C9"></path><path d="M131.376 321.201C132.226 320.776 133.847 320.158 134.967 319.85C136.305 319.463 138.132 319.309 140.449 319.386C143.113 319.502 144.387 319.734 145.854 320.467C146.935 320.969 148.44 322.012 149.251 322.822C150.023 323.633 151.104 325.139 151.645 326.22C152.185 327.263 152.803 329.309 153.034 330.737C153.382 332.745 153.382 334.019 153.034 336.259C152.764 337.842 152.146 340.004 151.645 341.085C151.143 342.127 150.062 343.788 149.212 344.753C148.402 345.679 146.78 346.992 145.622 347.61C144.464 348.228 142.572 348.845 141.414 349C140.256 349.154 138.171 349.116 136.781 348.923C135.391 348.73 133.423 348.189 132.342 347.687C131.299 347.224 129.678 346.104 128.79 345.216C127.863 344.328 126.628 342.552 125.972 341.278C125.354 340.004 124.659 337.803 124.427 336.452C124.157 334.753 124.157 333.131 124.427 331.51C124.659 330.197 125.238 328.228 125.701 327.185C126.203 326.104 127.323 324.521 128.211 323.595C129.099 322.707 130.527 321.626 131.376 321.201Z" fill="#6B00C9"></path><path d="M320.546 321.278C321.936 320.506 323.596 319.734 324.214 319.579C324.87 319.425 326.955 319.348 328.846 319.386C331.858 319.502 332.63 319.656 334.637 320.699C335.911 321.317 337.726 322.629 338.614 323.556C339.54 324.483 340.814 326.297 341.432 327.571C342.204 329.154 342.629 330.737 342.822 332.591C342.976 334.483 342.86 336.027 342.397 337.803C342.05 339.154 341.2 341.124 340.505 342.127C339.811 343.131 338.575 344.483 337.726 345.1C336.877 345.718 335.332 346.606 334.251 347.108C332.591 347.88 331.703 348.035 327.843 348.035C323.519 348.035 323.326 347.996 320.508 346.606C318.5 345.641 317.11 344.598 315.798 343.131C314.717 341.934 313.713 340.351 313.404 339.347C313.095 338.382 312.748 336.799 312.632 335.873C312.477 334.869 312.632 332.977 312.941 331.432C313.25 329.927 313.945 327.842 314.446 326.799C314.987 325.718 315.991 324.367 316.724 323.749C317.458 323.131 319.156 322.012 320.546 321.278Z" fill="#6B00C9"></path><path d="M245.65 66.5309C245.65 65.4884 245.805 62.863 245.998 60.7394L246.384 56.8398L249.588 57.1487C251.364 57.3032 254.26 57.7279 256.074 58.0754C257.889 58.3842 261.016 59.195 263.023 59.8514C265.031 60.4692 268.235 61.7819 270.165 62.7085C272.057 63.6738 274.026 64.7162 275.416 65.7587L273.292 69.8899C272.096 72.2065 271.13 74.4073 271.13 74.832C271.13 75.2567 271.015 75.6042 270.822 75.6042C270.667 75.6042 268.814 74.9092 266.691 74.0598C264.567 73.1718 261.363 71.9363 259.549 71.3185C257.734 70.6621 255.147 69.9286 253.758 69.6197C252.368 69.3494 249.974 68.9633 245.65 68.4614V66.5309Z" stroke="#6B00C9" stroke-width="0.386061"></path><path d="M232.1 67.5347V62.5155V57.4962H242.137V67.5347H232.1Z" stroke="#6B00C9" stroke-width="0.386061"></path><path d="M154.038 134.909C154 130.16 154.193 125.797 154.501 123.596C154.772 121.627 155.081 120.044 155.158 120.044C155.235 120.044 158.632 121.781 162.725 123.944C166.642 126.014 173.144 129.322 177.485 131.532L178.051 131.82C182.414 133.982 188.513 137.11 191.563 138.77C194.652 140.391 197.779 142.206 198.512 142.785C199.284 143.364 200.172 144.484 200.558 145.256C200.945 146.067 201.176 147.341 201.022 149.967H155.081L154.617 146.299C154.347 144.252 154.077 139.156 154.038 134.909Z" stroke="#6B00C9" stroke-width="0.386061"></path><path d="M168.207 192.823L168.129 189.426L168.014 186.067H303.907L303.714 192.823L300.741 192.901C298 192.978 297.73 193.055 297.576 193.866C297.46 194.368 297.383 196.839 297.383 199.387C297.383 201.935 297.653 206.684 297.962 210.005C298.348 213.48 298.502 217.225 298.348 218.962C298.232 220.777 297.807 222.746 297.267 223.943C296.803 225.024 295.645 226.607 294.757 227.418C293.869 228.229 292.364 229.232 291.476 229.657C290.588 230.043 288.696 230.584 287.306 230.815C285.53 231.163 280.898 231.24 257.001 230.893L254.646 221.51C253.372 216.337 251.171 207.804 247.349 193.016L245.998 192.746C245.264 192.63 243.797 192.708 242.716 192.978C241.597 193.248 239.821 194.136 236.153 196.8L234.03 195.101C232.64 193.982 231.25 193.248 229.976 192.978C228.934 192.746 227.544 192.63 226.888 192.746C225.807 192.978 225.691 193.21 224.108 198.113C223.22 200.931 221.869 205.41 221.174 208.074C220.441 210.7 219.051 216.375 218.047 220.622C217.043 224.87 216.04 228.924 215.538 231.047H200.365C185.811 231.047 185.116 231.008 182.684 230.198C181.101 229.657 179.518 228.769 178.321 227.688C177.279 226.761 176.005 225.178 175.503 224.175C175.001 223.171 174.384 221.086 174.152 219.541C173.804 217.418 173.804 215.024 174.152 209.426C174.384 205.372 174.615 200.468 174.615 198.499C174.615 196.53 174.422 194.484 174.191 193.982C173.843 193.094 173.611 192.978 168.207 192.823Z" stroke="#6B00C9" stroke-width="0.386061"></path><path d="M344.521 256.105C345.37 254.406 347.223 251.163 348.651 248.885L351.199 244.715H368.418L369.499 247.147C370.116 248.46 371.854 251.587 376.139 258.614L374.904 261.047C374.247 262.36 372.896 264.831 371.854 266.529C370.85 268.228 369.653 270.468 368.418 273.286L350.852 273.325L350.118 271.858C349.732 271.047 348.536 268.923 347.455 267.109C346.335 265.294 344.907 262.784 342.976 259.194L344.521 256.105Z" stroke="#6B00C9" stroke-width="0.386061"></path><path d="M131.376 321.201C132.226 320.776 133.847 320.158 134.967 319.85C136.305 319.463 138.132 319.309 140.449 319.386C143.113 319.502 144.387 319.734 145.854 320.467C146.935 320.969 148.44 322.012 149.251 322.822C150.023 323.633 151.104 325.139 151.645 326.22C152.185 327.263 152.803 329.309 153.034 330.737C153.382 332.745 153.382 334.019 153.034 336.259C152.764 337.842 152.146 340.004 151.645 341.085C151.143 342.127 150.062 343.788 149.212 344.753C148.402 345.679 146.78 346.992 145.622 347.61C144.464 348.228 142.572 348.845 141.414 349C140.256 349.154 138.171 349.116 136.781 348.923C135.391 348.73 133.423 348.189 132.342 347.687C131.299 347.224 129.678 346.104 128.79 345.216C127.863 344.328 126.628 342.552 125.972 341.278C125.354 340.004 124.659 337.803 124.427 336.452C124.157 334.753 124.157 333.131 124.427 331.51C124.659 330.197 125.238 328.228 125.701 327.185C126.203 326.104 127.323 324.521 128.211 323.595C129.099 322.707 130.527 321.626 131.376 321.201Z" stroke="#6B00C9" stroke-width="0.386061"></path><path d="M320.546 321.278C321.936 320.506 323.596 319.734 324.214 319.579C324.87 319.425 326.955 319.348 328.846 319.386C331.858 319.502 332.63 319.656 334.637 320.699C335.911 321.317 337.726 322.629 338.614 323.556C339.54 324.483 340.814 326.297 341.432 327.571C342.204 329.154 342.629 330.737 342.822 332.591C342.976 334.483 342.86 336.027 342.397 337.803C342.05 339.154 341.2 341.124 340.505 342.127C339.811 343.131 338.575 344.483 337.726 345.1C336.877 345.718 335.332 346.606 334.251 347.108C332.591 347.88 331.703 348.035 327.843 348.035C323.519 348.035 323.326 347.996 320.508 346.606C318.5 345.641 317.11 344.598 315.798 343.131C314.717 341.934 313.713 340.351 313.404 339.347C313.095 338.382 312.748 336.799 312.632 335.873C312.477 334.869 312.632 332.977 312.941 331.432C313.25 329.927 313.945 327.842 314.446 326.799C314.987 325.718 315.991 324.367 316.724 323.749C317.458 323.131 319.156 322.012 320.546 321.278Z" stroke="#6B00C9" stroke-width="0.386061"></path><path d="M133.345 323.981C134.272 323.479 135.816 322.938 136.781 322.745C137.746 322.552 138.789 322.398 139.098 322.359C139.406 322.321 140.719 322.591 141.993 322.938C143.267 323.247 144.811 323.904 145.468 324.367C146.124 324.792 146.703 325.216 146.819 325.293C146.935 325.371 146.24 326.22 145.275 327.185C144.309 328.151 142.147 330.042 140.449 331.394C138.75 332.707 136.241 334.483 134.851 335.332C133.461 336.181 131.531 337.34 130.527 337.88C129.485 338.459 128.597 338.923 128.481 338.923C128.365 338.923 128.095 338.266 127.863 337.494C127.593 336.683 127.4 334.985 127.439 333.71C127.439 332.282 127.709 330.699 128.172 329.656C128.597 328.691 129.523 327.224 130.295 326.375C131.067 325.525 132.419 324.444 133.345 323.981Z" fill="white"></path><path d="M321.434 324.444C322.09 323.904 323.442 323.209 324.407 322.9C325.526 322.552 326.916 322.398 328.267 322.514C329.464 322.629 331.394 323.209 332.707 323.826C334.135 324.521 335.641 325.641 336.683 326.799C337.571 327.842 338.575 329.463 338.884 330.429C339.231 331.394 339.463 332.938 339.463 333.903C339.463 334.869 339.193 336.452 338.884 337.494C338.575 338.498 338.189 339.386 338.035 339.463C337.842 339.579 334.676 337.417 330.97 334.676C327.264 331.934 323.133 329.077 321.82 328.305C319.658 327.108 319.426 326.876 319.774 326.182C319.967 325.757 320.739 324.985 321.434 324.444Z" fill="white"></path><path d="M139.484 334.676C141.916 333.054 144.695 331.046 145.622 330.274C146.549 329.502 147.514 328.923 147.745 329C147.977 329.039 148.556 329.888 149.058 330.815C149.598 331.896 149.907 333.247 149.907 334.405C149.907 335.409 149.637 336.838 149.328 337.571C149.019 338.305 148.016 339.734 147.128 340.699C146.201 341.703 144.657 342.9 143.653 343.401C142.611 343.903 140.873 344.521 139.792 344.753C138.287 345.062 137.206 345.062 135.816 344.714C134.774 344.483 133.229 343.865 132.457 343.363C131.647 342.822 130.99 342.282 130.99 342.127C130.952 341.934 131.878 340.892 132.998 339.772C134.117 338.614 137.051 336.336 139.484 334.676Z" fill="white"></path><path d="M316.879 333.517C316.879 331.703 316.994 329.927 317.149 329.579C317.303 329.193 317.612 328.884 317.844 328.884C318.037 328.884 319.658 329.734 321.434 330.776C323.171 331.819 325.99 333.672 327.688 334.946C329.387 336.22 331.896 338.228 333.286 339.463C334.676 340.699 335.834 341.857 335.911 342.05C335.95 342.243 334.985 342.861 333.788 343.44C331.935 344.328 331.047 344.521 328.46 344.521C325.951 344.521 324.986 344.328 323.249 343.517C322.09 342.977 320.469 341.857 319.658 341.008C318.847 340.197 317.921 338.884 317.535 338.151C317.072 337.185 316.879 335.834 316.879 333.517Z" fill="white"></path><path d="M133.345 323.981C134.272 323.479 135.816 322.938 136.781 322.745C137.746 322.552 138.789 322.398 139.098 322.359C139.406 322.321 140.719 322.591 141.993 322.938C143.267 323.247 144.811 323.904 145.468 324.367C146.124 324.792 146.703 325.216 146.819 325.293C146.935 325.371 146.24 326.22 145.275 327.185C144.309 328.151 142.147 330.042 140.449 331.394C138.75 332.707 136.241 334.483 134.851 335.332C133.461 336.181 131.531 337.34 130.527 337.88C129.485 338.459 128.597 338.923 128.481 338.923C128.365 338.923 128.095 338.266 127.863 337.494C127.593 336.683 127.4 334.985 127.439 333.71C127.439 332.282 127.709 330.699 128.172 329.656C128.597 328.691 129.523 327.224 130.295 326.375C131.067 325.525 132.419 324.444 133.345 323.981Z" stroke="#6B00C9" stroke-width="0.386061"></path><path d="M321.434 324.444C322.09 323.904 323.442 323.209 324.407 322.9C325.526 322.552 326.916 322.398 328.267 322.514C329.464 322.629 331.394 323.209 332.707 323.826C334.135 324.521 335.641 325.641 336.683 326.799C337.571 327.842 338.575 329.463 338.884 330.429C339.231 331.394 339.463 332.938 339.463 333.903C339.463 334.869 339.193 336.452 338.884 337.494C338.575 338.498 338.189 339.386 338.035 339.463C337.842 339.579 334.676 337.417 330.97 334.676C327.264 331.934 323.133 329.077 321.82 328.305C319.658 327.108 319.426 326.876 319.774 326.182C319.967 325.757 320.739 324.985 321.434 324.444Z" stroke="#6B00C9" stroke-width="0.386061"></path><path d="M139.484 334.676C141.916 333.054 144.695 331.046 145.622 330.274C146.549 329.502 147.514 328.923 147.745 329C147.977 329.039 148.556 329.888 149.058 330.815C149.598 331.896 149.907 333.247 149.907 334.405C149.907 335.409 149.637 336.838 149.328 337.571C149.019 338.305 148.016 339.734 147.128 340.699C146.201 341.703 144.657 342.9 143.653 343.401C142.611 343.903 140.873 344.521 139.792 344.753C138.287 345.062 137.206 345.062 135.816 344.714C134.774 344.483 133.229 343.865 132.457 343.363C131.647 342.822 130.99 342.282 130.99 342.127C130.952 341.934 131.878 340.892 132.998 339.772C134.117 338.614 137.051 336.336 139.484 334.676Z" stroke="#6B00C9" stroke-width="0.386061"></path><path d="M316.879 333.517C316.879 331.703 316.994 329.927 317.149 329.579C317.303 329.193 317.612 328.884 317.844 328.884C318.037 328.884 319.658 329.734 321.434 330.776C323.171 331.819 325.99 333.672 327.688 334.946C329.387 336.22 331.896 338.228 333.286 339.463C334.676 340.699 335.834 341.857 335.911 342.05C335.95 342.243 334.985 342.861 333.788 343.44C331.935 344.328 331.047 344.521 328.46 344.521C325.951 344.521 324.986 344.328 323.249 343.517C322.09 342.977 320.469 341.857 319.658 341.008C318.847 340.197 317.921 338.884 317.535 338.151C317.072 337.185 316.879 335.834 316.879 333.517Z" stroke="#6B00C9" stroke-width="0.386061"></path></svg>