<svg xmlns="http://www.w3.org/2000/svg" width="402" height="411" viewBox="0 0 402 411" fill="none"><path fill-rule="evenodd" clip-rule="evenodd" d="M277.252 273.019C279.446 273.082 282.435 273.4 283.93 273.687C285.425 273.973 287.905 274.609 289.495 275.15C291.085 275.659 293.788 276.773 295.537 277.6C297.287 278.428 300.085 279.955 301.739 281.005C303.392 282.023 305.237 283.296 305.841 283.837C306.414 284.346 307.209 285.364 307.527 286.064C308.035 287.05 308.131 287.782 308.035 289.246C307.908 291.059 307.431 291.982 298.718 307.382C293.693 316.291 289.241 324.405 288.796 325.359C288.382 326.314 287.841 327.332 287.587 327.586C287.301 327.904 286.538 332.804 285.393 342.063C284.407 349.763 283.389 356.986 283.135 358.132C282.88 359.277 282.022 365.577 281.195 372.131C280.4 378.686 279.637 384.35 279.509 384.7C279.35 385.05 278.11 386.131 276.743 387.15C275.343 388.136 272.863 389.79 271.209 390.84C269.556 391.859 266.471 393.672 264.372 394.786C262.273 395.931 258.902 397.618 256.899 398.54C254.895 399.463 251.524 400.895 249.425 401.722C247.326 402.549 243.955 403.758 241.952 404.427C239.948 405.063 236.132 406.145 233.524 406.813C230.885 407.481 226.687 408.404 224.143 408.849C221.599 409.295 217.592 409.899 215.238 410.154C212.885 410.44 207.797 410.727 203.949 410.854C200.101 410.949 193.931 410.854 190.274 410.695C186.617 410.504 182.578 410.122 181.37 409.868C180.161 409.581 176.504 408.849 173.26 408.213C170.017 407.608 165.215 406.463 162.607 405.699C159.967 404.936 155.897 403.599 153.543 402.74C151.19 401.849 148.455 400.799 145.688 399.654L144.989 391.063L137.961 374.518C134.081 365.418 130.869 357.941 130.773 357.877C130.71 357.845 129.692 358.45 128.484 359.245C127.307 360.041 124.986 361.345 123.332 362.172C121.678 362.968 119.229 364.05 117.926 364.527C116.622 365.036 114.777 365.641 113.855 365.831C112.933 366.054 112.201 366.309 112.201 366.404C112.201 366.5 113.76 370.286 115.699 374.836C117.608 379.386 119.198 383.3 119.198 383.49C119.198 383.745 118.721 383.522 118.053 383.013C117.067 382.25 116.463 381.04 113.124 373.15C109.943 365.609 109.403 364.082 109.721 363.668C109.943 363.382 111.947 362.236 118.244 359.086L116.653 355.491C115.763 353.55 110.993 342.763 106.064 331.595C97.6043 312.409 97.0319 311.232 96.1415 310.946C95.6008 310.786 94.774 310.277 94.297 309.8C93.7881 309.355 92.9931 308.177 92.4843 307.223C92.0072 306.268 91.3712 304.677 91.085 303.723C90.7988 302.768 90.5762 301.177 90.5762 300.223C90.5762 299.205 90.767 298.187 91.0532 297.741C91.3712 297.274 91.8482 297.041 92.4843 297.041C93.0249 297.041 93.9789 297.296 94.615 297.646C95.2828 297.964 96.3641 298.823 97.0001 299.555C97.6679 300.255 98.4948 301.432 98.8446 302.132C99.1944 302.832 99.7032 304.232 99.9576 305.25C100.212 306.236 100.339 307.477 100.244 308.018C100.085 308.814 101.961 313.332 110.802 333.314C116.685 346.709 121.551 357.686 121.551 357.75C121.583 357.782 122.855 357.336 124.445 356.763C126.035 356.159 128.07 355.491 128.993 355.236C130.137 354.918 130.837 354.886 131.187 355.109C131.441 355.268 134.303 361.568 137.484 369.109C140.695 376.65 143.462 383.013 143.653 383.268C143.939 383.618 143.971 383.172 143.844 381.359C143.748 380.054 143.589 378.209 143.526 377.318C143.399 375.981 143.24 375.6 142.731 375.472C142.381 375.377 141.936 375.027 141.777 374.677C141.618 374.327 141.395 371.845 141.332 369.204C141.236 366.531 140.759 360.041 140.218 354.791C139.392 346.391 139.328 345.15 139.741 344.513C139.996 344.132 141.045 343.432 142.063 342.923C143.907 342.095 143.939 342.032 143.812 340.95C143.717 340.345 142.731 330.45 139.614 298.155L140.6 296.087C141.363 294.432 142.381 293.223 145.561 290.009C147.755 287.814 150.936 284.982 152.589 283.773C154.243 282.532 156.628 280.941 157.837 280.241C159.045 279.541 161.017 278.618 162.225 278.205C164.133 277.568 164.419 277.537 164.833 277.95C165.215 278.332 165.946 284.982 168.204 308.336C169.762 324.786 171.13 338.564 171.193 338.977C171.289 339.359 171.543 339.677 171.734 339.677C171.956 339.677 172.911 339.9 173.801 340.154C174.85 340.441 175.614 340.886 175.804 341.268C175.963 341.618 176.631 346.963 177.236 353.136C177.84 359.277 178.508 365.863 178.73 367.741C179.112 370.763 179.08 371.177 178.635 371.718C178.158 372.259 178.19 372.863 178.794 379.195C179.175 382.981 179.525 386.163 179.621 386.227C179.716 386.322 180.638 385.75 181.688 384.954C182.737 384.159 184.613 383.013 185.822 382.377C187.03 381.772 189.893 380.659 192.182 379.895C194.472 379.163 198.288 378.145 200.705 377.636C203.09 377.159 205.062 376.681 205.062 376.586C205.062 376.491 204.044 376.013 202.772 375.504C201.5 374.995 199.369 374.009 198.066 373.277C196.762 372.577 194.599 371.177 193.295 370.191C191.991 369.204 189.67 367.104 188.112 365.513C186.585 363.891 184.582 361.409 183.628 359.977C182.705 358.513 181.497 356.477 180.956 355.427C180.447 354.377 179.652 352.5 179.207 351.291C178.762 350.082 178.094 347.568 177.681 345.723C177.077 343.018 176.949 341.459 176.949 337.45C176.949 333.886 177.108 331.754 177.522 329.814C177.84 328.318 178.444 326.027 178.889 324.723C179.303 323.418 180.161 321.255 180.766 319.95C181.402 318.645 182.705 316.355 183.691 314.859C184.677 313.364 186.712 310.882 188.207 309.323C189.702 307.796 192.055 305.664 193.454 304.614C194.854 303.596 197.366 302.036 199.02 301.177C200.673 300.35 203.186 299.268 204.585 298.791C205.984 298.314 208.528 297.646 210.214 297.327C212.313 296.914 214.73 296.723 217.528 296.723C219.945 296.723 222.998 296.946 224.62 297.2C226.21 297.487 228.85 298.155 230.503 298.727C232.157 299.268 234.733 300.35 236.227 301.114C237.722 301.877 240.044 303.309 241.443 304.296C242.81 305.282 245.005 307.159 246.277 308.432C247.581 309.673 249.457 311.836 250.475 313.205C251.46 314.541 252.955 316.927 253.782 318.518C254.577 320.109 255.658 322.591 256.199 324.086C256.708 325.582 257.407 328 257.725 329.495C258.171 331.5 258.33 333.536 258.33 337.45C258.33 341.395 258.171 343.368 257.725 345.404C257.407 346.9 256.74 349.254 256.262 350.654C255.785 352.054 254.704 354.568 253.846 356.222C252.987 357.877 251.46 360.391 250.411 361.791C249.362 363.191 247.358 365.481 245.959 366.85C244.528 368.218 241.952 370.318 240.203 371.463C238.454 372.609 236.068 374.009 234.86 374.518C233.683 375.059 232.729 375.536 232.729 375.631C232.729 375.727 234.256 375.981 236.132 376.204C238.04 376.427 241.284 377 243.383 377.445C245.482 377.89 248.789 378.781 250.697 379.481C252.605 380.15 254.259 380.627 254.354 380.531C254.45 380.404 255.213 374.518 256.04 367.391C256.867 360.295 258.361 347.886 261.096 325.2L260.333 324.405C259.761 323.832 259.474 323.1 259.315 321.7C259.188 320.65 257.153 311.709 254.768 301.814C251.365 287.528 250.506 283.487 250.602 282.055C250.665 280.814 250.92 279.955 251.492 279.159C251.937 278.523 252.701 277.696 253.241 277.346C253.782 276.996 255.626 276.264 257.376 275.787C259.125 275.278 262.273 274.546 264.372 274.132C266.471 273.75 269.333 273.305 270.732 273.178C272.131 273.019 275.057 272.955 277.252 273.019ZM124.826 387.85C127.243 389.472 130.583 391.604 132.236 392.59C133.89 393.545 137.547 395.518 140.346 396.918C143.144 398.318 145.275 399.495 145.116 399.495C144.957 399.495 142.445 398.318 139.551 396.854C136.657 395.39 132.586 393.163 130.487 391.89C128.388 390.618 125.335 388.645 123.745 387.531C122.123 386.418 120.724 385.336 120.629 385.177C120.533 385.018 122.441 386.195 124.858 387.85H124.826Z" fill="white"></path><path d="M182.642 0.689077C185.6 0.402715 188.907 0.116354 189.957 0.0527177C191.006 -0.0109182 196.889 -0.0109182 202.995 0.0208998C210.373 0.0845357 215.907 0.275443 219.373 0.625441C222.267 0.911802 227.069 1.51634 230.027 1.92998C232.984 2.34361 237.945 3.2027 240.998 3.83905C244.051 4.47541 248.726 5.52541 251.334 6.2254C253.973 6.89358 258.266 8.10266 260.874 8.92993C263.514 9.75719 268.157 11.3481 271.21 12.4935C274.263 13.639 279.351 15.7072 282.499 17.1071C285.648 18.4753 290.386 20.7344 292.994 22.1026C295.633 23.4707 299.545 25.6344 301.739 26.9071C303.933 28.1798 308.227 30.8525 311.28 32.8888C314.333 34.8934 318.785 37.9797 321.138 39.7615C323.491 41.5115 326.703 44.0251 328.293 45.3297C329.884 46.6342 332.873 49.2433 334.972 51.1205C337.071 52.9978 341.3 57.0705 344.353 60.1887C347.438 63.3386 351.222 67.3795 352.813 69.225C354.371 71.0704 356.533 73.6477 357.583 74.9522C358.664 76.2567 360.954 79.2794 362.703 81.6339C364.452 83.9885 367.25 87.9975 368.904 90.543C370.558 93.0884 372.784 96.5884 373.833 98.3384C374.883 100.088 376.886 103.652 378.286 106.293C379.717 108.902 381.879 113.293 383.151 115.997C384.392 118.702 386.395 123.347 387.572 126.338C388.78 129.329 390.688 134.611 391.833 138.111C392.978 141.611 394.568 146.988 395.363 150.043C396.158 153.097 397.208 157.679 397.748 160.224C398.257 162.77 399.052 167.192 399.497 170.088C399.943 172.983 400.515 177.342 400.769 179.792C401.056 182.242 401.437 187.27 401.628 190.929C401.851 194.874 401.914 200.729 401.787 205.247C401.692 209.447 401.374 215.397 401.119 218.451C400.833 221.506 400.324 226.087 399.974 228.633C399.624 231.178 398.925 235.474 398.416 238.178C397.907 240.883 396.826 245.687 396.063 248.837C395.268 251.987 393.932 256.919 393.042 259.814C392.183 262.71 390.625 267.355 389.575 270.155C388.558 272.955 386.808 277.378 385.695 280.019C384.582 282.628 382.134 287.814 380.289 291.473C378.445 295.132 375.36 300.732 373.484 303.882C371.575 307.032 368.809 311.391 367.314 313.587C365.819 315.782 363.084 319.569 361.24 322.019C359.395 324.469 356.597 327.969 355.07 329.814C353.512 331.659 350.205 335.382 347.724 338.087C345.212 340.791 340.887 345.118 338.12 347.696C335.353 350.273 331.474 353.677 329.566 355.268C327.657 356.891 324.064 359.723 321.615 361.568C319.166 363.414 315.223 366.214 312.87 367.805C310.516 369.364 306.35 372.005 303.647 373.627C300.944 375.282 295.792 378.082 292.199 379.895C288.605 381.709 284.185 383.873 282.34 384.668C280.496 385.495 278.778 386.164 278.524 386.164C278.206 386.164 278.301 385.973 278.81 385.591C279.51 385.05 279.637 384.35 281.227 371.814C282.149 364.559 283.072 358.036 283.262 357.337C283.453 356.637 284.407 349.764 285.393 342.064C286.57 332.773 287.301 327.905 287.587 327.587C287.842 327.332 288.382 326.314 288.796 325.359C289.241 324.405 293.693 316.291 298.718 307.382C307.432 291.982 307.909 291.06 308.036 289.246C308.131 287.782 308.036 287.051 307.527 286.064C307.209 285.364 306.414 284.346 305.842 283.837C305.237 283.296 303.393 282.023 301.739 281.005C300.085 279.955 297.287 278.428 295.538 277.601C293.789 276.773 291.086 275.66 289.496 275.151C287.905 274.61 285.489 273.973 284.089 273.719C282.69 273.433 280.114 273.114 278.365 273.019C276.584 272.892 273.531 272.955 271.369 273.146C269.27 273.369 265.835 273.846 263.736 274.26C261.637 274.673 258.648 275.405 257.058 275.851C255.468 276.328 253.751 277.028 253.178 277.41C252.637 277.792 251.842 278.587 251.429 279.192C250.952 279.955 250.666 280.878 250.602 282.055C250.507 283.487 251.365 287.528 254.768 301.814C257.153 311.71 259.189 320.65 259.316 321.7C259.475 323.1 259.761 323.832 261.097 325.2L259.316 339.837C258.362 347.887 256.867 360.296 256.04 367.391C255.213 374.518 254.45 380.405 254.355 380.532C254.259 380.627 252.606 380.15 250.698 379.482C248.79 378.782 245.482 377.891 243.383 377.445C241.284 377 238.041 376.427 236.132 376.205C234.256 375.982 232.73 375.727 232.73 375.632C232.73 375.536 233.684 375.059 234.86 374.518C236.069 374.009 238.454 372.609 240.203 371.464C241.952 370.318 244.528 368.218 245.959 366.85C247.358 365.482 249.362 363.191 250.411 361.791C251.461 360.391 252.987 357.877 253.846 356.223C254.705 354.568 255.786 352.055 256.263 350.655C256.74 349.255 257.408 346.9 257.726 345.405C258.171 343.368 258.33 341.396 258.33 337.45C258.33 333.537 258.171 331.5 257.726 329.496C257.408 328 256.708 325.582 256.199 324.087C255.659 322.591 254.577 320.11 253.782 318.519C252.955 316.928 251.461 314.541 250.475 313.173C249.457 311.837 247.581 309.673 246.277 308.401C245.005 307.16 242.811 305.282 241.443 304.296C240.044 303.31 237.723 301.878 236.228 301.114C234.733 300.351 232.157 299.269 230.504 298.728C228.85 298.155 226.21 297.487 224.62 297.201C222.998 296.946 219.945 296.723 217.529 296.723C214.73 296.723 212.313 296.914 210.214 297.328C208.529 297.646 205.985 298.314 204.585 298.792C203.186 299.269 200.674 300.351 199.02 301.178C197.366 302.037 194.854 303.596 193.455 304.614C192.055 305.664 189.702 307.796 188.207 309.323C186.713 310.882 184.677 313.364 183.692 314.86C182.706 316.355 181.402 318.646 180.766 319.95C180.162 321.255 179.303 323.419 178.89 324.723C178.444 326.028 177.84 328.319 177.522 329.814C177.109 331.755 176.95 333.887 176.95 337.45C176.95 341.459 177.077 343.018 177.681 345.723C178.095 347.568 178.762 350.082 179.208 351.291C179.653 352.5 180.448 354.377 180.957 355.427C181.497 356.477 182.706 358.514 183.628 359.977C184.582 361.409 186.586 363.891 188.112 365.514C189.67 367.105 191.992 369.205 193.296 370.191C194.6 371.177 196.762 372.577 198.066 373.277C199.37 374.009 201.501 374.995 202.773 375.505C204.045 376.014 205.062 376.491 205.062 376.586C205.062 376.682 203.091 377.159 200.705 377.636C198.289 378.146 194.472 379.164 192.183 379.895C189.893 380.659 187.031 381.773 185.822 382.377C184.614 383.014 182.738 384.159 181.688 384.955C180.639 385.75 179.716 386.323 179.621 386.227C179.526 386.164 179.176 382.982 178.794 379.195C178.19 372.864 178.158 372.259 178.635 371.718C179.08 371.177 179.112 370.764 178.731 367.741C178.508 365.864 177.84 359.277 177.236 353.137C176.632 346.964 175.964 341.618 175.805 341.268C175.614 340.887 174.851 340.441 173.801 340.155C172.911 339.9 171.957 339.678 171.734 339.678C171.543 339.678 171.289 339.359 171.194 338.978C171.13 338.564 169.763 324.787 168.204 308.337C165.946 284.983 165.215 278.333 164.833 277.951C164.42 277.537 164.134 277.569 162.226 278.205C161.017 278.619 159.045 279.542 157.837 280.242C156.628 280.942 154.243 282.533 152.59 283.773C150.936 284.982 147.756 287.814 145.562 290.01C142.381 293.223 141.364 294.432 139.615 298.155L141.618 318.996C142.731 330.45 143.717 340.346 143.812 340.95C143.94 342.032 143.908 342.096 142.063 342.923C141.046 343.432 139.996 344.132 139.742 344.514C139.328 345.15 139.392 346.391 140.219 354.791C140.759 360.041 141.236 366.532 141.332 369.173C141.395 371.845 141.618 374.327 141.777 374.677C141.936 375.027 142.381 375.377 142.731 375.473C143.24 375.6 143.399 375.982 143.526 377.286C143.59 378.209 143.749 380.055 143.844 381.359C143.971 383.173 143.94 383.618 143.653 383.268C143.463 383.014 140.696 376.65 137.484 369.109C134.304 361.568 131.442 355.268 131.187 355.109C130.837 354.887 130.138 354.918 128.993 355.237C128.071 355.491 126.035 356.159 124.445 356.764C122.855 357.337 121.583 357.782 121.551 357.75C121.551 357.687 116.686 346.709 110.802 333.314C101.962 313.332 100.085 308.814 100.244 308.019C100.34 307.478 100.212 306.237 99.958 305.219C99.7036 304.232 99.1948 302.832 98.845 302.132C98.4951 301.432 97.6683 300.255 97.0005 299.555C96.3644 298.823 95.2832 297.964 94.6154 297.646C93.9793 297.296 93.0253 297.042 92.4846 297.042C91.8486 297.042 91.3716 297.275 91.0536 297.742C90.7674 298.187 90.5766 299.205 90.5766 300.223C90.5766 301.178 90.7992 302.769 91.0854 303.723C91.3716 304.678 92.0076 306.269 92.4846 307.223C92.9935 308.178 93.7885 309.355 94.2973 309.801C94.7744 310.278 95.6012 310.787 96.1418 310.946C97.0323 311.232 97.6047 312.41 106.064 331.596C110.993 342.764 115.763 353.55 118.244 359.087L114.173 361.123C111.947 362.236 109.944 363.382 109.721 363.668C109.403 364.082 109.944 365.609 113.124 373.15C116.463 381.041 117.067 382.25 118.053 383.014C118.721 383.555 119.198 383.745 119.198 383.491C119.198 383.3 118.848 382.314 118.435 381.359C117.99 380.405 117.735 379.514 117.831 379.355C117.958 379.227 117.862 379.132 117.672 379.132C117.449 379.132 117.194 378.75 117.067 378.241C116.972 377.764 116.876 377.286 116.908 377.127C116.94 377 116.813 376.905 116.654 376.905C116.495 376.905 116.24 376.523 116.113 376.014C116.018 375.536 115.891 375.091 115.859 374.995C115.859 374.9 115.573 374.359 115.286 373.786C115 373.246 114.809 372.768 114.905 372.768C115 372.768 114.873 372.45 114.619 372.036C114.364 371.655 113.792 370.414 113.315 369.268C112.838 368.123 112.392 366.946 112.329 366.627C112.233 366.246 112.424 366.086 112.901 366.023C113.315 366.023 113.792 365.959 113.951 365.927C114.11 365.896 114.555 365.768 114.905 365.641C115.255 365.482 116.081 365.196 116.717 364.941C117.385 364.686 117.926 364.559 117.926 364.655C117.926 364.75 118.244 364.591 118.626 364.336C119.039 364.114 119.452 363.891 119.58 363.859C119.739 363.859 120.216 363.636 120.693 363.382C121.201 363.127 121.71 363.032 121.838 363.159C121.965 363.286 122.06 363.191 122.06 362.968C122.06 362.777 122.219 362.65 122.378 362.746C122.537 362.841 122.728 362.809 122.76 362.65C122.823 362.523 123.428 362.141 124.127 361.823C124.827 361.473 125.495 361.218 125.622 361.25C125.781 361.282 125.876 361.218 125.876 361.059C125.876 360.932 126.258 360.646 126.735 360.391C127.212 360.137 127.721 359.946 127.848 359.977C128.007 360.009 128.102 359.882 128.102 359.723C128.102 359.564 128.325 359.405 128.579 359.405C128.834 359.405 129.056 359.246 129.056 359.087C129.056 358.927 129.47 358.546 130.011 358.291C130.933 357.846 130.965 357.846 131.187 358.514C131.314 358.927 131.41 359.309 131.442 359.405C131.442 359.5 131.728 360.041 132.014 360.581L132.014 360.582C132.3 361.155 132.459 361.632 132.3 361.632C132.173 361.6 132.237 361.791 132.459 362.014C132.65 362.236 133.35 363.605 133.954 365.036C134.59 366.5 135.003 367.741 134.876 367.836C134.781 367.932 134.844 367.996 135.035 367.996C135.258 367.996 135.512 368.377 135.639 368.855C135.735 369.364 135.862 369.809 135.894 369.905C135.894 370 136.18 370.541 136.466 371.081L136.466 371.082C136.752 371.655 137.007 372.195 137.007 372.291C137.007 372.386 137.229 372.864 137.484 373.405C137.738 373.945 137.866 374.359 137.707 374.359C137.579 374.327 137.643 374.518 137.866 374.741C138.056 374.964 138.756 376.332 139.36 377.764C139.996 379.227 140.41 380.468 140.282 380.564C140.187 380.659 140.251 380.723 140.441 380.723C140.664 380.723 140.918 381.105 141.046 381.582C141.141 382.091 141.268 382.536 141.3 382.632C141.3 382.727 141.586 383.268 141.872 383.809L141.873 383.809C142.159 384.382 142.413 384.923 142.413 385.018C142.413 385.114 142.636 385.591 142.89 386.132C143.145 386.673 143.367 387.15 143.367 387.245C143.367 387.341 143.717 388.2 144.162 389.154C144.703 390.364 145.053 391.891 145.275 394.15C145.466 395.964 145.593 397.809 145.593 398.286C145.593 398.795 145.434 399.177 145.18 399.177C144.989 399.177 142.572 398.032 139.869 396.664C137.166 395.295 133.445 393.291 131.601 392.177C129.756 391.095 126.544 389.027 124.445 387.595C122.346 386.195 120.406 384.986 120.152 384.955C119.898 384.923 116.24 383.173 112.043 381.073C107.845 379.005 102.407 376.109 99.958 374.677C97.5093 373.246 93.0571 370.446 90.0995 368.473C87.142 366.5 82.8488 363.477 80.559 361.791C78.2693 360.073 74.4213 356.987 71.9726 354.95C69.5239 352.882 65.5805 349.35 63.1636 347.123C60.7785 344.864 57.0259 341.078 54.7998 338.723C52.5736 336.368 49.0119 332.359 46.8812 329.814C44.7505 327.269 41.5703 323.259 39.8212 320.905C38.0721 318.55 35.3372 314.669 33.7471 312.314C32.1888 309.96 29.8037 306.237 28.4998 304.041C27.196 301.846 24.9699 297.901 23.5706 295.292C22.1395 292.651 20.0406 288.451 18.864 285.905C17.6873 283.36 15.811 279.064 14.6979 276.36C13.6167 273.655 11.8994 269.074 10.9136 266.178C9.9277 263.283 8.43303 258.478 7.57439 255.519C6.74754 252.56 5.53908 247.819 4.90305 245.019C4.29882 242.219 3.40838 237.86 2.96315 235.315C2.54973 232.769 1.8819 228.347 1.56388 225.451C1.21407 222.556 0.737043 218.197 0.546233 215.747C0.323622 213.297 0.132812 206.583 0.132812 200.792C0.132812 195.001 0.323622 188.288 0.546233 185.838C0.737043 183.388 1.21407 179.092 1.53208 176.292C1.8819 173.492 2.51793 169.038 2.96315 166.429C3.40838 163.788 4.26702 159.492 4.87125 156.883C5.47548 154.243 6.46133 150.17 7.09736 147.815C7.73339 145.461 9.16446 140.815 10.2775 137.474C11.3588 134.134 13.1397 129.265 14.1891 126.656C15.2386 124.015 16.8287 120.229 17.7191 118.225C18.6413 116.22 20.772 111.861 22.4893 108.52C24.2066 105.179 26.7189 100.597 28.0864 98.3384C29.4221 96.0793 31.9344 92.1339 33.6199 89.5884C35.2736 87.043 38.3265 82.7476 40.3618 80.0431C42.3971 77.3385 45.8953 72.9476 48.1532 70.3386C50.3793 67.6977 54.5135 63.2114 57.3439 60.3477C60.1424 57.4841 64.213 53.5387 66.4073 51.5978C68.6017 49.6251 71.75 46.8887 73.4037 45.5206C75.0574 44.1524 78.4283 41.5115 80.8771 39.6979C83.3258 37.8525 87.1738 35.1161 89.4635 33.5888C91.7532 32.0934 95.3786 29.7707 97.5729 28.4343C99.7672 27.1298 103.679 24.9025 106.318 23.4707C108.926 22.0707 113.315 19.8753 116.018 18.6344C118.721 17.3617 123.237 15.4208 126.035 14.2753C128.834 13.1617 133.636 11.3799 136.689 10.3617C139.742 9.31174 144.894 7.75266 148.137 6.86176C151.381 5.97086 157.169 4.60269 161.017 3.83905C164.865 3.07542 170.081 2.1527 172.625 1.80271C175.169 1.45271 179.685 0.94362 182.642 0.689077Z" fill="#5CA904"></path><path d="M158.918 286.796C160.699 285.078 162.289 283.36 162.512 282.978C162.862 282.278 162.862 282.278 163.116 282.883C163.243 283.233 164.388 294.337 165.628 307.541C166.901 320.746 167.982 332.296 168.045 333.155C168.109 334.046 168.268 335.796 168.395 337.069C168.554 338.373 168.554 339.487 168.395 339.55C168.268 339.614 166.487 339.678 164.42 339.709C162.385 339.709 160.063 339.773 159.268 339.805C158.473 339.869 157.201 340.028 156.406 340.123C155.611 340.25 154.339 340.378 153.544 340.441C152.749 340.505 151.763 340.664 151.318 340.759C150.873 340.855 149.95 341.046 149.251 341.141C148.551 341.237 147.629 341.364 147.184 341.428C146.391 341.554 146.389 341.523 146.137 338.817L146.134 338.787C145.975 337.259 145.784 335.382 145.721 334.587C145.689 333.791 145.403 331.15 145.148 328.7C144.926 326.25 144.703 324.023 144.703 323.769C144.703 323.514 144.48 321.287 144.226 318.837C143.972 316.387 143.749 314.16 143.749 313.905C143.749 313.651 143.431 310.437 143.018 306.746C142.636 303.087 142.413 299.682 142.541 299.205C142.7 298.473 143.208 298.092 145.18 297.137C146.548 296.469 147.724 295.832 147.82 295.737C147.915 295.642 148.646 295.101 149.473 294.56C150.332 293.987 151.159 293.542 151.318 293.542C151.477 293.542 151.636 293.414 151.636 293.223C151.636 293.064 151.89 292.81 152.176 292.682C152.494 292.555 152.971 292.237 153.258 291.951C153.576 291.696 154.243 291.123 154.752 290.678C155.293 290.233 157.169 288.483 158.918 286.796Z" fill="#5CA904"></path><path d="M208.402 300.319C208.751 300.255 209.96 300.001 211.105 299.778C212.568 299.428 214.603 299.332 218.101 299.428C220.804 299.492 223.253 299.587 223.507 299.587C223.762 299.619 224.62 299.778 225.415 299.937C226.21 300.096 227.069 300.319 227.324 300.446C227.578 300.542 228.15 300.701 228.596 300.764C229.041 300.86 229.804 301.082 230.345 301.305C230.885 301.528 231.394 301.751 231.521 301.751C231.68 301.782 232.253 302.069 232.793 302.355C233.366 302.642 233.938 302.864 234.065 302.832C234.224 302.801 234.32 302.928 234.32 303.087C234.32 303.278 234.447 303.342 234.638 303.246C234.797 303.151 234.956 303.246 234.956 303.405C234.956 303.596 235.051 303.691 235.179 303.66C235.338 303.628 235.846 303.819 236.323 304.073C236.8 304.328 237.182 304.614 237.182 304.773C237.182 304.901 237.277 304.964 237.405 304.932C237.564 304.869 238.2 305.155 238.836 305.569C239.504 305.951 240.044 306.428 240.044 306.587C240.044 306.778 240.235 306.905 240.426 306.905C240.648 306.905 241.062 307.128 241.316 307.382C241.571 307.605 243.224 309.228 244.973 310.978C246.723 312.696 248.376 314.541 248.631 315.051C248.885 315.56 249.298 316.069 249.489 316.228C249.712 316.355 249.839 316.61 249.744 316.769C249.648 316.96 249.712 317.087 249.903 317.087C250.062 317.087 250.857 318.391 251.652 319.95C252.447 321.541 252.987 322.814 252.828 322.814C252.701 322.782 252.765 322.973 252.987 323.196C253.21 323.419 253.655 324.437 254.005 325.455C254.387 326.441 254.609 327.428 254.514 327.587C254.419 327.778 254.482 327.969 254.673 328.064C254.832 328.16 254.991 328.478 254.959 328.796C254.959 329.082 255.118 329.973 255.341 330.769C255.532 331.564 255.722 334.205 255.754 336.655C255.754 339.105 255.659 341.968 255.532 343.018C255.404 344.068 255.055 345.787 254.8 346.837C254.514 347.887 254.196 348.905 254.1 349.064C253.973 349.255 253.846 349.668 253.782 350.018C253.751 350.368 253.496 350.973 253.242 351.387C252.987 351.768 252.828 352.087 252.924 352.087C253.019 352.087 252.574 353.137 251.938 354.409C251.302 355.65 250.698 356.764 250.571 356.859C250.475 356.955 250.093 357.559 249.744 358.259C249.394 358.927 248.917 359.532 248.694 359.596C248.503 359.659 248.313 359.914 248.313 360.137C248.313 360.327 248.09 360.741 247.836 360.996C247.581 361.25 246.15 362.714 244.655 364.273C243.161 365.8 241.793 367.041 241.634 367.041C241.443 367.041 241.253 367.232 241.221 367.455C241.157 367.646 239.981 368.568 238.613 369.427C237.246 370.318 236.005 370.986 235.846 370.955C235.719 370.891 235.592 371.018 235.592 371.177C235.592 371.368 235.274 371.591 234.861 371.718C234.479 371.846 234.065 371.909 233.906 371.877C233.779 371.846 233.684 371.973 233.684 372.132C233.684 372.323 233.588 372.418 233.429 372.386C233.302 372.355 232.793 372.546 232.253 372.832C231.712 373.118 230.281 373.627 229.073 374.009C227.864 374.391 226.433 374.773 225.892 374.836C225.352 374.932 224.143 375.155 223.189 375.346C222.108 375.568 219.5 375.632 216.352 375.536C212.218 375.409 210.66 375.218 208.084 374.518C206.334 374.073 204.585 373.468 204.172 373.214C203.79 372.959 203.472 372.832 203.472 372.927C203.472 373.023 202.995 372.832 202.423 372.546C201.882 372.259 201.31 372.036 201.151 372.068C201.024 372.1 200.928 372.005 200.928 371.814C200.928 371.655 200.769 371.559 200.61 371.655C200.419 371.75 200.292 371.686 200.292 371.496C200.292 371.336 200.197 371.209 200.038 371.241C199.911 371.273 199.402 371.082 198.925 370.827C198.448 370.573 198.066 370.286 198.066 370.159C198.066 370 197.748 369.841 197.335 369.777C196.953 369.682 196.253 369.268 195.745 368.823C195.268 368.377 194.727 367.996 194.568 367.996C194.377 367.996 194.059 367.709 193.836 367.359C193.646 367.009 193.296 366.723 193.137 366.723C192.946 366.723 191.801 365.673 190.593 364.368C189.384 363.096 188.017 361.632 187.603 361.123C187.19 360.614 186.236 359.277 185.504 358.132C184.773 356.987 183.787 355.3 183.31 354.409C182.865 353.487 182.547 352.723 182.642 352.723C182.738 352.723 182.579 352.373 182.324 351.928C182.07 351.482 181.815 351.037 181.815 350.909C181.784 350.75 181.625 350.305 181.466 349.859C181.307 349.414 181.148 348.841 181.084 348.587C181.02 348.332 180.893 347.887 180.798 347.632C180.671 347.378 180.384 346.137 180.13 344.928C179.876 343.718 179.558 341.269 179.462 339.519C179.335 337.769 179.399 335.255 179.558 333.95C179.748 332.646 179.971 331.214 180.066 330.769C180.13 330.323 180.321 329.4 180.416 328.7C180.512 328 180.798 327.237 180.989 327.014C181.211 326.791 181.275 326.6 181.116 326.632C180.989 326.632 181.275 325.582 181.72 324.341C182.197 323.069 182.706 321.955 182.865 321.86C183.024 321.764 183.151 321.605 183.151 321.478C183.119 321.319 183.31 320.778 183.501 320.269C183.724 319.728 184.01 319.282 184.137 319.314C184.296 319.314 184.36 319.187 184.296 319.06C184.264 318.932 184.773 317.914 185.409 316.832C186.077 315.751 186.745 314.86 186.936 314.86C187.095 314.86 187.254 314.669 187.254 314.478C187.254 314.255 187.54 313.778 187.858 313.428C188.176 313.078 189.416 311.773 190.656 310.564C191.865 309.355 193.423 307.86 194.091 307.319C194.791 306.746 195.554 306.269 195.745 306.269C195.967 306.269 196.158 306.141 196.158 305.951C196.158 305.791 196.381 305.632 196.635 305.632C196.889 305.632 197.112 305.505 197.112 305.314C197.112 305.155 198.511 304.296 200.197 303.437C201.914 302.578 204.331 301.56 205.539 301.178C206.748 300.764 208.052 300.382 208.402 300.319Z" fill="#5CA904"></path><path d="M263.069 328.223C263.196 327.078 263.387 325.9 263.45 325.582C263.577 325.137 263.864 325.073 264.786 325.2C265.422 325.328 268.666 325.741 272.005 326.187C275.312 326.6 278.461 327.014 279.001 327.078C279.542 327.11 281.005 327.3 284.63 327.746L284.439 329.973C284.344 331.182 283.803 335.478 283.294 339.519C282.754 343.559 282.245 347.409 282.181 348.109C282.086 348.809 281.99 349.7 282.022 350.114C282.022 350.496 281.927 350.814 281.768 350.814C281.641 350.814 278.27 350.368 274.231 349.859C270.192 349.318 266.503 348.841 265.962 348.778C265.422 348.714 264.086 348.555 262.941 348.428C261.796 348.3 260.811 348.141 260.715 348.046C260.62 347.982 260.938 344.959 261.415 341.332C261.924 337.705 262.369 334.237 262.433 333.632C262.528 333.028 262.655 332.009 262.719 331.405C262.814 330.8 262.973 329.369 263.069 328.223Z" fill="#5CA904"></path><path d="M171.671 345.468C172.116 345.309 172.688 345.087 172.943 344.991C173.197 344.896 173.515 344.8 173.642 344.8C173.801 344.768 173.897 344.864 173.897 345.023C173.897 345.15 174.31 349.605 174.851 354.95C175.36 360.296 175.805 364.75 175.805 364.909C175.805 365.037 174.756 365.355 173.483 365.609C172.243 365.864 165.978 366.596 159.586 367.2C153.194 367.836 147.088 368.282 144.003 368.155L143.94 367.041C143.908 366.437 143.844 365.514 143.813 364.973C143.749 364.432 143.495 361.982 143.24 359.5C142.954 356.987 142.763 354.855 142.795 354.727C142.827 354.568 142.763 353.837 142.636 353.041C142.541 352.246 142.35 350.814 142.063 348.109H148.837C152.558 348.109 156.819 348.014 158.314 347.887C159.809 347.759 161.876 347.505 162.925 347.346C163.975 347.155 165.342 346.932 165.946 346.837C166.551 346.773 167.886 346.487 168.872 346.2C169.89 345.946 170.749 345.723 170.78 345.755C170.844 345.755 171.226 345.628 171.671 345.468Z" fill="#5CA904"></path><path d="M207.607 379.132C209.801 378.782 213.808 378.368 216.511 378.209C219.214 378.05 223.38 378.018 225.733 378.082C228.087 378.146 231.299 378.368 232.889 378.527C234.479 378.686 236.451 378.909 237.341 379.005C238.2 379.1 239.567 379.323 240.362 379.482C241.157 379.641 242.302 379.864 242.906 379.927C243.511 380.023 245.037 380.373 246.245 380.723C247.454 381.041 248.885 381.486 249.426 381.709C249.966 381.932 250.634 382.155 250.92 382.218C251.238 382.25 252.065 382.6 254.037 383.586L253.878 385.273C253.782 386.164 253.655 387.436 253.592 388.041C253.496 388.645 253.369 389.727 253.305 390.427C253.21 391.127 253.051 392.559 252.733 395.518L249.648 397.014C247.963 397.841 245.291 398.954 243.701 399.464C242.111 400.004 239.058 400.768 236.864 401.214C234.67 401.659 230.949 402.232 228.596 402.486C226.242 402.741 222.585 403.059 220.486 403.154C218.387 403.282 214.221 403.218 211.264 403.027C208.306 402.804 204.267 402.423 202.359 402.168C200.451 401.882 197.017 401.182 194.727 400.609C192.437 400.036 190.02 399.336 189.321 399.018C188.621 398.7 187.985 398.414 187.89 398.382C187.794 398.35 187.349 398.223 186.84 398.127C186.363 398 185.981 397.777 185.981 397.586C185.981 397.427 185.886 397.3 185.727 397.332C185.6 397.395 185.027 397.204 184.455 396.95C183.883 396.695 183.406 396.377 183.437 396.25C183.437 396.091 183.215 395.995 182.96 395.995C182.706 395.995 182.07 395.614 181.561 395.136C181.052 394.627 180.512 393.959 180.321 393.609C180.162 393.259 180.035 392.4 180.098 391.7C180.13 391 180.257 390.173 180.384 389.886C180.48 389.568 180.734 389.314 180.893 389.314C181.052 389.314 181.211 389.091 181.211 388.836C181.211 388.582 181.974 387.786 182.865 387.118C183.787 386.45 185.568 385.368 186.777 384.764C187.985 384.159 190.02 383.3 191.229 382.855C192.437 382.409 193.805 381.995 194.25 381.9C194.695 381.836 195.268 381.677 195.522 381.582C195.776 381.486 196.635 381.232 197.43 381.041C198.225 380.818 199.211 380.627 199.656 380.595C200.101 380.532 200.61 380.405 200.769 380.309C200.928 380.214 201.66 380.055 202.359 379.959C203.059 379.832 205.412 379.45 207.607 379.132Z" fill="#5CA904"></path><path d="M207.288 305.664C208.433 305.314 210.5 304.805 211.899 304.519C213.68 304.2 215.747 304.105 218.737 304.2C221.567 304.264 223.825 304.519 225.415 304.932C226.719 305.282 228.881 305.982 230.185 306.491C231.489 307.032 233.588 308.082 234.86 308.846C236.132 309.609 238.136 311.041 239.312 312.028C240.489 312.982 242.461 314.987 243.637 316.482C244.941 318.105 246.468 320.523 247.517 322.655C248.471 324.564 249.552 327.3 249.902 328.7C250.252 330.1 250.729 332.614 250.92 334.268C251.174 336.496 251.174 338.15 250.888 340.632C250.697 342.477 250.252 345.055 249.87 346.359C249.521 347.664 248.535 350.177 247.708 351.927C246.881 353.677 245.323 356.255 244.273 357.655C243.224 359.055 241.507 360.964 240.489 361.918C239.471 362.841 237.404 364.432 235.909 365.386C234.415 366.373 232.061 367.645 230.662 368.25C229.263 368.823 226.973 369.586 225.574 369.936C224.175 370.286 221.376 370.668 219.373 370.764C217.115 370.891 214.698 370.795 213.012 370.573C211.518 370.35 209.164 369.809 207.765 369.364C206.366 368.918 204.076 367.995 202.677 367.295C201.278 366.595 199.21 365.354 198.066 364.559C196.921 363.732 195.076 362.141 193.931 360.995C192.786 359.85 191.037 357.718 190.052 356.223C189.066 354.727 187.794 352.564 187.285 351.386C186.744 350.177 185.917 347.982 185.472 346.455C184.772 344.1 184.613 342.859 184.486 338.723C184.359 334.65 184.454 333.282 184.963 330.768C185.313 329.114 186.045 326.6 186.585 325.2C187.126 323.8 188.302 321.446 189.225 319.95C190.147 318.455 191.96 316.1 193.295 314.732C194.599 313.364 196.603 311.518 197.748 310.659C198.892 309.8 201.023 308.496 202.518 307.732C204.012 306.969 206.143 306.046 207.288 305.664Z" fill="white"></path><path fill-rule="evenodd" clip-rule="evenodd" d="M233.842 22.6435C232.284 22.039 230.821 21.498 230.598 21.498C230.408 21.498 230.153 21.8162 230.058 22.2299C229.994 22.6117 229.74 24.2026 229.517 25.7935C229.295 27.5435 229.231 30.3753 229.326 33.1116C229.454 36.2934 229.74 38.4888 230.312 40.7479C230.757 42.4979 231.489 44.9161 231.934 46.157C232.379 47.3979 234.16 51.3115 235.909 54.9069C237.627 58.5023 239.471 62.7023 239.98 64.2932C240.52 65.8841 241.188 68.525 241.475 70.1795C241.729 71.834 241.952 74.4749 241.952 76.0658C241.952 77.6567 241.729 80.2976 241.506 81.9522C241.252 83.6067 240.648 86.0567 240.171 87.3612C239.725 88.6657 238.612 91.1794 237.722 92.9294C236.863 94.6793 235.082 97.8929 233.747 100.088C232.443 102.284 228.436 108.425 224.842 113.77C222.773 116.848 220.293 120.526 218.124 123.744C216.526 126.114 215.097 128.235 214.125 129.679C211.835 133.084 208.592 138.111 206.906 140.815C205.221 143.52 202.836 147.529 201.564 149.724C200.323 151.92 198.097 156.12 196.634 159.111C195.171 162.102 193.2 166.524 192.246 168.974C191.26 171.424 189.956 175.211 189.32 177.406C188.716 179.601 187.889 182.974 187.539 184.883C187.126 186.983 186.808 190.388 186.712 193.474C186.585 197.197 186.68 199.424 187.062 201.747C187.316 203.497 187.921 206.201 188.366 207.792C188.811 209.383 189.892 212.088 190.719 213.838C191.546 215.588 193.39 218.738 194.822 220.838C196.221 222.938 198.288 225.801 199.433 227.201C200.546 228.601 202.74 231.019 204.298 232.61C205.857 234.201 208.146 236.269 209.355 237.256C210.595 238.242 212.662 239.769 213.966 240.628C215.27 241.519 217.719 242.919 219.372 243.746C221.026 244.574 224.047 245.815 226.051 246.483C228.054 247.151 231.489 248.01 233.683 248.392C237.149 248.996 238.422 249.06 243.701 248.901C247.93 248.774 250.697 248.519 252.923 248.074C254.672 247.692 257.312 247.056 258.806 246.61C260.301 246.165 262.941 245.274 264.69 244.574C266.439 243.906 268.347 243.11 268.919 242.824C269.46 242.537 269.905 242.251 269.873 242.156C269.81 242.092 268.697 242.378 267.393 242.792C266.089 243.206 263.577 243.842 261.828 244.224C259.76 244.669 256.898 244.956 253.718 245.083C249.934 245.21 247.994 245.146 245.291 244.733C243.383 244.415 240.298 243.683 238.453 243.078C236.609 242.442 233.62 241.169 231.775 240.215C229.931 239.26 227.164 237.51 225.574 236.333C223.984 235.156 221.471 232.992 219.977 231.497C218.482 230.001 216.351 227.647 215.238 226.247C214.125 224.847 212.281 222.269 211.136 220.519C209.959 218.769 208.274 215.906 207.383 214.156C206.493 212.406 205.252 209.701 204.616 208.11C204.012 206.519 203.217 203.751 202.836 201.906C202.327 199.583 202.136 197.42 202.136 194.747C202.136 192.424 202.327 189.815 202.677 188.065C202.963 186.474 203.313 184.915 203.44 184.565C203.662 184.024 203.853 184.183 204.966 185.838C205.666 186.888 207.383 188.829 208.751 190.133C210.15 191.47 212.185 193.188 213.33 193.983C214.475 194.81 216.606 196.147 218.1 196.974C219.595 197.801 222.076 199.074 223.666 199.742C225.256 200.442 227.959 201.492 229.708 202.097C231.457 202.701 234.097 203.56 235.591 203.974C237.086 204.388 239.725 205.024 241.475 205.374C243.224 205.724 246.499 206.233 248.789 206.519C251.079 206.774 254.768 206.997 257.057 206.997C259.347 206.997 262.527 206.838 264.149 206.679C265.739 206.488 268.188 206.138 269.555 205.851C270.891 205.565 273.085 204.897 274.389 204.356C276.138 203.624 277.251 202.924 278.555 201.619C280.05 200.124 280.463 199.456 281.036 197.61C281.576 195.924 281.863 193.76 282.181 188.701C282.435 185.042 282.721 181.606 282.848 181.065C282.976 180.524 283.325 179.601 283.643 178.997C283.93 178.392 284.979 176.961 285.965 175.815C286.951 174.67 287.968 173.27 288.223 172.729C288.477 172.156 288.636 171.297 288.541 170.82C288.477 170.311 287.937 169.42 287.332 168.815C286.76 168.211 285.615 167.224 284.788 166.683C283.961 166.111 283.357 165.538 283.421 165.411C283.484 165.252 285.17 164.742 287.142 164.233C289.972 163.502 290.99 163.056 291.848 162.324C292.739 161.497 292.93 161.083 293.057 159.588C293.152 158.474 292.961 156.629 292.548 154.497C292.166 152.652 291.88 150.488 291.88 149.661C291.88 148.802 292.039 147.815 292.23 147.433C292.421 147.02 292.961 146.288 293.438 145.811C293.884 145.302 295.537 144.124 297.127 143.202C298.717 142.279 300.466 141.006 301.039 140.37C301.58 139.734 302.057 138.906 302.088 138.524C302.12 138.111 302.088 137.443 302.057 136.997C302.025 136.552 301.77 135.756 301.516 135.247C301.262 134.738 297.414 130.729 292.993 126.338C288.159 121.566 284.152 117.302 282.976 115.679C281.894 114.184 280.527 112.052 279.954 110.906C279.382 109.761 278.682 108.043 278.396 107.088C278.11 106.134 277.887 105.338 277.887 105.338C277.887 105.338 279 105.338 280.368 105.307C282.085 105.275 283.23 105.084 284.248 104.638C285.043 104.288 286.156 103.62 286.728 103.143C287.269 102.697 287.682 102.157 287.587 101.997C287.491 101.838 286.537 101.679 285.456 101.679C284.12 101.679 282.976 101.457 282.022 101.011C281.227 100.661 280.113 100.025 279.573 99.5793L278.523 98.8157C278.841 93.4066 278.746 90.6385 278.523 88.793C278.333 87.043 277.665 83.734 277.092 81.4749C276.52 79.2158 275.375 75.6204 274.548 73.5204C273.753 71.4204 272.258 68.0477 271.241 66.0432C270.255 64.0386 268.569 61.0159 267.52 59.3614C266.216 57.2932 265.262 55.2887 264.531 52.9978C263.926 51.1524 262.877 48.5115 262.146 47.1115C261.446 45.7115 260.174 43.4843 259.283 42.1797C258.425 40.8434 255.881 37.9797 253.559 35.657C250.792 32.8571 248.344 30.7571 246.086 29.2298C244.241 27.9889 241.379 26.2707 239.725 25.3798C238.072 24.5208 235.432 23.2799 233.842 22.6435ZM218.546 31.298C217.592 29.7389 216.701 28.4025 216.542 28.3071C216.383 28.2116 216.256 28.3389 216.224 28.5616C216.192 28.7844 216.542 30.1843 216.987 31.6798C217.401 33.1752 218.1 35.8798 218.546 37.7252C218.991 39.5706 219.563 42.5615 219.818 44.407C220.104 46.2524 220.326 49.7842 220.326 52.266C220.326 54.7796 220.167 57.9296 219.977 59.266C219.786 60.6341 219.277 63.1159 218.864 64.7705C218.418 66.4886 217.369 69.2886 216.383 71.2931C215.429 73.2022 213.966 75.7158 213.076 76.8613C212.217 78.0067 210.373 80.0113 209.005 81.3158C207.638 82.6203 205.062 84.593 203.313 85.7385C201.564 86.8521 197.779 89.143 194.885 90.7975C191.991 92.4521 187.507 94.8702 184.868 96.2066C182.26 97.5111 177.172 99.8338 173.578 101.361C169.985 102.888 161.621 106.325 154.974 108.997C148.328 111.638 140.663 114.756 137.96 115.902C135.257 117.047 131.091 118.956 128.738 120.166C126.385 121.343 122.95 123.315 121.105 124.525C119.261 125.734 116.685 127.579 115.381 128.629C114.077 129.679 111.501 132.097 109.657 134.006C107.685 136.074 105.364 138.906 103.964 140.974C102.692 142.884 100.721 146.256 99.6394 148.452C98.5581 150.647 97.1271 153.861 96.4592 155.611C95.8232 157.361 94.8691 160.383 94.3603 162.292C93.8515 164.202 93.2473 167.288 92.9611 169.133C92.7066 170.979 92.484 174.542 92.484 177.088C92.484 179.633 92.7066 183.197 92.9929 185.042C93.2473 186.888 93.8197 189.751 94.2331 191.406C94.6465 193.06 95.4416 195.701 95.9822 197.292C96.5228 198.883 98.0175 202.288 99.3214 204.929C100.593 207.538 102.47 210.974 103.456 212.565C104.441 214.156 106.318 216.86 107.59 218.61C108.862 220.36 111.533 223.637 113.505 225.897C115.508 228.187 118.784 231.528 120.787 233.374C122.791 235.187 125.717 237.733 127.307 238.974C128.897 240.215 131.6 242.251 133.349 243.492C135.098 244.733 138.819 247.151 141.618 248.837C144.416 250.524 149.504 253.324 152.907 255.01C156.31 256.696 161.112 258.924 163.561 259.942C166.009 260.928 170.303 262.519 173.101 263.474C175.9 264.396 180.479 265.733 183.278 266.433C186.076 267.164 189.956 268.024 191.864 268.374C193.772 268.724 197.588 269.328 200.291 269.71C203.885 270.187 207.733 270.41 214.443 270.537C220.295 270.664 225.415 270.569 228.436 270.346C231.075 270.124 235.718 269.614 238.771 269.169C241.824 268.724 246.34 267.928 248.789 267.387C251.238 266.878 254.958 265.86 257.057 265.192C259.156 264.524 262.464 263.314 264.372 262.519C266.28 261.724 269.237 260.324 270.891 259.433C272.545 258.542 275.28 256.919 276.933 255.837C278.587 254.724 281.322 252.687 282.976 251.287C284.629 249.919 287.269 247.437 288.827 245.783C290.385 244.128 292.707 241.36 294.011 239.61C295.315 237.86 297.382 234.774 298.558 232.769C299.767 230.765 301.23 228.028 301.834 226.724C302.438 225.419 303.011 224.019 303.138 223.637C303.233 223.224 303.233 222.906 303.106 222.937C302.947 222.937 301.834 224.178 300.625 225.642C299.417 227.137 296.523 230.192 294.265 232.387C291.975 234.615 288.477 237.669 286.474 239.196C284.47 240.692 281.545 242.728 279.954 243.683C278.364 244.637 275.725 246.101 274.071 246.928C272.417 247.756 269.46 249.06 267.552 249.824C265.644 250.555 262.4 251.605 260.396 252.146C258.393 252.687 255.022 253.419 252.923 253.769C250.824 254.119 246.881 254.565 244.178 254.724C241.125 254.883 237.277 254.883 234.001 254.692C231.107 254.533 227.259 254.183 225.415 253.896C223.57 253.642 220.644 253.133 218.895 252.783C217.146 252.433 214.284 251.733 212.535 251.224C210.786 250.715 207.765 249.633 205.857 248.837C203.949 248.042 201.436 246.865 200.291 246.228C199.147 245.592 196.952 244.224 195.362 243.142C193.709 242.028 190.942 239.642 188.843 237.542C186.521 235.251 184.422 232.769 183.15 230.86C182.037 229.206 180.606 226.756 179.938 225.451C179.271 224.147 178.253 221.697 177.617 220.042C177.013 218.388 176.122 215.365 175.677 213.36C175.264 211.356 174.723 208.206 174.5 206.36C174.278 204.292 174.182 200.824 174.31 197.292C174.437 193.283 174.723 190.197 175.295 186.951C175.709 184.406 176.599 180.333 177.235 177.883C177.871 175.433 179.143 171.138 180.097 168.338C181.02 165.538 182.642 161.211 183.723 158.729C184.804 156.215 186.458 152.556 187.444 150.615C188.429 148.643 190.115 145.429 191.164 143.52C192.214 141.611 194.345 137.952 195.839 135.406C197.366 132.861 201.182 126.784 204.267 121.884C207.383 116.984 211.072 111.034 212.44 108.679C213.807 106.325 216.065 102.157 217.433 99.452C218.832 96.7475 220.613 92.9294 221.439 91.0203C222.266 89.1112 223.697 85.2294 224.651 82.4294C225.574 79.6294 226.623 75.9067 226.973 74.1568C227.323 72.4068 227.768 69.1932 227.991 66.9977C228.181 64.8023 228.245 61.8114 228.118 60.3159C228.022 58.8205 227.8 56.5296 227.609 55.2251C227.418 53.9205 226.909 51.4069 226.464 49.6569C226.051 47.9069 225.16 45.107 224.556 43.4524C223.92 41.7979 222.712 38.9979 221.821 37.2479C220.962 35.4979 219.468 32.8252 218.546 31.298ZM202.677 31.5843C202.772 30.7571 202.74 30.0889 202.613 30.0889C202.454 30.1207 201.564 31.0116 200.578 32.0934C199.624 33.1752 197.684 34.9889 196.284 36.1025C194.917 37.2161 192.913 38.5525 191.864 39.0297C190.815 39.5388 188.811 40.2388 187.412 40.5888C186.013 40.9388 183.087 41.3524 180.892 41.5434C178.698 41.7024 172.338 41.9252 166.741 42.0206C161.144 42.1161 154.624 42.3388 152.271 42.5297C149.918 42.6888 146.547 43.0388 144.798 43.2933C143.049 43.5479 139.837 44.2161 137.642 44.757C135.448 45.2661 132.3 46.2206 130.646 46.857C128.992 47.4615 126.257 48.6388 124.604 49.466C122.95 50.2933 120.438 51.7251 119.038 52.6796C117.639 53.6024 115.286 55.3842 113.823 56.6251C112.328 57.866 110.134 60.0296 108.894 61.4614C107.653 62.8614 105.713 65.375 104.569 67.0295C103.456 68.6841 101.993 71.1659 101.357 72.5659C100.689 73.9659 99.9256 75.9704 99.6394 77.0204C99.3532 78.0704 99.0352 80.5203 98.9398 82.4294C98.8444 84.3385 98.8444 86.5021 98.9716 87.2021C99.0988 87.9658 99.2896 88.3476 99.4804 88.1567C99.6394 87.9976 100.18 86.7248 100.721 85.3567C101.261 84.0203 102.184 81.9522 102.788 80.7431C103.392 79.5658 104.632 77.5295 105.554 76.2249C106.477 74.9204 108.385 72.725 109.784 71.325C111.215 69.9568 113.568 67.9204 115.063 66.8068C116.558 65.6932 119.197 63.9114 120.946 62.8932C122.696 61.8432 125.78 60.2841 127.784 59.425C129.787 58.566 132.872 57.3887 134.621 56.816C136.37 56.2751 139.296 55.4796 141.14 55.066C142.985 54.6524 146.483 54.016 148.932 53.666C151.381 53.316 156.532 52.7433 160.38 52.3615C164.228 52.0115 169.094 51.5024 171.193 51.2478C173.292 50.9615 176.44 50.4524 178.189 50.1024C179.938 49.7524 182.801 48.9888 184.55 48.416C186.299 47.8115 188.652 46.8888 189.797 46.316C190.942 45.7433 192.913 44.5342 194.217 43.6433C195.521 42.7524 197.334 41.1934 198.256 40.1752C199.274 39.0934 200.482 37.3116 201.245 35.7207C201.945 34.2889 202.581 32.4434 202.677 31.5843ZM212.408 40.8115C212.026 39.6343 211.613 38.6161 211.454 38.5207C211.295 38.4252 211.104 38.6161 211.009 38.9025C210.913 39.2206 210.532 41.1615 210.182 43.1979C209.8 45.2661 209.228 47.8433 208.846 48.9251C208.496 50.0387 207.701 51.8524 207.097 52.9978C206.525 54.1433 205.316 55.9251 204.489 56.9751C203.631 58.0251 201.945 59.6478 200.737 60.5387C199.528 61.4614 197.62 62.7023 196.475 63.3068C195.33 63.9114 191.26 65.5341 187.412 66.9341C183.564 68.3341 178.635 70.0522 176.44 70.7522C174.246 71.4522 168.808 73.1068 164.356 74.4431C159.903 75.7477 153.32 77.8158 149.727 79.0249C146.133 80.234 140.568 82.2703 137.324 83.5749C134.081 84.8476 129.088 87.0748 126.194 88.5067C123.3 89.9066 119.293 92.0703 117.289 93.2475C115.286 94.4248 112.265 96.3339 110.611 97.4793C108.957 98.6248 106.318 100.597 104.728 101.838C103.138 103.079 100.657 105.243 99.1942 106.643C97.7313 108.011 95.378 110.525 94.0105 112.179C92.6112 113.834 90.5759 116.57 89.4629 118.225C88.3498 119.879 86.6325 122.902 85.6785 124.906C84.7244 126.911 83.3252 130.315 82.6255 132.447C81.9259 134.611 80.9401 138.461 80.4312 141.038C79.8906 143.647 79.2546 147.974 78.9684 150.679C78.6821 153.383 78.3959 159.556 78.3005 164.361C78.2051 170.056 78.2369 172.951 78.4277 172.633C78.6185 172.379 80.7174 166.938 83.1026 160.542C85.4877 154.147 88.318 146.988 89.3675 144.634C90.4169 142.279 91.848 139.256 92.5794 137.952C93.2791 136.647 94.5193 134.579 95.2826 133.338C96.0776 132.097 97.6041 129.965 98.6853 128.565C99.7666 127.165 101.961 124.684 103.551 123.061C105.173 121.47 107.94 118.956 109.752 117.525C111.533 116.093 114.586 113.897 116.494 112.656C118.402 111.416 121.137 109.729 122.537 108.934C123.936 108.138 126.798 106.611 128.897 105.561C130.996 104.511 135.575 102.411 139.073 100.884C142.572 99.3566 152.303 95.2839 160.698 91.8157C169.094 88.3476 177.681 84.7521 179.779 83.8612C181.878 82.9385 185.376 81.284 187.571 80.1703C189.765 79.0885 192.818 77.3704 194.408 76.384C195.998 75.3977 198.542 73.6159 200.132 72.4068C201.723 71.2295 204.203 68.9704 205.698 67.4114C207.574 65.4386 208.814 63.8159 209.705 62.0659C210.436 60.6659 211.39 58.3751 211.835 56.9751C212.281 55.5751 212.821 53.2205 213.012 51.7251C213.266 50.166 213.33 47.7479 213.235 45.9979C213.139 44.3433 212.758 42.0206 212.408 40.8115ZM336.275 108.043C335.83 106.738 335.289 105.497 335.067 105.338C334.812 105.116 334.78 105.179 334.939 105.657C335.067 106.007 335.416 107.438 335.671 108.838C336.021 110.62 336.116 112.338 335.989 114.566C335.893 116.316 335.448 119.116 335.035 120.77C334.59 122.425 333.699 125.002 333 126.497C332.332 127.993 331.06 130.284 330.233 131.588C329.374 132.893 327.148 135.979 325.303 138.429C323.427 140.879 321.265 143.806 320.501 144.952C319.738 146.097 318.562 148.165 317.926 149.565C317.258 150.965 316.431 153.193 316.081 154.497C315.699 155.802 315.286 158.029 315.127 159.429C314.936 161.02 314.936 162.992 315.127 164.679C315.318 166.174 315.89 168.752 316.463 170.406C317.035 172.188 318.085 174.351 318.943 175.656C319.738 176.865 321.265 178.679 322.282 179.665C323.3 180.62 324.795 181.797 325.59 182.242C326.385 182.688 327.816 183.324 328.77 183.642C330.01 184.056 331.473 184.247 333.858 184.247C336.657 184.247 337.515 184.12 339.105 183.451C340.155 183.038 341.745 182.115 342.604 181.383C343.494 180.651 344.734 179.283 345.402 178.329C346.07 177.374 346.929 175.688 347.31 174.542C347.914 172.761 348.01 171.838 347.978 167.702C347.978 163.406 347.883 162.674 347.119 160.288C346.642 158.856 346.134 157.615 345.943 157.52C345.784 157.424 345.625 157.456 345.625 157.583C345.625 157.743 345.816 158.474 346.07 159.27C346.324 160.065 346.611 161.624 346.738 162.77C346.865 164.202 346.801 165.57 346.42 167.224C346.165 168.529 345.498 170.406 344.989 171.361C344.448 172.315 343.208 173.938 342.222 174.924C341.204 175.911 339.519 177.247 338.469 177.883C337.42 178.52 335.544 179.315 334.335 179.697C332.65 180.206 331.505 180.333 329.565 180.238C327.689 180.142 326.607 179.888 325.431 179.315C324.572 178.901 323.205 177.883 322.441 177.088C321.71 176.292 320.597 174.638 319.993 173.429C319.42 172.22 318.689 170.342 318.434 169.292C318.116 168.083 317.957 166.111 317.989 163.883L318.053 160.383C318.498 165.061 318.816 167.32 319.07 168.402C319.325 169.515 319.993 171.297 320.565 172.379C321.106 173.492 322.219 175.083 323.014 175.942C323.809 176.77 325.208 177.851 326.067 178.297C327.053 178.806 328.452 179.156 329.819 179.283C331.409 179.411 331.95 179.379 331.95 179.061C331.95 178.87 331.632 178.679 331.25 178.679C330.837 178.679 329.819 178.329 328.929 177.915C328.07 177.47 326.766 176.515 326.099 175.751C325.399 174.988 324.508 173.651 324.127 172.792C323.713 171.902 323.236 170.12 323.014 168.815C322.823 167.447 322.728 165.283 322.855 163.724C322.95 162.229 323.3 159.938 323.65 158.633C323.968 157.329 324.826 154.815 325.558 153.065C326.289 151.315 328.261 147.306 329.915 144.156C331.6 141.006 333.604 136.934 334.399 135.088C335.162 133.243 336.116 130.634 336.498 129.265C336.879 127.929 337.293 126.815 337.452 126.815C337.579 126.815 337.833 127.42 337.992 128.152C338.183 128.915 338.692 130.602 339.137 131.906C339.582 133.211 341.65 137.793 343.717 142.088C345.816 146.384 347.946 151.252 348.487 152.906C349.027 154.561 349.664 157.202 349.918 158.793C350.172 160.383 350.395 162.802 350.395 164.202C350.395 165.602 350.172 168.115 349.95 169.77C349.695 171.424 349.155 173.715 348.741 174.861C348.328 176.006 347.565 177.629 346.992 178.52C346.452 179.379 345.18 180.874 344.225 181.765C343.24 182.688 341.554 183.865 340.473 184.406C339.36 184.915 337.452 185.488 336.243 185.679C334.494 185.933 333.445 185.901 331.314 185.551C329.533 185.233 327.72 184.629 326.067 183.801C324.604 183.101 322.728 181.829 321.678 180.874C320.66 179.92 319.738 179.283 319.611 179.411C319.484 179.538 320.342 180.556 321.487 181.638C322.664 182.72 324.508 184.151 325.622 184.82C326.735 185.488 328.674 186.347 329.883 186.729C331.473 187.206 332.872 187.397 334.812 187.397C336.879 187.365 338.088 187.174 339.996 186.538C341.332 186.061 343.208 185.201 344.13 184.629C345.021 184.056 346.356 183.07 347.024 182.465C347.692 181.861 348.868 180.588 349.6 179.633C350.363 178.679 351.476 176.865 352.08 175.656C352.685 174.447 353.512 172.411 353.893 171.202C354.402 169.579 354.656 167.861 354.752 164.838C354.847 162.292 354.784 159.779 354.529 158.315C354.307 157.011 353.671 154.497 353.098 152.747C352.526 150.997 351.54 148.515 350.904 147.243C350.268 146.002 349.155 143.997 348.455 142.788C347.724 141.611 345.879 138.938 344.353 136.838C342.794 134.738 341.141 132.288 340.632 131.429C340.123 130.538 339.296 128.884 338.851 127.675C338.056 125.67 337.992 125.225 337.992 120.293C337.992 117.111 337.802 114.12 337.547 112.72C337.293 111.479 336.72 109.347 336.275 108.043ZM54.4493 112.752C54.4493 112.116 54.3221 111.416 54.1631 111.256C53.9087 111.002 53.5907 111.066 53.1137 111.384C52.732 111.638 52.1278 112.625 51.8098 113.516C51.46 114.438 50.9829 116.411 50.6967 117.906C50.3151 119.816 50.1879 122.393 50.1879 126.656C50.1879 132.575 50.1879 132.734 49.3611 134.293C48.884 135.152 48.0572 137.093 47.4848 138.588C46.9123 140.084 46.1809 142.502 45.9265 143.997C45.6403 145.493 45.4177 148.07 45.4177 149.724C45.4177 151.379 45.6403 153.956 45.9265 155.452C46.1809 156.947 47.0077 160.447 47.7074 163.247C48.725 167.224 49.0112 168.974 49.0112 171.202C49.0431 172.824 48.566 177.629 47.93 182.274C47.3576 186.76 46.7851 190.451 46.6897 190.451C46.5943 190.451 46.0537 188.638 45.4495 186.41C44.8452 184.151 43.8594 180.747 43.2552 178.838C42.6509 176.929 41.7287 174.479 41.2199 173.429C40.6792 172.379 39.8524 170.947 39.3754 170.247C38.8983 169.547 37.9125 168.37 37.1811 167.606C36.4814 166.874 35.4002 165.983 34.8595 165.633C34.2871 165.283 33.6193 164.997 33.4285 164.997C33.1741 164.997 33.7147 166.715 34.8913 169.674C35.909 172.283 36.8312 174.701 36.9584 175.083C37.0539 175.497 37.0538 175.815 36.9266 175.815C36.7676 175.815 35.2412 172.951 33.4921 169.452C31.266 164.965 30.1847 163.088 29.8349 163.152C29.5169 163.215 29.2307 163.947 28.9762 165.156C28.7218 166.492 28.69 167.733 28.8808 169.292C29.0398 170.502 29.3579 172.092 29.5487 172.792C29.7395 173.492 30.3119 174.924 30.8525 175.974C31.3614 177.024 32.0928 178.392 32.4744 178.997C32.856 179.601 35.1776 182.624 37.6263 185.679C40.075 188.733 42.5237 191.883 43.0644 192.679C43.605 193.474 44.4318 194.81 44.877 195.701C45.3223 196.56 45.9901 198.215 46.3717 199.36C46.7533 200.506 47.3258 202.797 47.6438 204.451C47.9618 206.106 48.3434 208.938 48.5024 210.751C48.6296 212.533 48.6614 213.997 48.5342 213.997C48.3752 213.997 46.7851 211.038 44.9406 207.379C43.128 203.751 40.87 199.647 39.9478 198.247C39.0255 196.847 37.5627 194.97 36.6722 194.079C35.8136 193.188 34.2871 191.947 33.3331 191.342C32.379 190.706 30.5027 189.751 29.1989 189.242C27.895 188.701 25.6689 187.97 24.2696 187.651C23.3969 187.433 22.45 187.202 21.7375 187.029C21.3075 186.924 20.9629 186.84 20.7714 186.792L19.8174 186.57C20.199 191.12 20.4852 192.042 21.5983 194.27C22.6159 196.306 23.5382 197.547 25.3509 199.36C26.6865 200.697 29.2625 202.765 31.1069 203.942C32.2239 204.674 33.5742 205.57 34.7339 206.339C35.4893 206.84 36.1638 207.288 36.6404 207.601C37.8489 208.397 40.0114 210.21 41.4425 211.61C42.8735 213.01 44.6226 215.015 45.3223 216.065C46.0219 217.115 47.0396 218.865 47.612 219.947C48.1526 221.06 48.9476 223.001 49.3611 224.242C49.8063 225.515 50.6649 229.11 51.2692 232.197C51.9052 235.315 52.414 238.019 52.414 238.178C52.414 238.337 52.2232 238.496 52.0324 238.496C51.8098 238.496 50.8875 237.192 49.9653 235.569C49.0749 233.947 47.8028 231.401 47.1668 229.906C46.5307 228.41 45.3541 226.119 44.559 224.815C43.764 223.51 42.4283 221.569 41.6015 220.519C40.7746 219.469 38.9301 217.497 37.4991 216.128C36.0998 214.792 33.6829 212.851 32.1564 211.865C30.5981 210.878 28.0222 209.447 26.4321 208.683C24.8102 207.919 23.411 207.347 23.3474 207.379C23.252 207.442 23.0611 208.556 22.9021 209.86C22.7113 211.324 22.7113 213.169 22.9021 214.633C23.0611 215.938 23.5382 217.878 23.9834 218.928C24.3968 219.978 25.2237 221.601 25.7961 222.556C26.3367 223.478 28.054 225.419 29.5487 226.851C31.3296 228.537 33.4603 230.128 35.75 231.465C36.9013 232.156 38.3653 233.021 39.6738 233.794C40.5338 234.302 41.3267 234.77 41.9195 235.124C43.4142 236.015 45.9901 237.733 47.6438 239.006C49.2975 240.246 51.2692 241.965 52.0324 242.824C52.7638 243.683 53.7497 245.083 54.1949 245.974C54.6401 246.833 54.9581 247.756 54.8945 247.946C54.8309 248.201 53.2409 247.406 50.6649 245.783C48.407 244.383 45.3859 242.665 43.9866 241.996C42.5873 241.328 40.4566 240.406 39.2164 239.96C37.9761 239.546 35.0503 238.592 32.697 237.86C30.3437 237.128 28.372 236.587 28.3084 236.651C28.2766 236.715 28.1494 237.956 28.0222 239.451C27.895 241.424 27.9904 242.728 28.372 244.224C28.6582 245.369 29.5169 247.565 30.2801 249.155C31.3614 251.383 32.2836 252.655 34.3189 254.851C35.7818 256.378 37.9125 258.287 39.0573 259.019C40.2022 259.783 43.0644 261.342 45.4177 262.455C47.771 263.569 52.1596 265.51 55.1172 266.751C58.0747 267.992 60.8414 269.042 61.2549 269.042C61.6365 269.042 62.0181 268.946 62.0817 268.787C62.1771 268.66 60.3644 265.701 58.0747 262.201C54.7037 257.078 53.3045 255.265 50.8557 252.783C49.043 250.969 46.9123 249.219 45.5767 248.424C44.3364 247.692 40.9972 246.196 38.1033 245.083C35.2094 243.969 32.4744 242.792 31.9974 242.442C31.5204 242.124 31.1069 241.646 31.1069 241.424C31.1069 241.169 31.425 241.106 32.1564 241.233C32.697 241.36 34.8277 241.933 36.8312 242.537C38.8347 243.142 41.9195 244.319 43.6686 245.146C45.4177 245.974 47.7074 247.215 48.7568 247.946C49.8063 248.646 51.3646 249.855 52.2232 250.619C53.0819 251.383 54.6401 253.165 55.6896 254.565C56.7708 255.996 58.5199 259.051 59.7284 261.564C60.905 264.014 62.0181 266.369 62.1771 266.814C62.4951 267.546 62.6541 267.292 64.4668 263.474C65.5481 261.183 68.5056 255.392 71.018 250.587C73.5303 245.783 76.3288 240.183 77.2511 238.178C78.1415 236.174 79.4454 233.024 80.145 231.178C80.8128 229.333 81.3217 227.806 81.2899 227.774C81.2263 227.71 80.3994 227.837 79.4454 228.028C78.4913 228.219 76.6468 228.856 75.4066 229.46C73.7529 230.224 72.449 231.178 70.9225 232.674C69.7459 233.883 67.9332 236.11 66.8837 237.701C65.8661 239.292 64.9438 240.406 64.8802 240.246C64.8166 240.087 65.0075 239.069 65.2937 238.019C65.5799 236.969 66.2159 235.187 66.7247 234.042C67.2018 232.897 68.283 230.828 69.1099 229.428C69.9367 228.028 71.2724 226.024 72.0992 224.974C72.8942 223.924 74.2299 222.269 75.0568 221.315C75.9472 220.297 76.615 219.183 76.6468 218.674C76.7422 217.815 76.7104 217.783 75.6292 217.974C74.8023 218.133 74.0391 218.674 72.6716 220.138C71.6858 221.219 69.9685 223.256 68.919 224.656C67.8378 226.056 66.4385 228.124 65.7707 229.269C65.1029 230.415 64.1806 232.228 63.7354 233.31C63.2902 234.424 62.6223 236.365 62.2725 237.606C61.9227 238.878 61.4457 241.774 61.1913 244.065C60.9368 246.356 60.6188 249.633 60.5234 251.383C60.3962 253.26 60.2054 254.437 60.0464 254.246C59.8874 254.087 59.4422 252.719 59.0924 251.224C58.6153 249.41 58.3609 247.024 58.2337 243.906C58.1065 241.01 58.2019 238.274 58.4245 236.587C58.6471 235.092 59.2832 232.451 59.8556 230.701C60.4598 228.951 61.4457 226.437 62.1135 225.133C62.7813 223.828 63.8944 221.887 64.594 220.838C65.2937 219.788 67.1064 217.719 68.601 216.224C70.0957 214.728 72.608 212.628 74.1981 211.547C75.7882 210.497 77.5055 209.128 78.0779 208.524C78.6503 207.951 79.3818 206.838 79.7316 206.042C80.0814 205.247 80.463 204.038 80.5902 203.338C80.6856 202.638 80.7174 201.683 80.5902 201.174C80.4948 200.697 80.0814 200.156 79.6998 199.965C79.0956 199.679 78.4595 199.838 76.1062 200.792C74.5161 201.429 72.449 202.415 71.495 202.956C70.5409 203.497 68.76 204.897 67.5516 206.042C66.3749 207.188 64.753 209.033 63.9898 210.178C63.2584 211.324 62.1135 213.392 61.5093 214.792C60.905 216.192 59.9192 218.992 59.315 220.997C58.7107 223.001 57.5977 227.106 56.8344 230.065C56.103 233.024 55.4352 235.537 55.3716 235.633C55.3398 235.728 55.2126 235.728 55.1172 235.633C55.0536 235.537 54.8309 233.756 54.6401 231.656C54.4175 228.951 54.4175 226.851 54.6401 224.497C54.8309 222.651 55.2762 219.788 55.626 218.133C55.9758 216.478 56.6754 213.869 57.1843 212.31C57.7249 210.783 58.8379 208.142 59.6966 206.424C60.5552 204.738 62.0181 202.256 62.9403 200.951C63.8626 199.647 65.9933 197.197 67.6788 195.542C69.7141 193.538 70.7953 192.233 70.8907 191.66C70.9862 190.897 70.9225 190.77 70.1593 190.77C69.5869 190.77 68.6964 191.215 67.7742 192.01C66.9156 192.679 65.2937 194.206 64.1488 195.415C63.004 196.624 61.4139 198.533 60.6188 199.679C59.8238 200.824 58.6471 202.669 58.0429 203.815C57.4069 204.96 56.262 207.538 55.4988 209.542C54.7037 211.547 53.7815 214.251 53.3999 215.492C53.05 216.765 52.573 217.815 52.414 217.815C52.255 217.815 52.0006 216.574 51.9052 215.015C51.778 213.488 51.778 211.228 51.9052 210.019C52.0006 208.81 52.3822 206.71 52.7638 205.406C53.1137 204.101 54.1313 201.651 54.9899 199.997C55.8804 198.342 57.6295 195.542 58.9333 193.792C60.2372 192.042 61.7319 189.815 62.2407 188.86C62.7495 187.906 63.5128 186.092 63.9262 184.883C64.5304 183.07 64.6576 181.988 64.6258 178.997C64.6258 175.847 64.5304 175.051 63.799 173.27C63.3538 172.124 62.8767 171.17 62.7177 171.106C62.5587 171.074 61.5093 171.647 60.3962 172.379C59.2514 173.142 57.7567 174.447 57.0571 175.338C56.3892 176.197 55.4034 177.82 54.8945 178.901C54.4175 180.015 53.6543 182.242 53.2409 183.833C52.8274 185.456 52.0324 189.37 51.4918 192.52C50.9511 195.67 50.5059 198.788 50.5059 199.424C50.5059 200.283 50.3787 200.633 50.0289 200.633C49.6155 200.633 49.5837 200.06 49.7109 196.72C49.7843 195.079 49.8765 192.308 49.9586 189.842C49.9832 189.104 50.0069 188.392 50.0289 187.747C50.1243 184.947 50.4423 181.288 50.7285 179.633C51.0147 177.979 51.6826 175.242 52.255 173.588C52.8274 171.933 54.2585 168.274 55.4034 165.474C56.58 162.674 57.8203 159.397 58.1701 158.156C58.5199 156.915 58.9333 154.656 59.1242 153.065C59.3468 151.061 59.3468 149.343 59.0924 147.338C58.9015 145.747 58.3291 143.265 57.8521 141.77C57.3433 140.274 56.2938 137.793 55.467 136.202C54.6719 134.611 53.7815 132.256 53.4635 130.952C53.1137 129.265 52.9546 127.165 52.9546 123.793C52.9865 119.847 53.1137 118.575 53.6861 116.475C54.0995 115.075 54.4175 113.388 54.4493 112.752ZM335.575 154.083C335.385 153.097 335.067 152.27 334.876 152.27C334.685 152.27 334.367 153.32 334.144 154.561C333.922 155.833 333.731 158.602 333.731 160.702C333.731 162.802 333.89 165.474 334.113 166.652C334.335 167.861 334.653 168.815 334.812 168.815C334.971 168.815 335.321 167.861 335.512 166.652C335.734 165.474 335.925 162.579 335.925 160.224C335.893 157.87 335.734 155.102 335.575 154.083ZM360.285 156.088C360.158 155.165 359.872 154.497 359.649 154.497C359.331 154.497 359.299 155.07 359.458 156.788C359.586 158.061 359.522 160.606 359.331 162.452C359.14 164.297 358.695 166.938 358.345 168.338C357.996 169.738 357.073 172.156 356.31 173.747C355.515 175.338 353.957 177.756 352.812 179.156C351.699 180.556 349.854 182.401 348.773 183.292C347.66 184.151 345.688 185.488 344.353 186.251C343.049 186.983 340.6 188.033 338.946 188.574C337.293 189.115 334.494 189.688 332.745 189.91C330.01 190.197 329.152 190.165 326.703 189.688C324.858 189.338 322.887 188.67 321.138 187.842C318.848 186.729 317.926 185.997 315.159 183.229C313.378 181.415 311.915 180.111 311.915 180.27C311.915 180.429 312.742 181.701 313.76 183.038C314.809 184.406 316.749 186.601 318.148 187.906C319.516 189.242 321.742 190.96 323.046 191.724C324.349 192.52 326.639 193.57 328.134 194.079C330.424 194.874 331.473 195.033 334.812 195.16C338.12 195.288 339.233 195.192 341.491 194.62C342.985 194.27 345.052 193.538 346.102 193.029C347.151 192.52 349.027 191.31 350.236 190.356C351.444 189.433 353.194 187.715 354.084 186.601C355.006 185.488 356.31 183.483 357.042 182.179C357.741 180.874 358.695 178.711 359.14 177.406C359.586 176.101 360.158 173.874 360.412 172.474C360.635 171.074 360.921 168.847 361.049 167.542C361.144 166.238 361.08 163.47 360.889 161.402C360.73 159.365 360.444 156.947 360.285 156.088ZM379.652 199.36C379.493 199.01 379.207 198.724 379.016 198.724C378.857 198.724 378.571 198.979 378.444 199.265C378.285 199.583 377.903 201.047 377.585 202.542C377.299 204.038 376.695 206.106 376.281 207.156C375.836 208.206 375.105 209.701 374.66 210.497C374.214 211.292 372.147 213.583 370.112 215.588C366.836 218.801 366.232 219.597 365.056 221.951C364.356 223.447 363.529 225.515 363.275 226.565C362.988 227.615 362.639 231.115 362.48 234.36C362.289 237.606 362.003 241.392 361.812 242.792C361.621 244.192 361.08 246.928 360.603 248.837C360.094 250.746 359.14 253.546 358.441 255.042C357.773 256.537 356.723 258.446 356.119 259.337C355.515 260.196 355.006 260.769 354.943 260.61C354.879 260.451 355.388 258.001 356.087 255.201C356.755 252.401 357.423 249.251 357.55 248.201C357.678 247.119 357.614 245.274 357.391 243.906C357.201 242.601 356.628 240.501 356.119 239.292C355.61 238.083 354.815 236.715 354.37 236.269L353.575 235.474C352.208 236.492 351.285 237.574 350.649 238.528C349.95 239.546 349.25 241.106 348.932 242.315C348.455 244.192 348.455 244.637 348.932 247.246C349.187 248.837 350.013 251.955 350.745 254.246C351.89 257.874 352.049 258.733 352.049 261.405C352.049 263.505 351.858 265.224 351.381 266.974C350.999 268.374 350.363 270.219 349.95 271.11C349.536 271.969 348.964 272.987 348.678 273.337C348.169 273.942 348.169 273.846 348.391 271.746C348.519 270.537 348.646 267.578 348.646 265.224C348.614 261.501 348.487 260.514 347.724 257.746C347.215 255.996 346.579 254.405 346.293 254.183C346.006 253.96 345.688 253.865 345.529 253.928C345.402 254.024 345.307 254.469 345.307 254.946C345.307 255.455 345.593 256.983 345.943 258.383C346.293 259.783 346.674 262.36 346.801 264.11C346.897 266.051 346.833 268.342 346.579 269.996C346.388 271.492 345.911 273.751 345.593 274.992C345.275 276.264 344.321 278.651 343.526 280.242C343.218 280.846 342.927 281.42 342.681 281.906C342.266 282.726 341.976 283.3 341.936 283.36C341.872 283.455 341.745 283.455 341.65 283.36C341.554 283.264 341.745 282.055 342.095 280.655C342.445 279.255 342.922 276.614 343.144 274.769C343.43 272.16 343.43 270.696 343.144 268.087C342.922 266.242 342.476 263.696 342.127 262.424C341.777 261.183 341.013 259.178 340.441 258.001C339.9 256.824 338.628 255.042 337.674 253.992C336.625 252.878 335.385 251.924 334.558 251.605C333.667 251.255 333.127 251.16 332.936 251.383C332.809 251.542 332.522 252.178 332.3 252.719C332.045 253.483 332.045 254.724 332.268 257.174C332.427 259.083 332.745 261.469 332.936 262.519C333.127 263.569 333.604 265.287 334.017 266.337C334.399 267.387 335.575 270.092 336.625 272.383C337.674 274.673 338.692 277.187 338.915 278.014C339.105 278.873 339.264 280.369 339.264 281.355C339.264 282.373 339.042 283.837 338.787 284.633C338.533 285.428 337.706 286.86 336.943 287.846C336.211 288.832 335.035 290.296 334.335 291.092C333.636 291.919 332.999 292.523 332.904 292.428C332.809 292.364 332.936 291.028 333.159 289.501C333.381 287.973 333.604 284.982 333.604 282.883C333.636 280.114 333.508 278.492 333.095 276.996C332.777 275.851 332.014 273.942 331.378 272.733C330.71 271.524 329.724 270.124 329.152 269.614C328.611 269.137 328.038 268.724 327.879 268.724C327.752 268.724 327.53 269.328 327.402 270.06C327.275 270.824 327.243 272.637 327.339 274.133C327.498 275.978 327.275 279.701 326.735 285.746C326.289 290.646 325.908 294.91 325.908 295.196C325.908 295.514 326.067 295.769 326.226 295.769C326.385 295.769 326.894 295.037 327.339 294.178C327.784 293.287 328.42 291.537 328.77 290.264C329.088 289.023 329.533 286.573 329.724 284.855C329.883 283.169 330.042 280.751 330.042 279.542C330.042 278.269 330.169 277.314 330.36 277.314C330.519 277.314 330.773 278.142 330.901 279.128C331.06 280.146 331.123 282.469 331.123 284.314C331.091 286.223 330.837 288.61 330.551 289.882C330.233 291.092 329.533 293.128 328.961 294.337C328.42 295.546 327.434 297.264 326.83 298.123L325.749 299.682C343.844 299.396 346.165 299.269 347.692 298.823C348.741 298.537 350.522 297.869 351.667 297.328C352.812 296.787 354.434 295.832 355.324 295.164C356.183 294.528 357.391 293.255 357.964 292.396C358.536 291.537 359.204 290.105 359.49 289.246C359.776 288.355 359.935 287.623 359.872 287.592C359.827 287.569 358.705 287.434 357.123 287.243C356.479 287.166 355.76 287.079 355.006 286.987C350.522 286.478 349.95 286.478 345.625 286.987C343.081 287.273 340.982 287.464 340.918 287.337C340.886 287.242 341.459 286.669 342.19 286.033C342.953 285.396 344.194 284.569 344.989 284.155C345.784 283.773 347.119 283.296 348.01 283.105C348.868 282.883 351.444 282.564 353.734 282.373C356.024 282.183 358.886 281.833 360.094 281.578C361.303 281.323 363.243 280.655 364.388 280.083C365.501 279.542 367.25 278.269 368.236 277.314C369.349 276.264 370.366 274.864 370.843 273.814C371.289 272.86 371.734 271.524 371.829 270.855L372.02 269.678C369.921 269.678 367.949 269.901 366.296 270.155C364.642 270.41 362.416 270.887 361.367 271.269C360.317 271.651 358.663 272.351 357.709 272.892C356.755 273.401 355.292 274.355 354.466 275.023C353.639 275.66 351.603 277.346 349.918 278.746C348.264 280.146 346.801 281.196 346.738 281.037C346.642 280.91 347.406 279.478 348.391 277.855C349.409 276.264 350.872 274.133 351.667 273.178C352.462 272.223 354.179 270.696 355.483 269.805C356.787 268.946 358.727 267.896 359.776 267.483C360.826 267.101 363.338 266.433 365.342 266.019C367.345 265.637 370.207 264.842 371.702 264.301C373.197 263.76 375.009 262.933 375.741 262.455C376.472 261.946 377.49 260.992 378.031 260.292C378.539 259.592 379.048 258.637 379.144 258.128C379.334 257.301 379.271 257.269 377.744 256.951C376.854 256.792 374.819 256.633 373.197 256.633C371.607 256.633 369.476 256.855 368.522 257.11C367.568 257.365 365.851 258.033 364.706 258.605C363.147 259.369 361.653 260.578 358.663 263.537C356.469 265.669 354.593 267.419 354.434 267.451C354.307 267.451 354.529 266.687 354.943 265.764C355.356 264.874 356.405 262.964 357.296 261.564C358.186 260.165 359.967 258.001 361.271 256.792C362.988 255.137 364.61 254.024 367.409 252.528C369.508 251.415 372.147 249.887 373.292 249.155C374.437 248.424 376.027 247.087 376.854 246.165C377.713 245.274 378.667 243.906 379.016 243.11C379.366 242.283 379.621 241.137 379.557 240.437L379.493 239.196C373.07 244.542 371.161 246.037 371.066 245.942C370.971 245.878 372.243 244.446 373.833 242.792C375.455 241.137 376.727 239.61 376.631 239.451C376.536 239.26 375.9 239.356 374.946 239.706C374.119 240.024 372.783 240.66 371.925 241.137C371.098 241.615 369.54 242.824 368.426 243.874C367.313 244.924 365.564 247.151 364.388 248.965C363.243 250.715 362.225 252.178 362.066 252.178C361.939 252.178 361.907 251.86 362.003 251.446C362.098 251.065 362.416 249.665 362.67 248.36C362.785 247.772 362.919 247.068 363.049 246.385C363.208 245.551 363.361 244.748 363.465 244.224C363.656 243.269 364.229 241.456 364.737 240.246C365.246 239.037 366.328 237.001 367.123 235.792C367.949 234.583 369.571 232.419 370.684 231.019C371.829 229.619 373.197 227.551 373.706 226.406C374.214 225.26 374.85 223.383 375.073 222.174C375.327 220.965 375.486 218.642 375.423 216.765C375.359 213.519 375.359 213.456 376.536 211.197C377.204 209.924 378.031 208.174 378.38 207.315C378.73 206.424 379.239 204.451 379.493 202.86C379.875 200.824 379.907 199.838 379.652 199.36ZM162.289 132.129C165.437 129.997 171.225 126.242 175.169 123.729C179.112 121.247 182.419 119.211 182.515 119.211C182.61 119.179 182.578 119.433 182.451 119.752C182.356 120.038 179.748 124.079 176.663 128.724C173.61 133.37 169.858 139.224 168.363 141.77C166.837 144.315 164.452 148.61 163.084 151.315C161.717 154.02 159.84 158.029 158.95 160.224C158.028 162.419 156.628 166.142 155.865 168.497C155.07 170.851 154.021 174.51 153.512 176.61C153.003 178.71 152.303 182.083 151.954 184.088C151.636 186.092 151.19 189.592 150.968 191.883C150.745 194.428 150.65 198.501 150.777 202.542C150.872 206.137 151.19 210.433 151.477 212.087C151.731 213.742 152.399 216.701 152.876 218.61C153.385 220.551 154.339 223.542 154.975 225.292C155.643 227.042 156.819 229.778 157.614 231.337C158.409 232.928 159.745 235.314 160.572 236.683C161.43 238.019 162.13 239.355 162.13 239.61C162.13 239.928 161.303 239.578 159.395 238.433C157.9 237.51 154.561 235.187 151.985 233.246C149.409 231.337 145.593 228.251 143.526 226.405C141.459 224.56 138.565 221.792 137.07 220.201C135.608 218.642 133.222 215.905 131.823 214.155C130.424 212.405 128.452 209.765 127.466 208.269C126.48 206.774 124.827 204.133 123.809 202.383C122.791 200.633 121.424 197.992 120.724 196.497C120.057 195.001 119.071 192.583 118.562 191.087C118.053 189.592 117.322 186.951 116.908 185.201C116.336 182.592 116.209 181.001 116.209 176.451C116.177 172.41 116.336 170.119 116.717 168.179C117.035 166.683 117.64 164.329 118.085 162.929C118.53 161.529 119.898 158.379 121.106 155.929C122.314 153.479 124.032 150.551 124.89 149.406C125.749 148.26 127.689 146.001 129.184 144.411C130.678 142.788 132.078 141.451 132.237 141.451C132.396 141.451 131.791 142.915 130.869 144.729C129.947 146.511 128.802 149.183 128.293 150.679C127.816 152.174 127.116 154.688 126.798 156.247C126.353 158.156 126.099 160.956 125.972 164.679C125.844 168.115 125.94 171.71 126.162 174.065C126.385 176.165 126.894 179.601 127.307 181.701C127.721 183.801 128.516 186.824 129.056 188.383C129.629 189.974 130.71 192.456 131.473 193.951C132.237 195.447 133.89 198.056 135.162 199.742C136.434 201.46 137.675 202.924 137.897 203.019C138.152 203.125 138.205 202.998 138.056 202.637C137.961 202.319 137.77 201.937 137.643 201.746C137.516 201.587 136.975 200.06 136.434 198.406C135.894 196.751 135.258 194.301 134.971 192.997C134.717 191.692 134.335 188.956 134.113 186.951C133.922 184.851 133.827 181.447 133.922 178.997C134.049 176.642 134.335 173.142 134.622 171.201C134.908 169.292 135.353 166.619 135.608 165.315C135.894 164.01 136.403 161.719 136.752 160.224C137.102 158.729 137.929 156.31 138.565 154.815C139.201 153.32 140.441 151.06 141.3 149.756C142.19 148.451 143.908 146.351 145.116 145.079C146.325 143.838 149.409 141.261 151.954 139.383C154.498 137.506 159.141 134.229 162.289 132.129ZM53.2414 140.338C52.7644 139.288 52.4463 138.301 52.4781 138.142C52.5099 137.983 52.7644 138.079 53.0188 138.301C53.2414 138.556 53.8456 139.542 54.3226 140.497C54.7997 141.451 55.4357 143.106 55.6901 144.156C55.9763 145.206 56.2943 147.083 56.3897 148.292C56.5169 149.533 56.4533 151.092 56.2943 151.792C56.0399 153.033 56.0081 152.97 55.7855 150.52C55.6265 149.12 55.2131 146.701 54.7997 145.111C54.3862 143.551 53.6866 141.388 53.2414 140.338ZM30.3124 193.856C31.3937 194.874 33.4926 196.847 35.0191 198.246C36.5455 199.646 37.8812 200.696 37.9448 200.569C38.0402 200.41 37.5632 199.583 36.9272 198.66C36.2593 197.769 35.0827 196.465 34.2876 195.765C33.4926 195.097 32.1569 194.047 31.2665 193.474C30.4078 192.901 29.3902 192.328 29.0404 192.201C28.6905 192.074 29.263 192.837 30.3124 193.856ZM33.9696 219.405C30.5032 216.51 27.6411 214.06 27.6411 213.933C27.6093 213.774 27.6729 213.678 27.7683 213.678C27.8637 213.678 29.0404 214.251 30.4078 214.951C31.7435 215.651 33.8424 216.987 35.0509 217.91C36.2593 218.801 37.913 220.36 38.6762 221.315C39.4395 222.269 40.2981 223.446 40.5207 223.955C40.7751 224.464 40.8387 224.783 40.6161 224.751C40.4571 224.687 37.436 222.301 33.9696 219.405ZM370.558 217.751C369.89 218.26 368.904 219.215 368.363 219.915C367.855 220.583 367.028 222.014 366.519 223.064C366.042 224.115 365.692 225.26 365.756 225.61C365.819 226.055 366.201 225.578 367.028 223.924C367.696 222.619 368.809 220.901 369.54 220.105C370.272 219.278 371.226 218.228 371.671 217.751C372.084 217.242 372.307 216.86 372.116 216.86C371.957 216.86 371.257 217.274 370.558 217.751ZM366.042 260.419C366.805 260.037 368.109 259.464 368.999 259.146C369.858 258.828 370.939 258.573 371.353 258.573C371.83 258.542 372.021 258.669 371.83 258.796C371.671 258.955 370.049 259.687 368.204 260.419L368.11 260.455C366.306 261.139 364.767 261.723 364.611 261.723C364.484 261.723 364.452 261.596 364.547 261.405C364.643 261.246 365.31 260.769 366.042 260.419ZM365.501 272.541C364.611 272.669 363.275 272.955 362.48 273.178C361.685 273.401 360.222 273.973 359.205 274.482C358.219 274.991 357.296 275.564 357.137 275.787C356.978 276.041 357.106 276.105 357.551 275.946C357.901 275.85 360.19 275.182 362.639 274.451C364.047 274.03 365.392 273.64 366.336 273.367L366.339 273.366C366.706 273.26 367.012 273.172 367.237 273.106C367.438 273.047 367.575 273.006 367.632 272.987C367.95 272.923 368.204 272.732 368.204 272.541C368.204 272.382 367.95 272.255 367.632 272.255C367.346 272.287 366.36 272.414 365.501 272.541ZM343.399 289.437C344.353 289.246 345.498 289.023 345.943 288.96C346.389 288.896 347.661 288.832 348.805 288.832C349.95 288.8 351.89 288.928 353.099 289.087C353.589 289.164 354.11 289.242 354.589 289.313C355.291 289.417 355.9 289.507 356.183 289.564C356.692 289.659 357.074 289.882 357.074 290.041C357.074 290.232 355.07 290.328 351.572 290.296C346.707 290.2 345.848 290.264 343.622 290.932C342.286 291.314 340.219 292.078 339.011 292.619C337.834 293.159 335.926 294.209 334.717 295.005C333.541 295.769 332.491 296.341 332.332 296.246C332.205 296.15 332.459 295.705 332.905 295.259C333.35 294.814 334.558 293.796 335.608 293.064C336.657 292.3 338.438 291.25 339.583 290.741C340.728 290.232 342.445 289.628 343.399 289.437Z" fill="white"></path><path d="M196.635 349.7C196.73 349.446 204.458 342.064 213.839 333.314C224.207 323.61 231.107 317.405 231.489 317.405C231.807 317.405 232.252 317.692 232.411 318.042C232.634 318.487 232.602 318.837 232.348 319.219C232.125 319.505 224.397 326.823 215.175 335.446C205.921 344.069 198.129 351.132 197.843 351.132C197.525 351.164 197.08 350.941 196.889 350.655C196.666 350.4 196.539 349.955 196.635 349.7Z" fill="white"></path><path d="M205.444 328.828C210.882 324.023 215.97 319.569 216.733 318.901C217.528 318.264 218.291 317.723 218.45 317.723C218.609 317.723 218.959 317.946 219.214 318.201C219.468 318.455 219.691 318.869 219.691 319.06C219.722 319.283 214.761 323.833 208.719 329.178C202.677 334.523 197.493 339.01 197.175 339.169C196.889 339.328 196.38 339.36 196.094 339.232C195.744 339.137 195.521 338.723 195.521 338.31C195.553 337.737 197.875 335.51 205.444 328.828Z" fill="white"></path><path d="M205.666 355.237C205.666 354.95 209.482 351.196 214.125 346.901C218.8 342.573 222.839 339.041 223.125 339.041C223.411 339.01 223.825 339.232 224.016 339.487C224.207 339.741 224.302 340.219 224.238 340.537C224.143 340.855 220.454 344.482 216.002 348.587C211.549 352.691 207.638 356.223 207.288 356.382C206.843 356.605 206.557 356.573 206.175 356.223C205.889 355.969 205.666 355.523 205.666 355.237Z" fill="white"></path></svg>