<svg xmlns="http://www.w3.org/2000/svg" width="401" height="401" viewBox="0 0 401 401" fill="none"><path d="M178.36 1.21423C181.699 0.864162 186.47 0.450448 189.014 0.291327C191.558 0.16403 196.265 0.00490924 199.509 0.00490924C202.752 -0.0269149 207.904 0.100382 210.957 0.259503C214.01 0.450448 219.226 0.864162 222.565 1.24605C225.904 1.59612 231.12 2.29625 234.173 2.83726C237.226 3.34645 241.965 4.30117 244.668 4.90583C247.371 5.54232 251.664 6.62434 254.208 7.32447C256.753 8.0246 261.173 9.39304 264.067 10.3478C266.961 11.3025 271.381 12.9255 273.926 13.9439C276.47 14.9304 280.127 16.458 282.035 17.2854C283.943 18.1447 288.109 20.1496 291.258 21.7408C294.406 23.3639 298.763 25.7188 300.957 26.9918C303.152 28.2648 307.222 30.8107 310.021 32.6565C312.82 34.4705 317.049 37.4301 319.403 39.1805C321.756 40.9308 325.191 43.604 327.035 45.0998C328.88 46.5955 331.742 49.046 333.396 50.5099C335.049 51.9738 338.452 55.188 340.965 57.6703C343.477 60.1526 347.198 64.0351 349.233 66.2947C351.3 68.5542 354.194 71.9275 355.689 73.7733C357.184 75.6191 359.855 79.0562 361.604 81.4111C363.353 83.7661 366.311 87.9988 368.155 90.7993C369.968 93.5998 372.798 98.1825 374.42 100.983C376.01 103.784 378.586 108.653 380.145 111.803C381.703 114.954 383.834 119.6 384.915 122.146C385.996 124.692 387.714 129.052 388.731 131.852C389.749 134.653 391.212 139.077 392.007 141.718C392.802 144.328 393.82 147.86 394.233 149.515C394.678 151.17 395.569 154.83 396.173 157.63C396.809 160.431 397.668 164.95 398.113 167.655C398.558 170.36 399.194 175.102 399.544 178.157C399.894 181.212 400.307 186.367 400.498 189.613C400.657 192.859 400.816 197.792 400.816 200.593C400.816 203.393 400.657 208.262 400.498 211.413C400.307 214.563 399.862 219.719 399.512 222.87C399.162 226.02 398.463 231.048 397.954 234.008C397.477 236.968 396.618 241.423 396.078 243.874C395.505 246.324 394.487 250.461 393.788 253.103C393.056 255.712 391.657 260.39 390.639 263.445C389.622 266.501 387.841 271.465 386.664 274.425C385.487 277.384 383.452 282.126 382.18 284.927C380.876 287.727 378.618 292.246 377.155 294.951C375.692 297.656 373.466 301.603 372.194 303.703C370.922 305.803 368.283 309.877 366.343 312.773C364.403 315.669 361.318 319.965 359.473 322.352C357.629 324.739 354.576 328.558 352.636 330.785C350.728 333.045 346.721 337.373 343.731 340.428C340.774 343.451 336.544 347.557 334.35 349.498C332.155 351.471 329.102 354.144 327.512 355.449C325.922 356.754 322.71 359.268 320.357 361.018C318.003 362.801 313.933 365.665 311.293 367.415C308.685 369.165 304.551 371.775 302.166 373.175C299.749 374.607 295.297 377.058 292.307 378.617C289.286 380.177 284.738 382.404 282.194 383.518C279.65 384.632 275.134 386.478 272.177 387.623C269.219 388.769 264.926 390.328 262.636 391.06C260.346 391.792 256.212 393.033 253.413 393.797C250.615 394.561 246.035 395.707 243.237 396.311C240.438 396.916 236.018 397.743 233.378 398.189C230.77 398.603 226.827 399.176 224.632 399.462C222.438 399.717 218.654 400.13 216.205 400.353C213.565 400.576 207.141 400.767 200.463 400.767C193.784 400.767 187.36 400.576 184.721 400.353C182.272 400.13 178.042 399.653 175.339 399.335C172.636 398.985 168.343 398.348 165.798 397.903C163.254 397.457 158.961 396.598 156.258 395.993C153.555 395.388 148.625 394.115 145.286 393.161C141.947 392.206 137.526 390.838 135.427 390.106C133.328 389.374 129.258 387.846 126.364 386.7C123.47 385.555 118.827 383.55 116.028 382.277C113.23 380.972 108.714 378.713 106.01 377.249C103.307 375.785 99.3638 373.557 97.2649 372.284C95.1659 371.011 91.5087 368.688 89.1553 367.129C86.802 365.537 82.9221 362.801 80.5687 361.018C78.2154 359.268 75.0034 356.754 73.4133 355.449C71.8232 354.144 68.7702 351.471 66.5758 349.498C64.3815 347.557 60.1518 343.451 57.1942 340.428C54.2048 337.373 50.1977 333.045 48.2896 330.785C46.3497 328.558 43.2967 324.739 41.4521 322.352C39.6076 319.965 36.5228 315.669 34.5829 312.773C32.6429 309.877 30.0034 305.803 28.7313 303.703C27.4592 301.603 25.2331 297.656 23.7702 294.951C22.3073 292.246 20.0493 287.727 18.7454 284.927C17.4733 282.126 15.438 277.384 14.2613 274.425C13.0846 271.465 11.3037 266.501 10.2861 263.445C9.26839 260.39 7.86909 255.712 7.13764 253.103C6.438 250.461 5.42033 246.324 4.84789 243.874C4.30725 241.423 3.4486 236.968 2.97157 234.008C2.46273 231.048 1.76309 226.02 1.41326 222.87C1.06344 219.719 0.618209 214.563 0.427396 211.413C0.268386 208.262 0.109375 203.234 0.109375 200.274C0.109375 197.315 0.268386 192.414 0.427396 189.454C0.618209 186.495 0.968032 181.976 1.22245 179.43C1.50867 176.884 2.08111 172.46 2.52634 169.564C2.97157 166.668 3.83022 161.958 4.43446 159.062C5.07051 156.166 5.99277 152.156 6.5334 150.151C7.04224 148.146 8.12351 144.328 8.91856 141.718C9.71362 139.077 11.1765 134.653 12.1942 131.852C13.2118 129.052 14.9292 124.692 16.0104 122.146C17.0917 119.6 19.2225 114.954 20.7808 111.803C22.3391 108.653 24.915 103.784 26.5051 100.983C28.127 98.1825 30.9574 93.5998 32.7702 90.7993C34.6147 87.9988 37.5723 83.7661 39.3214 81.4111C41.0705 79.0562 43.7419 75.6191 45.2366 73.7733C46.7313 71.9275 49.18 69.0634 50.6429 67.4085C52.1058 65.7537 55.3179 62.3485 57.7984 59.8344C60.279 57.3202 64.127 53.5968 66.4168 51.5601C68.7066 49.4915 72.0458 46.5955 73.8903 45.0998C75.7348 43.604 79.1694 40.9308 81.5228 39.1805C83.8762 37.4301 88.1058 34.4705 90.9044 32.6565C93.703 30.8107 97.7737 28.2648 99.968 26.9918C102.162 25.7188 106.519 23.3639 109.668 21.7408C112.816 20.1496 116.982 18.1447 118.89 17.2854C120.798 16.458 124.456 14.9304 127 13.9439C129.544 12.9255 133.965 11.3025 136.858 10.3478C139.752 9.39304 144.173 8.0246 146.717 7.32447C149.261 6.62434 153.555 5.54232 156.258 4.90583C158.961 4.30117 163.699 3.34645 166.752 2.83726C169.805 2.29625 175.021 1.59612 178.36 1.21423Z" fill="#C90003"></path><path fill-rule="evenodd" clip-rule="evenodd" d="M154.668 22.8545C155.304 22.8545 155.781 23.1091 156.099 23.5864C156.481 24.1275 156.513 24.4775 156.258 25.1777C156.067 25.7505 155.654 26.1006 155.05 26.2279C154.509 26.3233 153.937 26.2279 153.46 25.9096C152.824 25.4323 152.506 25.4641 149.198 26.3233C147.226 26.8007 144.046 27.8509 142.138 28.6147C140.23 29.3784 138.608 30.2377 138.513 30.4923C138.417 30.7469 138.131 31.2243 137.845 31.5425C137.559 31.8607 137.05 32.0835 136.7 32.0835C136.35 32.0835 135.809 31.8289 135.491 31.5107C135.173 31.2243 134.919 30.6832 134.919 30.3332C134.919 29.9831 135.173 29.4421 135.491 29.1239C135.905 28.7101 136.35 28.5828 137.018 28.6783C137.686 28.8056 139.085 28.4237 141.629 27.4053C143.633 26.6097 147.004 25.5277 149.071 24.9867C151.583 24.3502 153.014 23.841 153.301 23.4273C153.555 23.1091 154.127 22.8545 154.668 22.8545ZM171.523 22.8545C172.096 22.8545 172.636 23.0773 172.891 23.4592C173.145 23.841 174.481 24.3502 177.089 24.9867C179.188 25.5277 182.559 26.6097 184.562 27.4053C187.106 28.4237 188.506 28.8056 189.173 28.6783C189.841 28.5828 190.286 28.7101 190.7 29.1239C191.018 29.4421 191.241 29.9831 191.241 30.3332C191.241 30.6832 190.986 31.2243 190.668 31.5425C190.382 31.8607 189.841 32.1153 189.491 32.1153C189.142 32.1153 188.633 31.8607 188.347 31.5425C188.06 31.2243 187.774 30.7469 187.679 30.4923C187.583 30.2377 186.025 29.4103 184.212 28.6783C182.4 27.9464 179.219 26.8962 177.184 26.387C173.718 25.4641 173.368 25.4323 172.732 25.9096C172.255 26.2279 171.682 26.3233 171.142 26.2279C170.633 26.1324 170.06 25.6868 169.87 25.2731C169.52 24.6048 169.551 24.3502 170.029 23.6819C170.41 23.1091 170.855 22.8545 171.523 22.8545V22.8545ZM162.46 29.2512C163.35 29.2512 165.64 29.3784 167.548 29.5376C169.456 29.7285 172.414 30.1741 174.067 30.5559C175.721 30.906 178.52 31.7016 180.269 32.3063C182.018 32.9109 184.689 34.0566 186.248 34.8204C187.774 35.5842 189.841 36.7298 190.859 37.3981C191.845 38.0346 193.53 39.2121 194.58 39.9759C195.629 40.7715 197.919 42.8083 199.668 44.5268C201.513 46.2771 203.23 47.6774 203.739 47.8046C204.279 47.9319 204.725 48.3138 204.915 48.8548C205.17 49.555 205.138 49.905 204.756 50.4461C204.438 50.934 203.961 51.178 203.325 51.178C202.657 51.178 202.244 50.9552 201.894 50.3824C201.64 49.9369 201.481 49.3322 201.576 49.014C201.703 48.6321 200.813 47.5501 198.332 45.1314C196.233 43.0947 193.53 40.867 191.4 39.4349C189.491 38.1619 186.629 36.4752 185.039 35.7115C183.449 34.9795 180.682 33.8657 178.838 33.2292C176.993 32.6245 174.226 31.8926 172.636 31.5425C170.41 31.097 168.311 30.9697 163.096 30.9697C157.88 30.9697 155.781 31.097 153.555 31.5425C151.965 31.8607 149.325 32.5609 147.672 33.1019C146.018 33.6429 143.378 34.6613 141.788 35.425C140.198 36.157 137.908 37.3663 136.7 38.1301C135.491 38.8621 133.329 40.3896 131.93 41.4716C130.53 42.5855 128.304 44.5904 126.937 45.9907C125.156 47.8046 124.52 48.6957 124.551 49.2686C124.583 49.7141 124.361 50.3188 124.138 50.637C123.884 50.9552 123.279 51.2098 122.802 51.178C122.23 51.178 121.721 50.8916 121.371 50.3506C120.894 49.6823 120.862 49.4277 121.212 48.7594C121.403 48.3457 121.976 47.9001 122.484 47.8046C122.961 47.6774 124.838 46.1498 126.841 44.2085C128.781 42.3627 131.643 39.9441 133.202 38.8302C134.792 37.7164 137.559 36.0615 139.403 35.1068C141.248 34.1839 144.173 32.9109 145.923 32.3063C147.672 31.7016 150.534 30.906 152.283 30.5241C154.032 30.1422 156.672 29.6967 158.166 29.5694C159.661 29.4103 161.601 29.283 162.46 29.2512V29.2512ZM153.555 34.6294C153.809 34.6294 154.255 34.7249 154.573 34.8522C154.859 35.0113 155.209 35.4569 155.368 35.9024C155.559 36.4752 155.495 36.9208 155.145 37.3981C154.859 37.8755 154.35 38.1301 153.809 38.1301C153.301 38.1301 152.728 37.971 152.537 37.7482C152.219 37.3981 151.615 37.4936 149.516 38.1937C148.053 38.6711 145.127 39.9123 142.997 40.9624C140.23 42.3309 139.085 43.0628 139.085 43.4447C139.085 43.763 138.831 44.2722 138.513 44.5904C138.226 44.9086 137.622 45.1632 137.177 45.1314C136.732 45.1314 136.191 44.9723 135.968 44.7495C135.746 44.5268 135.587 43.9857 135.587 43.5402C135.555 43.0947 135.873 42.4582 136.223 42.1081C136.636 41.6944 137.082 41.5671 137.431 41.6944C137.781 41.8217 139.276 41.2489 141.629 40.0714C143.633 39.0848 146.718 37.78 148.467 37.2072C150.407 36.5707 151.933 35.8706 152.347 35.3932C152.728 34.9795 153.269 34.6294 153.555 34.6294ZM172.318 34.6294C172.573 34.6294 173.082 34.7886 173.431 34.9477C173.781 35.1068 174.067 35.4887 174.067 35.7433C174.067 36.0615 174.608 36.3479 175.594 36.5707C176.421 36.7617 178.52 37.4618 180.269 38.1619C182.018 38.8302 184.403 39.9759 185.612 40.676C187.233 41.6308 187.965 41.9172 188.633 41.7581C189.237 41.6308 189.65 41.7581 190.064 42.1718C190.382 42.49 190.636 43.0947 190.604 43.5402C190.604 43.9857 190.445 44.5268 190.223 44.7177C190 44.9405 189.491 45.1314 189.014 45.1314C188.569 45.1314 187.965 44.8768 187.647 44.5586C187.329 44.2722 187.074 43.763 187.106 43.4447C187.106 43.0628 185.993 42.3627 183.226 40.9624C181.064 39.9123 178.106 38.6711 176.612 38.2574C174.703 37.6846 173.813 37.5573 173.59 37.78C173.431 37.971 172.891 38.1301 172.414 38.1301C171.841 38.1301 171.364 37.8755 171.046 37.3981C170.792 37.0163 170.569 36.5071 170.569 36.2843C170.569 36.0934 170.855 35.616 171.205 35.2659C171.555 34.9159 172.064 34.6294 172.318 34.6294ZM124.392 37.1754C124.87 37.1435 125.474 37.3981 125.728 37.7164C125.951 38.0346 126.173 38.6393 126.142 39.0848C126.11 39.5304 125.855 40.0714 125.506 40.2941C125.188 40.5169 124.583 40.676 124.138 40.676C123.534 40.6442 122.866 41.1852 121.435 42.7764C120.385 43.9539 118.891 45.7361 116.665 48.6003L117.428 58.9749L116.029 62.4756C115.265 64.385 114.279 67.472 113.834 69.3178C113.389 71.1636 112.88 73.8686 112.689 75.3644C112.53 76.8601 112.371 78.6741 112.371 80.7745H116.506V79.0878C116.506 78.1967 116.728 76.0645 116.983 74.4097C117.269 72.7548 117.778 70.3043 118.159 68.9995C118.509 67.6948 119.368 65.2443 120.067 63.5894C120.735 61.9346 121.88 59.5796 122.612 58.3385C123.502 56.8745 123.915 55.7925 123.884 55.156C123.852 54.615 124.043 53.9467 124.392 53.6285C124.679 53.3102 125.219 53.0875 125.569 53.0875C125.919 53.0875 126.46 53.3421 126.778 53.6603C127.096 53.9467 127.35 54.5195 127.318 54.9014C127.318 55.3152 127.096 55.8562 126.809 56.1108C126.555 56.3654 126.078 56.5881 125.792 56.5881C125.506 56.5881 124.87 57.1928 124.424 57.9566C123.947 58.6885 123.057 60.2797 122.453 61.5209C121.848 62.762 120.894 65.0215 120.354 66.6127C119.781 68.2039 119.05 70.8454 118.732 72.5002C118.382 74.1551 118 76.701 117.619 80.7745H121.276V77.1147L128.113 74.8552L129.513 69.7952L127.668 67.7266C126.65 66.5809 125.569 65.4352 125.283 65.1806C124.997 64.9261 124.742 64.5123 124.774 64.2896C124.774 64.0986 125.728 62.2846 128.972 56.7472L136.223 58.1793L139.88 54.615L139.085 50.9871C138.64 49.014 138.354 47.3273 138.449 47.2636C138.544 47.2 140.135 46.2771 142.011 45.1951C143.919 44.113 145.573 43.1901 145.732 43.1265C145.891 43.0947 147.195 44.1449 151.329 47.9319L156.354 46.5635L158.707 39.5622H167.484L169.774 46.5635L174.862 47.9001L177.534 45.4815C178.997 44.1449 180.269 43.0947 180.396 43.1265C180.491 43.1583 182.145 44.0812 184.053 45.1951C185.961 46.2771 187.583 47.2955 187.615 47.4228C187.679 47.5819 187.424 49.2367 186.311 54.6787L189.809 58.243L193.149 57.511C194.993 57.1291 196.71 56.9064 196.965 56.97C197.219 57.0655 198.364 58.7522 201.576 64.2577L200.94 65.0215C200.59 65.4352 199.477 66.7082 196.647 69.9543L197.283 72.2456C197.633 73.5186 198.046 74.6643 198.173 74.7597C198.301 74.887 199.859 75.4599 204.915 77.1147V80.7745H208.414L208.223 78.1331C208.127 76.701 207.841 74.537 207.619 73.2958C207.396 72.0547 207.046 70.4635 206.855 69.6997C206.537 68.4904 206.442 68.3631 205.615 68.4904C205.138 68.5858 204.502 68.7131 204.184 68.8086C203.898 68.9041 203.643 68.9041 203.643 68.745C203.643 68.6177 204.152 68.2358 204.756 67.8857C205.392 67.5356 205.87 67.0265 205.87 66.7719C205.87 66.5173 205.361 65.1488 204.756 63.7486C204.12 62.3483 203.039 60.1524 202.276 58.8795C201.322 57.2246 200.749 56.5881 200.304 56.5881C199.954 56.5881 199.477 56.429 199.255 56.2062C199.032 55.9835 198.873 55.4106 198.873 54.9014C198.873 54.4241 199.096 53.8194 199.382 53.5648C199.636 53.3102 200.209 53.0875 200.654 53.0875C201.163 53.0875 201.608 53.4057 201.926 53.9467C202.244 54.4559 202.371 55.1242 202.276 55.4743C202.18 55.8243 202.212 56.2699 202.371 56.429C202.498 56.5881 203.166 57.6701 203.802 58.8158C204.438 59.9615 205.488 62.0937 206.092 63.5894C206.696 65.0852 207.269 66.3263 207.332 66.3581C207.396 66.4218 208.223 66.0717 209.113 65.6262C210.036 65.1488 210.831 64.7351 210.862 64.6715C210.926 64.6078 210.449 63.3667 208.7 59.2932L209.527 48.6957L208.636 47.4864C208.159 46.7863 206.665 45.0041 205.297 43.4447C203.58 41.5035 202.626 40.676 202.117 40.676C201.735 40.676 201.195 40.5806 200.877 40.4214C200.59 40.2941 200.241 39.8486 200.082 39.4031C199.891 38.8302 199.954 38.3847 200.304 37.8755C200.622 37.4087 201.099 37.1754 201.735 37.1754C202.403 37.1754 202.816 37.3981 203.166 37.971C203.421 38.4165 203.58 38.9575 203.548 39.1485C203.484 39.3712 204.597 40.8033 205.997 42.2991C207.428 43.7948 209.113 45.7997 210.926 48.473L210.099 58.9749L211.085 61.3617C211.626 62.6665 212.166 63.7804 212.325 63.8122C212.453 63.8759 214.361 63.2075 216.587 62.3483C218.845 61.489 222.248 60.3434 224.156 59.8024C226.064 59.2295 229.721 58.3703 232.265 57.8611C234.809 57.3519 238.657 56.6836 240.852 56.429C243.046 56.1426 248.039 55.8243 251.983 55.7289C256.339 55.6016 261.205 55.697 264.385 55.9198C267.279 56.1426 272.145 56.6518 275.198 57.0973C278.251 57.5428 282.831 58.3384 285.375 58.8476C287.919 59.3568 291.831 60.2797 294.12 60.8844C296.41 61.489 300.099 62.6029 302.389 63.3985C304.679 64.1623 307.732 65.3398 309.226 65.9763C310.721 66.6127 313.583 67.9812 315.587 69.0314C317.59 70.1134 320.675 71.8955 322.424 73.0412C324.173 74.1869 326.686 75.969 327.99 76.9556C329.294 77.9421 331.806 80.0744 333.555 81.6337C335.304 83.225 337.944 85.8982 339.438 87.5849C340.933 89.3034 343.127 92.0084 344.304 93.5996C345.513 95.2227 347.294 97.8004 348.279 99.3916C349.233 100.983 350.951 103.974 352.032 106.075C353.145 108.175 354.703 111.485 355.498 113.394C356.325 115.304 357.534 118.486 358.17 120.396C358.838 122.305 359.824 125.487 360.396 127.397C360.937 129.306 361.795 132.902 362.304 135.353C362.845 137.803 363.544 141.813 363.894 144.264C364.244 146.714 364.785 151.138 365.039 154.129C365.325 157.121 365.771 160.462 366.057 161.608C366.343 162.754 367.074 164.886 367.71 166.382C368.315 167.877 369.905 170.869 371.241 173.065C372.544 175.26 374.93 178.825 376.488 180.989C378.046 183.153 381.195 187.226 383.453 190.059C385.71 192.859 388.032 195.978 388.668 196.933C389.272 197.887 389.972 199.256 390.226 199.956C390.481 200.688 390.608 201.77 390.513 202.502C390.417 203.234 389.877 204.38 389.272 205.207C388.7 206.003 386.792 207.689 385.043 208.994C383.325 210.299 380.972 212.24 379.859 213.29C378.778 214.372 377.569 215.773 377.251 216.409C376.933 217.077 376.647 218.159 376.647 218.796C376.647 219.719 377.06 220.705 378.428 222.869C379.445 224.461 380.368 226.147 380.527 226.688C380.654 227.229 380.718 227.993 380.622 228.439C380.527 228.884 379.795 229.934 378.968 230.762C378.11 231.621 376.233 233.117 374.739 234.103C373.244 235.09 372.004 235.886 371.972 235.886C371.94 235.917 373.021 237.063 374.389 238.463C375.756 239.864 377.188 241.614 377.537 242.346C377.919 243.11 378.237 244.319 378.237 245.051C378.269 246.133 378.014 246.769 377.124 248.011C376.52 248.87 375.566 250.238 375.057 251.034C374.516 251.829 373.88 253.421 373.626 254.598C373.371 255.807 373.149 257.653 373.149 258.735C373.149 259.849 373.435 262.872 373.785 265.514C374.135 268.123 374.421 271.656 374.421 273.311C374.421 275.252 374.262 276.843 373.944 277.766C373.658 278.562 373.085 279.676 372.64 280.217C372.226 280.821 371.018 281.681 369.873 282.222C368.792 282.763 366.979 283.335 365.834 283.495C364.689 283.654 361.318 283.94 358.361 284.131C355.403 284.322 351.555 284.672 349.838 284.927C348.152 285.181 345.354 285.69 343.636 286.072C341.951 286.422 338.612 287.377 336.258 288.141C333.905 288.936 330.375 290.369 328.467 291.323C326.559 292.278 323.601 294.028 321.979 295.206C320.325 296.383 317.749 298.547 316.223 300.043C314.728 301.539 312.566 304.18 311.389 305.931C310.212 307.681 308.686 310.322 308.018 311.818C307.318 313.314 306.301 315.955 305.792 317.705C305.251 319.456 304.583 321.97 304.329 323.275C304.074 324.58 303.693 327.253 303.47 329.162C303.248 331.326 303.152 334.922 303.279 338.55C303.375 341.796 303.502 344.661 303.566 344.915C303.661 345.329 297.428 345.424 249.597 345.552C206.665 345.679 195.216 345.615 193.944 345.297C193.053 345.074 192.322 344.883 192.258 344.82C192.195 344.788 198.968 318.915 207.301 287.313C215.633 255.712 222.407 229.871 222.343 229.839C222.279 229.839 221.675 229.489 220.976 229.075C220.276 228.661 219.067 227.707 216.841 225.511L185.675 244.096L185.802 245.115C185.866 245.656 186.184 246.451 186.534 246.897C186.884 247.374 187.138 248.201 187.106 248.87C187.106 249.538 186.915 250.461 186.661 250.938C186.407 251.448 185.198 252.848 181.763 256.285L183.608 259.785C184.626 261.695 185.898 264.559 186.438 266.15C186.979 267.742 187.551 269.619 188.06 271.72L196.011 271.879L198.078 273.947L198.205 279.93C198.301 284.863 198.205 286.072 197.792 286.995C197.506 287.6 196.965 288.332 196.583 288.586C196.106 288.905 194.707 289.127 189.173 289.382L189.014 290.814C188.919 291.61 188.665 292.533 188.474 292.883C188.315 293.233 187.774 293.806 187.329 294.156C186.884 294.506 186.311 295.365 186.057 296.065C185.802 296.765 185.262 298.006 184.912 298.834C184.53 299.693 184.149 300.361 183.99 300.361C183.862 300.361 182.209 298.834 176.866 293.519L177.534 291.451C177.915 290.305 178.424 288.268 178.679 286.9C178.965 285.499 179.156 282.699 179.156 280.376C179.156 277.671 178.965 275.379 178.551 273.47C178.233 271.879 177.502 269.46 176.993 268.06C176.453 266.66 175.244 264.241 174.322 262.681C173.368 261.122 171.491 258.64 170.06 257.112C168.629 255.617 166.594 253.739 165.513 252.943C164.463 252.148 162.396 250.875 158.294 248.647L159.502 244.192C160.17 241.741 160.806 239.673 160.901 239.577C160.997 239.482 162.905 240.341 169.265 243.555L171.428 241.391C172.604 240.182 173.972 239.004 174.449 238.75C174.99 238.495 176.294 238.304 177.788 238.304C179.824 238.304 180.523 238.431 183.29 239.895L198.301 230.921C206.569 225.988 213.502 221.819 213.725 221.628C214.043 221.342 214.011 220.896 213.661 219.528C213.407 218.573 213.184 216.664 213.184 215.295C213.184 213.227 213.089 212.813 212.612 212.718C212.325 212.654 201.226 209.567 163.891 199.16L162.364 199.861C161.251 200.402 160.297 200.593 158.643 200.593C156.767 200.593 156.131 200.433 154.7 199.638C153.523 198.969 152.665 198.174 151.933 197.092C150.947 195.596 150.756 195.469 148.403 194.801C147.036 194.387 145.763 194.069 145.604 194.069C145.445 194.069 145.096 194.673 144.841 195.405C144.619 196.169 144.014 197.569 143.537 198.524C143.06 199.479 141.947 201.165 141.025 202.247C140.135 203.361 138.64 204.825 136.064 206.766L47.4949 206.798L45.1734 205.621C43.5833 204.761 42.0568 203.616 40.1487 201.706C38.5267 200.115 36.873 198.078 36.1098 196.774C35.4101 195.564 34.4243 193.4 33.9472 192C33.2476 189.931 33.0568 188.722 32.9296 185.476C32.8024 182.135 32.8978 181.052 33.4702 178.793C33.8518 177.297 34.6469 175.006 35.2829 173.701C35.8872 172.396 37.2229 170.264 38.2087 168.959C39.1946 167.655 40.9437 165.841 42.0886 164.949C43.2335 164.027 44.7918 162.881 45.5868 162.404C46.3819 161.894 47.7812 161.194 50.4207 160.176L51.025 157.789C51.343 156.484 52.2017 154.257 52.8695 152.856C53.5692 151.456 54.9048 149.387 55.8589 148.242C56.813 147.096 58.6257 145.346 59.9296 144.359C61.2335 143.373 63.3006 142.068 64.5091 141.431C65.7176 140.827 67.6257 140.031 68.707 139.681C69.82 139.299 71.9508 138.79 73.4773 138.535C75.0356 138.281 77.0391 138.058 77.9296 138.058C78.8518 138.058 80.7282 138.217 82.0639 138.408C83.4313 138.599 85.6893 139.14 87.0886 139.617C88.4879 140.063 90.714 141.081 92.0179 141.877C93.3218 142.641 95.5798 144.391 99.6504 148.242L101.94 147.669C103.594 147.287 105.438 147.128 108.396 147.16C111.926 147.192 112.944 147.319 115.392 148.051C116.983 148.528 119.336 149.483 120.64 150.151C121.944 150.851 123.979 152.188 125.156 153.174C126.364 154.129 128.113 155.88 129.067 157.057C130.053 158.266 131.389 160.303 132.057 161.608C132.725 162.913 133.583 164.918 133.933 166.063C134.283 167.209 134.665 168.482 134.728 168.927C134.855 169.437 135.65 170.296 137.082 171.314C138.258 172.205 140.007 173.828 140.898 174.91C141.82 175.992 143.092 177.934 143.696 179.175C144.269 180.448 145.032 182.548 145.923 186.144L151.806 188.022L152.665 187.004C153.173 186.463 154.255 185.667 155.145 185.253C156.226 184.744 157.339 184.521 158.643 184.521C159.693 184.521 161.092 184.712 161.728 184.999C162.396 185.253 163.445 185.953 164.113 186.494C164.749 187.067 165.608 188.245 166.021 189.136C166.403 189.995 166.753 191.141 166.753 192.636L185.58 198.81C195.947 202.216 206.76 205.748 214.774 208.389L215.951 206.575C216.619 205.589 217.795 204.284 218.59 203.648C219.385 203.043 220.117 202.47 220.276 202.375C220.403 202.247 215.537 190.441 198.396 149.992L196.647 149.769C195.502 149.61 194.453 149.228 192.354 147.733L176.771 155.116C161.41 162.372 161.188 162.467 160.901 163.549C160.774 164.154 160.392 164.981 160.106 165.395C159.82 165.809 159.057 166.413 158.389 166.732C157.753 167.082 156.608 167.336 155.845 167.336C154.986 167.336 154.127 167.113 153.428 166.636C152.824 166.222 152.029 165.49 151.679 165.013C151.17 164.345 151.011 163.645 151.011 162.244C151.011 160.844 151.17 160.144 151.679 159.476C152.029 158.998 152.824 158.266 153.428 157.853C154.127 157.375 154.986 157.153 155.845 157.153C156.608 157.153 157.626 157.375 158.166 157.63C159.12 158.107 159.279 158.044 174.608 150.756C183.163 146.746 190.159 143.404 190.159 143.373C190.191 143.341 190.286 142.704 190.604 140.604L183.449 136.149L181.541 136.817C180.491 137.167 178.202 137.803 176.453 138.249C174.226 138.79 173.145 139.236 172.859 139.649C172.636 140.063 172.127 140.286 171.523 140.286C170.855 140.286 170.41 140.031 169.997 139.458C169.52 138.694 169.488 138.535 169.933 137.772C170.219 137.326 170.792 136.912 171.205 136.849C171.65 136.785 172.286 136.912 172.636 137.103C173.113 137.422 173.718 137.422 175.18 137.135C176.23 136.944 178.138 136.467 179.41 136.053C180.682 135.671 181.732 135.289 181.732 135.194C181.732 135.098 180.65 134.366 176.93 132.011L173.336 132.712C170.283 133.348 168.788 133.444 162.937 133.444C157.117 133.444 155.622 133.316 152.919 132.743C151.17 132.361 148.371 131.598 146.718 131.057C145.064 130.516 141.979 129.211 139.88 128.161C137.781 127.11 134.728 125.297 133.074 124.119C131.421 122.942 128.559 120.555 126.714 118.773C124.806 116.959 122.961 115.463 122.453 115.367C121.912 115.208 121.467 114.826 121.276 114.254C121.021 113.585 121.053 113.235 121.435 112.662C121.753 112.196 122.23 111.962 122.866 111.962C123.502 111.962 123.979 112.196 124.297 112.662C124.551 113.076 124.679 113.681 124.583 114.031C124.456 114.508 125.092 115.336 127.223 117.436C128.749 118.932 131.389 121.191 133.043 122.432C134.696 123.673 137.718 125.551 139.721 126.569C141.725 127.62 144.873 128.988 146.718 129.593C148.562 130.229 151.647 131.089 153.555 131.47C156.417 132.043 158.135 132.171 162.937 132.171C167.262 132.171 169.647 132.011 172 131.598C174.672 131.089 175.117 130.929 174.703 130.611C174.449 130.357 172.445 129.052 170.251 127.652C166.53 125.265 166.212 125.137 165.481 125.519C165.036 125.742 163.827 125.933 162.778 125.933C161.347 125.965 160.551 125.774 159.597 125.201C158.866 124.756 157.976 123.833 157.53 123.069C156.862 121.923 156.735 121.255 156.735 119.218C156.735 117.881 156.672 116.704 156.576 116.609C156.481 116.513 155.304 116.131 151.488 115.145L149.739 116.64C148.753 117.5 147.513 118.582 145.923 119.982L142.17 117.786C140.103 116.609 138.417 115.463 138.417 115.304C138.449 115.145 138.767 113.522 139.88 108.462L136.064 104.706L132.725 105.47C130.88 105.884 129.29 106.202 129.131 106.234C129.004 106.234 127.986 104.611 126.841 102.638C125.728 100.696 124.774 98.9143 124.774 98.7552C124.774 98.596 125.855 97.2594 127.159 95.7955C128.813 93.9815 129.481 93.0268 129.354 92.6131C129.258 92.3267 128.972 91.2128 128.272 88.2532L121.435 85.9937L121.276 82.0475H117.619L117.873 84.8162C118 86.3755 118.414 88.9851 118.732 90.64C119.082 92.2948 119.781 94.9363 120.354 96.5275C120.894 98.1187 121.912 100.474 122.58 101.778C123.248 103.083 124.106 104.674 124.52 105.279C124.933 105.884 125.537 106.457 125.887 106.488C126.237 106.552 126.714 106.775 126.937 106.966C127.159 107.189 127.35 107.73 127.318 108.207C127.318 108.801 127.053 109.257 126.523 109.575C126.078 109.83 125.442 109.989 125.092 109.894C124.742 109.798 124.297 109.416 124.106 109.003C123.915 108.621 123.82 108.016 123.915 107.666C124.011 107.316 123.852 106.679 123.502 106.234C123.184 105.788 122.294 104.165 121.498 102.574C120.703 100.983 119.527 98.2141 118.923 96.3683C118.318 94.5225 117.587 91.913 117.332 90.5445C117.046 89.2079 116.728 86.7893 116.347 82.3657H112.371V83.7023C112.371 84.4661 112.53 86.3437 112.721 87.9349C112.912 89.5261 113.484 92.3903 113.961 94.2998C114.47 96.2092 115.456 99.1689 117.46 103.847L116.665 114.54L118.35 116.672C119.272 117.85 120.862 119.632 121.848 120.65C123.12 121.923 123.884 122.464 124.456 122.464C124.901 122.432 125.474 122.687 125.728 123.005C125.951 123.323 126.173 123.928 126.142 124.374C126.11 124.819 125.855 125.36 125.506 125.583C125.188 125.806 124.615 125.965 124.202 125.965C123.788 125.965 123.311 125.647 123.025 125.169C122.771 124.724 122.612 124.183 122.675 123.96C122.771 123.769 122.166 122.942 121.371 122.146C120.576 121.35 119.113 119.695 118.127 118.486C117.11 117.245 116.06 115.908 115.774 115.463C115.297 114.731 115.297 114.158 116.06 104.165L114.82 101.142C114.152 99.4871 113.198 96.5275 112.689 94.618C112.18 92.7086 111.64 90.0035 111.449 88.6351C111.258 87.2985 111.099 85.3254 111.099 82.3657H106.329V84.1797C106.329 85.1981 106.488 87.2348 106.647 88.7305C106.838 90.2263 107.283 92.6767 107.601 94.2043C107.951 95.7637 108.396 97.0048 108.555 97.0048C108.714 97.0048 109.096 97.2276 109.35 97.4822C109.604 97.7368 109.827 98.3414 109.827 98.8188C109.827 99.328 109.668 99.9008 109.445 100.092C109.223 100.315 108.65 100.505 108.173 100.505C107.569 100.505 107.124 100.251 106.806 99.7099C106.456 99.1052 106.392 98.7233 106.647 98.0232C106.901 97.3867 106.838 96.5275 106.361 94.4589C106.011 92.9632 105.597 90.6082 105.407 89.2079C105.216 87.8076 104.993 85.7072 104.739 82.3657H102.894C101.622 82.3339 100.923 82.493 100.604 82.8431C100.35 83.1295 99.7776 83.3523 99.3324 83.3523C98.8872 83.3204 98.3465 83.1613 98.1239 82.9385C97.9013 82.7158 97.7423 82.1429 97.7423 81.6337C97.7423 81.0609 98.0285 80.5835 98.5691 80.2017C99.237 79.7561 99.4914 79.7243 100.159 80.0425C100.573 80.2653 100.923 80.6154 100.923 80.7745C100.923 80.9654 101.781 81.0927 102.831 81.0927C104.135 81.0927 104.739 80.9654 104.739 80.679C104.739 80.4881 104.898 78.6423 105.089 76.6374C105.279 74.6324 105.756 71.3227 106.17 69.3178C106.742 66.5809 106.838 65.4989 106.583 65.0215C106.424 64.6715 106.361 64.0668 106.456 63.6531C106.551 63.2712 107.029 62.7938 107.506 62.6347C108.205 62.3801 108.555 62.4119 109.096 62.7938C109.583 63.1121 109.827 63.5894 109.827 64.2259C109.827 64.8942 109.573 65.3398 109.032 65.7217C108.396 66.1672 108.078 66.8355 107.601 68.9995C107.283 70.4953 106.838 72.8184 106.679 74.1551C106.488 75.5235 106.329 77.5603 106.329 80.7745H111.099V78.7696C111.099 77.6875 111.258 75.7781 111.417 74.5688C111.608 73.3276 112.117 70.8454 112.562 68.9995C112.976 67.1537 113.961 64.1623 116.06 58.9749L115.233 48.3138L116.728 46.3407C117.587 45.2269 119.209 43.2538 120.417 41.949C121.594 40.6442 122.548 39.3394 122.516 39.0848C122.484 38.7984 122.707 38.2574 123.025 37.8755C123.311 37.4618 123.884 37.1754 124.392 37.1754V37.1754ZM137.654 117.881C138.004 117.977 138.481 118.295 138.703 118.613C138.926 118.9 139.085 119.377 139.085 119.664C139.085 120.077 140.198 120.777 142.965 122.114C145.127 123.164 148.053 124.374 149.484 124.819C151.901 125.583 152.188 125.615 152.919 125.169C153.491 124.819 153.873 124.787 154.35 125.01C154.7 125.169 155.145 125.615 155.304 125.965C155.516 126.389 155.516 126.813 155.304 127.238C155.145 127.588 154.7 128.033 154.35 128.193C153.873 128.415 153.491 128.383 152.919 128.033C152.474 127.779 152.124 127.461 152.124 127.301C152.124 127.174 150.756 126.633 149.039 126.06C147.322 125.519 144.142 124.183 141.947 123.101C139.753 122.019 137.749 121.223 137.495 121.318C137.241 121.446 136.7 121.287 136.286 121.032C135.841 120.746 135.555 120.205 135.555 119.632C135.523 118.964 135.714 118.55 136.255 118.2C136.668 117.913 137.272 117.786 137.654 117.881V117.881ZM136.541 131.057C137.082 131.057 137.718 131.279 137.972 131.534C138.226 131.789 138.449 132.202 138.449 132.393C138.417 132.616 139.403 133.253 140.58 133.794C141.756 134.335 144.11 135.226 145.763 135.767C147.417 136.308 149.675 136.912 150.788 137.167C152.378 137.485 152.887 137.517 153.396 137.167C153.746 136.976 154.35 136.785 154.732 136.785C155.145 136.753 155.686 137.008 155.94 137.326C156.163 137.644 156.385 138.185 156.385 138.535C156.385 138.885 156.163 139.426 155.94 139.745C155.686 140.063 155.082 140.318 154.573 140.286C154.064 140.286 153.555 140.031 153.301 139.649C153.046 139.236 151.965 138.79 149.739 138.249C147.99 137.803 145.541 137.103 144.332 136.69C143.124 136.276 141.184 135.512 140.039 135.067C138.608 134.462 137.686 134.271 137.018 134.398C136.318 134.526 135.905 134.43 135.491 134.016C135.173 133.698 134.919 133.189 134.919 132.871C134.887 132.552 135.046 132.011 135.237 131.661C135.46 131.279 135.937 131.057 136.541 131.057ZM151.488 227.325L152.506 228.375C153.523 229.362 153.555 229.521 153.809 235.281L152.887 235.026C152.378 234.867 150.375 234.613 148.467 234.453C146.145 234.263 143.696 234.263 141.152 234.485C139.053 234.676 136.986 234.931 135.746 235.249L135.937 232.703C136.064 231.335 136.382 229.712 136.668 229.139C136.954 228.598 137.559 227.898 138.036 227.643C138.767 227.261 140.135 227.198 151.488 227.325V227.325ZM144.491 236.458C145.286 236.427 147.29 236.554 148.944 236.713C150.597 236.904 152.76 237.19 153.714 237.381C154.668 237.54 155.654 237.795 155.877 237.922C156.226 238.113 156.067 239.068 155.113 242.6C154.477 245.051 153.937 247.088 153.905 247.119C153.873 247.151 152.76 246.992 151.392 246.738C150.025 246.451 147.131 246.26 144.809 246.26C142.297 246.26 139.721 246.451 138.195 246.769C136.859 247.056 134.728 247.629 133.52 248.042C132.311 248.488 130.149 249.443 128.749 250.175C127.35 250.938 125.283 252.243 124.138 253.102C122.993 253.993 121.244 255.553 120.195 256.603C119.177 257.653 117.714 259.372 116.983 260.422C116.219 261.472 115.011 263.541 114.248 265.036C113.516 266.532 112.657 268.442 112.371 269.333C112.053 270.192 111.544 272.133 111.258 273.629C110.845 275.443 110.686 277.671 110.686 280.471C110.686 282.763 110.845 285.531 111.067 286.677C111.29 287.823 111.544 288.905 111.608 289.064C111.703 289.223 109.795 289.923 107.378 290.623C104.961 291.291 102.799 291.769 102.576 291.641C102.385 291.546 101.94 290.05 101.622 288.332C101.272 286.231 101.082 283.685 101.113 280.312C101.113 276.907 101.304 274.488 101.686 272.515C102.004 270.924 102.672 268.378 103.212 266.787C103.721 265.196 104.643 262.841 105.248 261.536C105.852 260.231 107.315 257.717 108.491 255.967C109.795 253.993 111.862 251.511 113.961 249.443C115.806 247.565 118.509 245.274 120.004 244.287C121.498 243.301 123.852 241.9 125.251 241.2C126.65 240.468 129.29 239.386 131.135 238.813C132.979 238.209 135.269 237.572 136.223 237.381C137.177 237.19 139.117 236.904 140.516 236.745C141.915 236.586 143.696 236.458 144.491 236.458V236.458ZM113.389 238.304C114.057 238.304 114.979 238.495 115.456 238.75C115.965 239.004 116.983 239.864 117.778 240.691C119.145 242.091 119.177 242.187 118.573 242.537C118.223 242.728 116.919 243.714 115.71 244.701C114.502 245.719 112.753 247.279 111.862 248.233C110.972 249.156 109.604 250.716 108.809 251.67C108.046 252.625 107.251 253.707 107.06 254.057C106.71 254.662 106.583 254.598 105.025 253.102C104.135 252.211 103.212 251.034 102.958 250.461C102.672 249.825 102.576 248.997 102.735 248.233C102.894 247.279 103.626 246.356 106.615 243.269C108.65 241.2 110.718 239.227 111.258 238.909C111.799 238.559 112.753 238.304 113.389 238.304V238.304ZM144.491 252.975C146.336 252.943 148.689 253.102 149.739 253.293C150.788 253.484 151.742 253.739 151.87 253.834C151.965 253.962 151.52 256.062 150.852 258.513C149.993 261.727 149.548 262.936 149.23 262.841C148.976 262.777 147.513 262.65 145.923 262.586C144.173 262.491 142.297 262.586 141.152 262.809C140.103 263.032 138.099 263.795 136.7 264.495C134.951 265.387 133.52 266.437 132.089 267.869C130.657 269.333 129.64 270.701 128.845 272.356C128.209 273.661 127.509 275.538 127.318 276.493C127.064 277.543 126.968 279.644 127.159 285.34L122.771 286.486C120.385 287.122 118.35 287.632 118.255 287.632C118.159 287.632 117.937 286.677 117.714 285.468C117.523 284.29 117.364 281.903 117.364 280.153C117.396 278.053 117.619 276.016 118.064 274.106C118.445 272.515 119.272 270.16 119.877 268.855C120.513 267.551 121.626 265.609 122.389 264.559C123.12 263.509 124.742 261.695 125.919 260.549C127.127 259.404 129.036 257.844 130.18 257.112C131.325 256.38 133.392 255.33 134.792 254.821C136.191 254.28 138.195 253.643 139.244 253.421C140.294 253.198 142.647 253.007 144.491 252.975V252.975ZM201.163 257.717C201.481 257.717 202.244 257.94 202.848 258.194C203.453 258.449 204.248 259.149 204.597 259.69C204.947 260.263 205.233 261.249 205.233 261.854C205.233 262.459 204.947 263.445 204.597 263.986C204.248 264.559 203.484 265.259 202.912 265.546C202.233 265.885 201.47 266.002 200.622 265.896C199.7 265.768 199.064 265.387 198.301 264.591C197.474 263.636 197.283 263.191 197.283 261.918C197.251 260.931 197.474 260.104 197.887 259.499C198.237 259.022 199 258.417 199.573 258.162C200.145 257.94 200.877 257.749 201.163 257.717ZM145.445 265.8C147.672 265.864 148.944 266.087 150.375 266.628C151.424 267.041 153.046 267.964 153.937 268.696C154.859 269.396 156.195 270.765 156.926 271.72C157.626 272.674 158.516 274.265 158.866 275.22C159.279 276.334 159.597 278.021 159.82 282.699L173.113 296.065C180.428 303.416 186.566 309.749 186.756 310.131C186.947 310.545 187.106 311.404 187.106 312.041C187.106 312.868 186.852 313.632 186.184 314.523C185.675 315.223 183.862 317.196 182.145 318.883C180.396 320.602 178.456 322.193 177.788 322.479C176.898 322.829 176.325 322.893 175.403 322.638C174.449 322.384 171.873 319.965 147.195 295.301H144.809C143.378 295.301 141.661 295.079 140.516 294.728C139.467 294.41 137.877 293.678 137.018 293.137C136.127 292.596 134.855 291.514 134.124 290.75C133.424 290.018 132.47 288.745 132.025 287.95C131.548 287.154 130.944 285.659 130.626 284.608C130.339 283.558 130.053 281.617 130.053 280.248C130.021 278.912 130.117 277.703 130.244 277.543C130.403 277.416 132.756 279.516 135.491 282.253C140.039 286.741 140.675 287.282 142.265 287.759C143.219 288.045 144.364 288.268 144.809 288.268C145.255 288.268 146.113 288.141 146.718 287.95C147.322 287.791 148.467 287.25 149.262 286.741C150.248 286.104 150.979 285.308 151.615 284.099C152.283 282.826 152.537 281.935 152.537 280.63C152.569 279.676 152.378 278.307 152.156 277.607C151.838 276.652 150.438 275.061 146.59 271.179C142.965 267.551 141.597 265.991 141.947 265.864C142.202 265.768 143.792 265.737 145.445 265.8V265.8ZM99.4914 271.72L99.2052 273.565C99.0462 274.552 98.919 277.671 98.919 280.471C98.919 283.272 99.0462 286.391 99.4914 289.223H97.0108C95.4525 289.223 94.2123 289.064 93.608 288.745C93.0674 288.491 92.4313 287.854 92.1769 287.313C91.7953 286.581 91.6999 285.054 91.6999 280.471C91.6999 275.889 91.7953 274.361 92.1769 273.629C92.4313 273.088 93.0356 272.452 93.5126 272.197C94.0851 271.911 95.3571 271.751 99.4914 271.72V271.72ZM144.968 273.947C146.05 273.947 147.004 274.17 147.99 274.679C148.785 275.093 149.834 276.016 150.375 276.78C151.106 277.83 151.361 278.594 151.424 279.962C151.52 281.076 151.361 282.222 151.043 283.017C150.788 283.717 150.152 284.672 149.675 285.149C149.198 285.627 148.212 286.231 147.513 286.55C146.813 286.836 145.604 287.059 144.809 287.059C144.014 287.059 142.806 286.772 142.106 286.422C141.407 286.104 140.357 285.245 139.817 284.577C139.212 283.876 138.64 282.699 138.481 281.903C138.29 281.108 138.29 279.962 138.417 279.357C138.544 278.753 138.894 277.83 139.149 277.289C139.435 276.748 140.007 276.016 140.421 275.634C140.802 275.252 141.661 274.711 142.265 274.456C142.87 274.202 144.078 273.979 144.968 273.947V273.947ZM112.753 294.028C113.135 293.996 113.516 294.474 113.898 295.333C114.216 296.097 115.138 297.72 115.933 298.929C116.696 300.139 118.127 302.08 119.082 303.194C120.036 304.308 121.88 306.09 123.184 307.14C124.488 308.19 126.491 309.59 127.636 310.227C128.781 310.895 130.848 311.913 132.248 312.455C133.647 313.027 136.064 313.759 137.654 314.109C139.594 314.555 141.788 314.746 144.491 314.778C146.686 314.809 149.548 314.619 150.852 314.396C152.156 314.141 154.318 313.632 158.007 312.423L161.442 315.86C163.318 317.737 164.845 319.392 164.845 319.519C164.845 319.679 164.018 320.156 163 320.601C162.014 321.047 159.915 321.843 158.325 322.32C156.735 322.829 155.082 323.307 153.714 323.593V329.799L152.76 330.021C152.251 330.181 151.456 330.626 151.011 331.072C150.566 331.517 150.12 332.313 149.739 333.777H140.039L139.88 332.886C139.816 332.408 139.244 331.549 138.608 330.976C138.004 330.435 137.209 329.958 136.859 329.958C136.255 329.958 136.223 329.735 136.223 323.593L134.537 323.243C133.647 323.02 131.675 322.447 130.18 321.906C128.686 321.397 126.396 320.411 125.092 319.742C123.788 319.074 122.294 318.247 120.799 317.228L118.573 319.456C116.537 321.493 116.283 321.652 115.71 321.238C115.361 321.015 114.566 320.697 113.961 320.601C113.135 320.442 112.562 320.538 110.622 321.62L103.785 314.841L104.325 314.046C104.612 313.6 104.866 312.677 104.866 311.977C104.866 311.277 104.612 310.354 104.325 309.909C103.785 309.113 103.816 309.081 108.205 304.658L107.378 303.385C106.901 302.684 105.979 300.966 105.311 299.566C104.643 298.165 104.071 296.861 104.039 296.67C104.039 296.447 105.661 295.842 107.792 295.301C109.859 294.728 111.735 294.219 111.894 294.156C112.053 294.092 112.467 294.028 112.753 294.028V294.028Z" fill="white"></path><path fill-rule="evenodd" clip-rule="evenodd" d="M161.346 54.9971V65.0217L159.693 65.4036C158.77 65.6263 157.148 66.231 156.099 66.7402C155.05 67.2494 153.332 68.4905 152.283 69.5407C151.074 70.6864 149.961 72.1503 149.325 73.4551C148.753 74.6008 148.085 76.6057 147.799 77.9105C147.385 79.8518 147.385 80.7428 147.64 82.5886C147.83 83.8616 148.276 85.6756 148.657 86.5667C149.039 87.4896 149.739 88.8262 150.216 89.5263C150.693 90.2264 151.838 91.4676 152.728 92.295C153.618 93.1543 155.24 94.2363 156.353 94.7773C157.435 95.2865 159.216 95.923 162.3 96.5276V108.143L160.488 107.952C159.47 107.857 157.721 107.571 156.576 107.284C155.431 107.03 153.491 106.329 152.283 105.788C151.074 105.216 149.357 104.293 148.466 103.688C147.608 103.083 146.272 102.097 145.509 101.492C144.746 100.856 143.346 99.36 142.36 98.1188C141.375 96.8777 139.975 94.6182 139.212 93.027C138.449 91.4358 137.59 89.3035 137.304 88.2533C137.05 87.2031 136.732 84.689 136.636 82.6841C136.509 79.9154 136.604 78.356 137.018 76.3193C137.304 74.8235 137.908 72.755 138.322 71.7048C138.767 70.6546 139.657 68.8724 140.325 67.7267C141.025 66.5811 142.488 64.6716 143.569 63.4623C144.682 62.253 146.463 60.6618 147.512 59.9298C148.562 59.166 150.279 58.1477 151.329 57.6385C152.378 57.0975 153.809 56.4928 154.509 56.27C155.209 56.0154 156.576 55.6654 157.53 55.4426C158.484 55.2517 159.756 55.0607 161.346 54.9971V54.9971ZM165.894 54.9971C166.276 54.9971 167.77 55.2835 169.233 55.6336C170.664 55.9836 172.732 56.6838 173.845 57.1611C174.926 57.6703 176.611 58.5614 177.565 59.166C178.519 59.8025 180.237 61.1391 181.35 62.1893C182.463 63.2077 184.212 65.3399 185.262 66.9311C186.279 68.5223 187.519 70.941 188.028 72.3412C188.537 73.7415 189.11 76.0329 189.332 77.4331C189.587 79.0561 189.682 81.1565 189.555 83.1615C189.428 84.9118 189.11 87.2031 188.823 88.2533C188.537 89.3035 187.869 91.1493 187.297 92.3905C186.724 93.6316 185.707 95.4774 184.975 96.5276C184.276 97.5778 182.845 99.2963 181.827 100.315C180.777 101.333 179.251 102.67 178.36 103.243C176.866 104.261 176.611 104.325 174.067 104.325C171.618 104.325 171.3 104.229 170.569 103.497C170.06 102.988 169.265 102.638 168.343 102.511C167.357 102.383 166.594 102.479 165.894 102.861C165.322 103.147 164.686 103.656 164.527 104.006C164.368 104.356 164.05 104.643 163.891 104.643C163.7 104.643 163.572 103.083 163.572 96.5276L165.067 96.3049C165.926 96.2094 167.389 95.8275 168.343 95.5092C169.297 95.1592 170.951 94.3318 171.968 93.6316C173.018 92.9633 174.449 91.6585 175.148 90.7993C175.88 89.94 176.77 88.5716 177.152 87.776C177.534 86.9804 178.074 85.4846 178.36 84.4344C178.615 83.3842 178.838 81.6657 178.838 80.6155C178.838 79.5653 178.583 77.7832 178.265 76.6375C177.979 75.4918 177.216 73.7415 176.611 72.6913C176.007 71.6729 174.703 70.1136 173.749 69.2225C172.795 68.3632 170.982 67.1539 169.774 66.5811C168.565 65.9764 167.007 65.4354 165.163 65.1808V60.0889C165.163 55.0289 165.163 54.9971 165.894 54.9971ZM235.127 63.9715C236.622 63.9397 239.993 64.067 242.601 64.2261C245.24 64.417 247.753 64.608 248.262 64.7034C248.898 64.8307 249.12 65.0535 249.12 65.5945C249.12 65.9764 249.375 66.6765 249.693 67.1221C249.979 67.5994 250.583 68.2359 250.965 68.5542C251.696 69.1588 251.728 69.318 252.65 84.2753C253.127 92.5814 253.572 100.124 253.604 102.574L251.951 103.37C251.06 103.815 249.852 104.675 249.311 105.279C248.739 105.884 248.134 106.68 247.944 107.03C247.562 107.666 247.562 107.666 231.088 106.934C222.025 106.552 213.661 106.139 212.484 106.075C210.576 105.948 210.29 105.82 210.131 105.216C210.035 104.77 210.449 103.243 211.244 101.301C211.944 99.5509 212.866 96.9095 213.311 95.4138C213.724 93.918 214.297 91.213 214.583 89.3672C214.869 87.5214 215.092 85.1982 215.092 82.3659H220.021L219.767 85.771C219.64 87.6805 219.194 90.9266 218.749 93.027C218.336 95.1274 217.859 96.8777 217.732 96.9095C217.604 96.9732 217.223 97.1641 216.905 97.3869C216.555 97.6096 216.3 98.1507 216.269 98.5962C216.237 99.0417 216.459 99.6464 216.682 99.9646C216.936 100.283 217.541 100.537 218.05 100.506C218.622 100.506 219.067 100.24 219.385 99.71C219.767 99.1054 219.799 98.7235 219.512 98.0552C219.29 97.3869 219.322 96.6867 219.671 95.2547C219.958 94.2045 220.371 91.9131 220.657 90.1628C220.912 88.4125 221.134 86.1529 221.134 85.1664C221.134 84.148 221.198 83.0978 221.293 82.8432C221.421 82.4932 221.929 82.3659 223.201 82.3659C224.346 82.3659 225.11 82.525 225.428 82.8432C225.682 83.0978 226.286 83.3206 226.795 83.3206C227.272 83.3524 227.845 83.1615 228.067 82.9387C228.29 82.7159 228.417 82.1113 228.385 81.5703C228.322 80.9338 228.004 80.4882 227.431 80.1382C226.636 79.6926 226.509 79.7245 225.618 80.3928C224.887 80.902 224.187 81.0929 221.452 81.0929L221.325 79.7563C221.23 78.9925 221.039 76.7966 220.848 74.8872C220.657 72.9777 220.212 70.1772 219.862 68.6815C219.512 67.1857 219.29 65.7855 219.385 65.5945C219.481 65.3399 220.816 65.0535 222.82 64.8307C224.601 64.608 227.495 64.3534 229.244 64.2261C230.993 64.0988 233.633 63.9715 235.127 63.9715V63.9715ZM216.777 65.8491C217.382 65.8173 217.731 66.0082 217.922 66.5492C218.081 66.9311 218.527 68.8406 218.876 70.75C219.258 72.6595 219.671 75.7146 220.021 80.7747H215.092V78.9607C215.092 77.9423 214.869 75.6828 214.615 73.9325C214.36 72.1821 213.883 69.7953 213.025 66.5174L214.456 66.1992C215.251 66.0401 216.269 65.8809 216.777 65.8491V65.8491ZM259.297 66.6129C259.551 66.6765 261.364 67.1857 263.272 67.7267C265.18 68.2996 268.424 69.3816 270.428 70.1772C272.431 70.9728 275.929 72.564 278.219 73.7097C280.509 74.8872 284.071 76.9558 286.17 78.3878C288.269 79.7881 291.512 82.1749 293.325 83.6707C295.17 85.1982 298.318 88.126 300.322 90.1946C302.357 92.295 305.028 95.3183 308.59 99.8692L307.859 100.76C307.445 101.238 307.064 101.779 307 101.97C306.905 102.224 299.05 103.243 264.067 107.189L262.541 105.534C261.682 104.611 260.505 103.656 259.901 103.402C259.297 103.147 258.756 102.892 258.661 102.797C258.565 102.733 258.057 95.1274 256.53 69.1588L257.675 67.8222C258.311 67.0584 259.011 66.5492 259.297 66.6129V66.6129ZM211.657 67.0584C211.816 67.1539 212.262 68.9679 212.707 71.0683C213.12 73.1687 213.597 76.2238 213.979 80.7747H209.845L209.59 77.8468C209.463 76.2238 208.986 73.296 208.572 71.3865C208.159 69.4771 207.841 67.854 207.873 67.8222C207.905 67.7904 208.732 67.5676 209.686 67.313C210.64 67.0903 211.53 66.963 211.657 67.0584ZM154.795 77.9105C155.495 77.9423 156.067 78.2605 156.83 79.0243C157.816 80.0745 157.944 80.1382 160.074 80.1382C162.078 80.1382 162.3 80.2018 162.3 80.7747C162.3 81.3475 162.078 81.4111 159.756 81.4111C157.466 81.4111 157.18 81.4748 157.053 82.0476C156.958 82.3977 156.385 82.9069 155.781 83.1615C154.954 83.5115 154.445 83.5752 153.714 83.3206C153.173 83.1296 152.569 82.5886 152.283 82.0476C152.028 81.5066 151.869 80.6792 151.965 80.1382C152.06 79.5972 152.505 78.897 152.982 78.547C153.428 78.1969 154.254 77.9105 154.795 77.9105V77.9105ZM171.777 77.9105C172.159 77.9105 172.891 78.356 173.431 78.8652C174.067 79.5017 174.385 80.1382 174.385 80.7747C174.385 81.3157 174.067 82.0794 173.686 82.5568C173.145 83.1296 172.604 83.3842 171.746 83.4161C170.728 83.4797 170.346 83.2888 169.583 82.4613C168.693 81.443 168.597 81.4111 166.117 81.4111C163.795 81.4111 163.572 81.3475 163.572 80.7747C163.572 80.2018 163.795 80.1382 166.276 80.1382C168.724 80.1382 168.979 80.0745 169.138 79.5017C169.233 79.1516 169.679 78.6424 170.187 78.3878C170.664 78.1332 171.364 77.9423 171.777 77.9105V77.9105ZM204.947 82.0476H208.413V83.0978C208.413 83.6388 208.191 85.6119 207.936 87.4577C207.682 89.3035 207.205 91.9131 206.855 93.2816C206.474 94.6182 205.679 96.9732 205.074 98.5325C204.47 100.06 203.421 102.224 201.576 105.438L199.986 105.534C199.095 105.566 198.269 105.502 198.141 105.375C198.014 105.216 198.682 103.72 199.668 102.033C200.622 100.315 201.385 98.7871 201.353 98.628C201.29 98.4371 200.209 97.1641 196.647 93.1861L197.219 91.2766C197.696 89.6536 197.887 89.3672 198.65 89.2081C199.127 89.1126 200.018 88.5716 200.654 88.0306C201.29 87.4577 202.466 86.7576 204.756 85.962L204.947 82.0476ZM209.781 82.3659H213.979L213.724 85.3255C213.565 86.9485 213.247 89.399 212.993 90.7993C212.739 92.1995 212.071 94.7773 211.562 96.5276C211.021 98.278 210.163 100.665 209.654 101.779C209.145 102.924 208.732 104.325 208.732 104.897C208.732 105.884 208.668 105.916 207.555 105.916C206.887 105.916 205.647 105.82 203.166 105.534L204.661 102.638C205.456 101.015 206.569 98.4371 207.141 96.8459C207.682 95.2865 208.413 92.6451 208.732 90.9584C209.081 89.3035 209.431 86.694 209.558 85.1664L209.781 82.3659ZM306.523 107.221C307.064 107.189 307.7 107.38 307.954 107.698C308.24 107.984 308.876 108.43 309.385 108.684C310.085 109.035 310.848 109.13 312.184 108.971C313.838 108.78 314.06 108.844 314.474 109.48C314.728 109.894 315.682 111.867 316.572 113.872C317.495 115.877 318.703 118.9 319.307 120.555C319.912 122.21 320.898 125.424 321.502 127.715C322.074 129.975 322.774 133.125 323.06 134.717C323.315 136.276 323.696 138.949 323.887 140.604C324.078 142.259 324.237 146.142 324.237 149.197C324.237 152.252 324.078 156.262 323.855 158.107C323.664 159.953 323.219 162.945 322.869 164.79C322.519 166.636 321.756 169.978 321.12 172.269C320.484 174.529 319.371 177.966 318.64 179.907C317.876 181.816 316.604 184.776 315.777 186.431C314.919 188.086 314.187 189.486 314.124 189.518C314.06 189.582 313.615 189.327 313.138 189.009C312.661 188.659 311.898 188.309 311.452 188.213C311.039 188.086 310.18 187.958 309.544 187.895C308.463 187.799 308.304 187.577 263.399 116.577L264.067 115.049C264.417 114.222 264.703 113.203 264.703 112.758C264.703 112.312 264.767 111.962 264.799 111.931C264.83 111.931 274.021 110.88 285.216 109.576C296.41 108.303 306.014 107.221 306.523 107.221V107.221ZM186.597 109.735H187.424C187.869 109.735 192.512 109.957 197.76 110.212C203.007 110.467 207.777 110.658 209.368 110.689L209.399 112.662C209.399 114.604 209.336 114.731 207.746 116.736C206.855 117.882 205.329 119.632 204.343 120.619C203.007 121.987 202.307 122.464 201.671 122.464C201.099 122.464 200.622 122.719 200.304 123.164C199.954 123.737 199.891 124.087 200.145 124.756C200.336 125.233 200.813 125.742 201.194 125.838C201.576 125.933 202.244 125.87 202.625 125.679C203.007 125.488 203.421 125.01 203.516 124.597C203.611 124.215 203.611 123.833 203.516 123.737C203.421 123.642 204.311 122.56 205.488 121.35C206.664 120.109 208.382 118.104 210.958 114.667L210.481 110.626L212.389 110.817C213.438 110.912 221.611 111.294 230.516 111.676C239.452 112.058 246.83 112.408 246.894 112.472C246.989 112.567 246.862 112.79 246.576 113.044C246.322 113.267 236.527 118.677 224.823 125.042C213.12 131.407 203.357 136.658 203.103 136.69C202.88 136.753 202.307 136.499 201.83 136.149C201.353 135.83 200.24 135.417 199.35 135.226C198.491 135.067 197.187 135.035 196.488 135.162C195.788 135.289 194.77 135.64 194.198 135.926C193.371 136.34 193.021 136.403 192.449 136.085C192.067 135.894 191.336 135.48 190.859 135.13C190 134.558 190 134.558 190.604 134.08C190.954 133.826 191.24 133.253 191.24 132.807C191.24 132.362 191.05 131.789 190.763 131.534C190.509 131.28 189.873 131.057 189.332 131.057C188.601 131.057 188.315 131.248 187.997 131.916C187.806 132.393 187.583 132.839 187.519 132.871C187.488 132.934 186.375 132.266 182.654 129.943L184.657 129.052C185.739 128.575 188.092 127.302 189.905 126.188C191.686 125.106 194.262 123.324 195.629 122.242C196.965 121.16 199.127 119.186 200.399 117.882C201.671 116.545 203.007 115.431 203.389 115.368C203.77 115.336 204.375 114.922 204.724 114.445C205.392 113.617 205.392 113.554 204.852 112.758C204.47 112.217 203.993 111.962 203.325 111.962C202.689 111.962 202.212 112.196 201.894 112.662C201.64 113.076 201.512 113.649 201.64 114.031C201.799 114.54 201.194 115.272 198.523 117.85C196.678 119.6 193.912 121.923 192.353 123.037C190.795 124.151 187.838 125.901 185.77 126.952C183.703 127.97 181.795 128.829 181.477 128.829C181.159 128.829 180.11 128.288 179.092 127.62C178.074 126.983 177.247 126.379 177.247 126.283C177.247 126.188 178.138 125.774 179.251 125.36C180.332 124.947 182.749 123.833 184.562 122.878C186.82 121.669 188.124 121.191 188.537 121.319C188.919 121.414 189.491 121.319 189.905 121.032C190.371 120.714 190.604 120.237 190.604 119.6C190.604 118.964 190.371 118.486 189.905 118.168C189.428 117.85 188.919 117.754 188.442 117.913C188.028 118.041 187.456 118.677 187.17 119.282C186.724 120.173 186.088 120.65 183.449 121.987C181.7 122.846 179.219 123.96 175.498 125.265L172.127 123.164C168.947 121.128 168.788 120.969 168.883 120.078C168.979 119.537 169.201 118.486 169.392 117.754C169.742 116.513 169.933 116.354 171.046 116.068C171.746 115.877 172.859 115.558 173.495 115.368C174.671 114.986 174.671 114.986 176.77 116.895C177.947 117.945 179.187 119.059 179.569 119.377C180.269 119.95 180.332 119.95 184.021 117.786C186.088 116.609 187.774 115.463 187.774 115.304C187.742 115.113 187.488 113.808 187.17 112.344L186.597 109.735ZM248.802 117.5C248.898 117.532 249.565 117.977 250.297 118.486C251.028 119.027 251.633 119.537 251.633 119.6C251.633 119.696 246.894 137.74 230.484 199.638L227.813 199.893C226.318 200.02 225.014 200.02 224.887 199.893C224.792 199.765 219.799 188.118 213.852 174.019C207.873 159.953 203.007 148.274 202.975 148.083C202.975 147.924 203.23 147.574 203.516 147.287C203.802 147.033 204.279 146.396 204.534 145.855C204.82 145.346 205.106 144.041 205.392 141.081L227.018 129.275C238.912 122.783 248.707 117.468 248.802 117.5ZM259.297 119.982C259.615 119.95 268.011 132.934 303.915 189.772L302.993 191.364C302.516 192.255 302.039 193.464 301.753 195.119L272.813 202.216C256.912 206.13 243.746 209.344 243.555 209.344C243.396 209.344 242.919 208.74 242.537 208.008C242.124 207.244 241.201 205.939 240.47 205.08C239.707 204.252 238.212 202.948 237.099 202.216C235.763 201.356 235.159 200.752 235.254 200.434C235.35 200.179 239.961 182.867 245.463 161.926C250.997 141.018 255.735 123.164 255.989 122.242C256.403 120.682 256.53 120.555 257.643 120.268C258.279 120.109 259.042 119.982 259.297 119.982V119.982ZM79.7739 141.177C81.1732 141.272 83.3993 141.622 84.7032 141.941C86.0071 142.291 88.2333 143.15 89.6326 143.882C91.0955 144.678 93.099 146.11 94.4029 147.319C95.6114 148.497 97.0425 149.992 98.3781 151.902L100.541 151.233C101.717 150.82 103.88 150.342 105.375 150.151C107.442 149.865 108.777 149.865 110.94 150.151C112.53 150.374 114.947 150.947 116.346 151.488C117.746 151.997 119.749 152.952 120.799 153.588C121.848 154.257 123.565 155.561 124.583 156.516C125.601 157.503 127.064 159.126 127.827 160.176C128.558 161.226 129.608 163.04 130.117 164.154C130.625 165.3 131.293 167.177 131.58 168.291C131.866 169.437 132.088 170.678 132.088 171.092C132.088 171.633 132.534 172.046 133.933 172.81C134.919 173.351 136.604 174.688 137.654 175.738C138.703 176.82 140.103 178.698 140.739 179.907C141.375 181.148 142.138 183.153 142.424 184.362C142.806 185.922 142.901 187.481 142.806 189.454C142.742 191.045 142.583 192.764 142.456 193.273C142.36 193.814 141.661 195.469 140.929 196.933C139.944 198.938 139.053 200.211 135.3 203.934L47.9718 203.966L45.5866 202.407C44.2827 201.547 42.311 199.861 41.1979 198.651C39.9258 197.283 38.7174 195.501 37.9223 193.91C37.2545 192.509 36.4594 190.377 36.205 189.136C35.9506 187.927 35.7598 185.858 35.7598 184.521C35.7598 183.217 35.9506 181.212 36.1732 180.066C36.4276 178.952 37.0637 177.011 37.6361 175.77C38.1767 174.561 39.258 172.683 39.9894 171.633C40.7527 170.582 42.3428 168.832 43.5513 167.718C44.7598 166.636 46.8269 165.172 48.1308 164.504C49.4347 163.836 51.0884 163.104 53.0601 162.595L53.6008 159.794C53.9506 157.98 54.6184 156.071 55.5089 154.289C56.4629 152.411 57.5124 150.883 59.1025 149.26C60.311 147.955 62.2509 146.301 63.3958 145.537C64.5407 144.773 66.4806 143.755 67.6891 143.214C68.9294 142.705 70.9965 142.068 72.3004 141.782C73.6043 141.495 75.258 141.209 75.9576 141.145C76.6573 141.081 78.3746 141.081 79.7739 141.177V141.177ZM302.866 199.861C303.12 199.829 303.82 200.274 305.41 201.707L302.325 204.571C300.608 206.13 298.064 208.326 296.664 209.44C295.265 210.554 292.466 212.622 290.463 214.054C288.459 215.455 282.799 219.146 277.901 222.265C273.004 225.352 267.216 229.107 265.021 230.603C262.827 232.099 259.901 234.199 258.502 235.249C257.103 236.299 254.304 238.527 252.3 240.182C250.297 241.837 246.512 245.369 243.873 248.011C241.233 250.652 237.703 254.439 235.986 256.444C234.237 258.481 231.534 261.822 229.944 263.891C228.322 265.96 225.841 269.301 224.41 271.37C222.979 273.406 220.498 277.225 218.876 279.835C217.286 282.476 214.806 286.741 213.375 289.318C211.975 291.896 210.767 293.997 210.703 293.933C210.671 293.901 214.297 279.962 218.749 262.968C223.233 246.006 226.954 231.844 227.05 231.558C227.145 231.208 227.368 231.048 227.749 231.176C228.035 231.271 229.435 231.176 230.834 231.017C232.583 230.794 234.078 230.348 235.604 229.585C236.876 228.98 238.594 227.771 239.58 226.816C240.565 225.861 241.806 224.334 242.346 223.347C242.919 222.392 243.587 220.737 243.873 219.687C244.127 218.637 244.318 216.982 244.223 214.182L258.216 210.776C265.88 208.899 278.982 205.685 287.283 203.616C295.583 201.547 302.611 199.861 302.866 199.861V199.861ZM175.021 305.294C175.466 305.422 176.898 305.772 180.587 306.726L182.399 313.25L180.078 315.573C178.774 316.846 177.502 317.865 177.247 317.865C176.993 317.865 175.562 317.515 174.067 317.069C172.572 316.655 171.269 316.114 171.141 315.892C171.014 315.669 170.601 314.205 169.551 309.75L171.905 307.426C173.876 305.485 174.353 305.167 175.021 305.294Z" fill="#C90003"></path><path fill-rule="evenodd" clip-rule="evenodd" d="M143.378 75.6831C143.537 75.6513 144.078 75.9377 144.587 76.3196C145.445 76.956 145.445 76.9879 145.445 80.5522C145.445 83.1936 145.318 84.3074 144.968 84.8166C144.65 85.3046 144.173 85.5486 143.537 85.5486C142.997 85.5486 142.361 85.3258 142.106 85.0712C141.725 84.6893 141.629 83.6709 141.597 80.6477C141.534 76.7969 141.566 76.6696 142.297 76.1604C142.71 75.9058 143.219 75.6831 143.378 75.6831V75.6831ZM182.813 75.6831C182.972 75.6513 183.513 75.9377 184.021 76.3196C184.88 76.956 184.88 76.9879 184.88 80.5522C184.88 83.1936 184.753 84.3074 184.403 84.8166C184.085 85.3046 183.608 85.5486 182.972 85.5486C182.431 85.5486 181.795 85.3258 181.541 85.0712C181.159 84.6893 181.064 83.6709 181.032 80.6477C180.968 76.7969 181 76.6696 181.732 76.1604C182.145 75.9058 182.654 75.6831 182.813 75.6831V75.6831ZM301.053 116.736C302.039 116.736 303.184 116.895 303.566 117.086C303.979 117.277 304.71 117.818 305.187 118.296C305.696 118.741 306.301 119.505 306.555 119.982C306.809 120.492 307 121.574 307 122.465C307 123.388 306.746 124.565 306.396 125.233C306.078 125.902 305.537 126.697 305.219 126.984C304.869 127.27 304.074 127.747 303.407 128.002C302.77 128.288 301.721 128.511 301.117 128.511C300.513 128.511 299.463 128.288 298.795 128.002C298.159 127.747 297.364 127.27 297.014 126.984C296.696 126.697 296.156 125.87 295.806 125.17C295.329 124.215 295.17 123.451 295.265 122.115C295.361 120.81 295.615 120.046 296.283 119.155C296.76 118.487 297.619 117.691 298.191 117.341C298.859 116.927 299.813 116.736 301.021 116.736H301.053ZM78.2157 144.105C80.1238 144.105 81.926 144.317 83.6221 144.742C85.0214 145.123 87.1521 145.951 88.3288 146.587C89.5055 147.224 91.2864 148.497 92.3041 149.388C93.2899 150.279 94.8164 152.061 95.7069 153.366C96.5655 154.671 97.3288 155.753 97.3606 155.785C97.4242 155.848 98.2192 155.498 99.1415 155.053C100.032 154.575 101.876 153.939 103.18 153.62C104.611 153.239 106.647 153.016 108.269 153.016C109.763 153.016 111.894 153.239 113.039 153.525C114.184 153.78 116.315 154.575 117.809 155.307C119.972 156.357 121.021 157.153 123.057 159.19C124.774 160.908 126.014 162.499 126.778 163.995C127.414 165.204 128.145 167.018 128.431 167.973C128.717 168.928 128.94 169.978 128.94 170.296C128.94 170.806 128.145 170.837 104.452 170.837L103.498 169.883C102.767 169.151 102.258 168.928 101.272 168.928C100.286 168.928 99.7775 169.151 98.092 170.837L76.9436 170.869L62.6327 181.021H50.9613C39.4807 181.021 39.2581 181.021 39.2581 180.385C39.2581 180.035 39.4807 179.175 40.2122 177.202H60.7245L76.9436 166.096L93.9578 166.064L94.9118 167.018C95.6115 167.719 96.1521 167.973 97.0744 167.973C97.9012 168.005 98.5055 167.75 99.1415 167.178C99.8094 166.573 100 166.096 100 165.109C100 164.186 99.7775 163.613 99.2051 163.04C98.7599 162.595 98.0284 162.149 97.5514 162.054C97.0426 161.958 96.3111 162.022 95.8659 162.213C95.4207 162.404 94.8482 162.913 94.1168 164.186L76.4666 164.154L59.7705 175.611H50.7069C45.7139 175.611 41.5479 175.516 41.4207 175.388C41.2934 175.261 41.6433 174.497 42.2157 173.733C42.7881 172.97 43.615 172.015 44.1238 171.601C44.9507 170.869 45.1733 170.837 54.5231 170.837L55.5726 171.951C56.2404 172.651 56.8765 173.033 57.4807 173.065C57.9578 173.065 58.721 172.874 59.2298 172.62C59.7069 172.397 60.2793 171.792 60.5019 171.283C60.7563 170.742 60.8518 169.914 60.7563 169.342C60.6291 168.705 60.2157 168.037 59.7069 167.655C59.1662 167.273 58.3712 167.018 57.7033 167.018C56.8765 167.05 56.3359 167.305 54.5231 169.246H51.3429C49.4348 169.246 48.1627 169.119 48.1627 168.928C48.1627 168.769 48.7351 168.323 49.4348 167.973C50.1344 167.623 51.5973 167.114 52.7104 166.859C53.7917 166.605 55.191 166.382 56.9083 166.382L57.1627 164.091C57.3217 162.818 57.6397 160.908 57.8942 159.858C58.1804 158.808 58.88 156.962 59.4525 155.721C60.0567 154.48 61.1698 152.729 61.933 151.775C62.6963 150.852 64.032 149.515 64.8906 148.815C65.7493 148.115 67.4666 147.065 68.6751 146.428C69.8836 145.824 71.9189 145.028 73.1274 144.71C74.4313 144.391 76.5302 144.137 78.2157 144.105V144.105ZM222.756 145.696C223.615 145.696 224.76 145.983 225.587 146.428C226.445 146.842 227.336 147.638 227.813 148.37C228.354 149.197 228.672 150.215 228.767 151.234C228.831 152.348 228.703 153.207 228.322 153.971C228.036 154.575 227.463 155.434 227.081 155.816C226.732 156.23 226.064 156.771 225.619 156.994C225.173 157.185 224.346 157.471 223.806 157.599C223.233 157.694 222.089 157.63 221.262 157.408C220.276 157.153 219.322 156.612 218.59 155.88C217.859 155.148 217.35 154.225 217.064 153.175C216.778 151.997 216.746 151.234 217 150.247C217.191 149.483 217.763 148.401 218.24 147.86C218.749 147.287 219.64 146.556 220.244 146.269C220.848 145.951 221.961 145.696 222.756 145.696ZM96.8836 163.836C97.297 163.804 97.8058 164.027 98.0284 164.313C98.2192 164.568 98.3783 165.014 98.3465 165.3C98.2828 165.586 97.9966 166 97.7104 166.191C97.297 166.446 96.979 166.446 96.5973 166.191C96.2793 166 95.9931 165.555 95.9295 165.236C95.8659 164.918 95.8977 164.441 95.9931 164.25C96.0885 164.027 96.5019 163.836 96.8836 163.836ZM57.5761 168.61C57.6397 168.61 57.9896 168.769 58.3394 168.928C58.721 169.119 58.9754 169.564 58.9754 170.042C58.9754 170.487 58.721 170.965 58.4348 171.156C58.0214 171.347 57.6397 171.315 57.1627 170.996C56.7493 170.742 56.4313 170.328 56.3995 170.074C56.3995 169.819 56.6221 169.373 56.9083 169.119C57.1945 168.832 57.4807 168.61 57.5761 168.61V168.61ZM101.24 170.519C101.527 170.487 101.94 170.71 102.163 170.996C102.354 171.251 102.513 171.697 102.481 171.983C102.417 172.269 102.131 172.683 101.845 172.874C101.431 173.129 101.113 173.129 100.732 172.874C100.414 172.683 100.127 172.269 100.096 171.983C100.032 171.697 100.159 171.251 100.35 170.996C100.541 170.742 100.954 170.519 101.24 170.519ZM77.5797 172.747H88.0108C98.092 172.747 98.4101 172.779 98.7281 173.383C98.8871 173.733 99.5549 174.243 100.159 174.497C101.145 174.911 101.399 174.911 102.385 174.497C102.99 174.243 103.657 173.733 103.816 173.383C104.134 172.779 104.452 172.747 116.696 172.747C128.463 172.747 129.258 172.779 129.258 173.32C129.237 173.68 129.788 174.094 130.912 174.561C131.834 174.975 133.106 175.706 134.823 177.17L117.491 177.202L116.537 176.247C115.806 175.516 115.297 175.293 114.311 175.293C113.325 175.293 112.816 175.516 111.131 177.202H79.9648L66.1309 187.068H59.9295L58.9118 185.954C58.2122 185.254 57.5761 184.872 57.0037 184.84C56.4949 184.84 55.7316 185.031 55.2546 185.286C54.7457 185.508 54.1733 186.113 53.9507 186.622C53.6963 187.163 53.6009 187.991 53.6963 188.595C53.8235 189.2 54.2369 189.868 54.7775 190.25C55.2864 190.632 56.0814 190.887 56.7493 190.887C57.5761 190.855 58.1168 190.6 59.9295 188.659H67.085L80.6009 179.112L111.29 179.143L112.085 180.098C112.562 180.671 113.325 181.148 114.025 181.276C115.106 181.467 115.297 181.403 117.491 179.112L136.986 179.271L138.036 181.18C138.64 182.23 139.117 183.185 139.117 183.344C139.117 183.472 129.29 183.567 95.3889 183.567L91.827 186.272C88.3288 188.882 88.2016 188.977 87.2157 188.627C86.3889 188.341 85.9436 188.372 85.244 188.691C84.7351 188.945 84.1309 189.423 83.8765 189.773C83.6539 190.123 83.4631 190.95 83.4631 191.619C83.4631 192.446 83.6857 193.019 84.2581 193.592C84.8306 194.164 85.403 194.387 86.2616 194.387C86.8977 194.387 87.7563 194.164 88.1698 193.91C88.5514 193.655 89.0284 192.955 89.1874 192.414C89.3783 191.841 89.4737 191.173 89.4419 190.918C89.3783 190.664 90.7457 189.391 95.7069 185.508L139.594 185.476L139.848 186.495C139.975 187.068 140.071 187.927 140.071 189.295L107.156 189.264L103.753 191.682C100.445 193.974 100.286 194.069 99.3005 193.719C98.4737 193.433 98.0284 193.464 97.3288 193.783C96.82 194.037 96.2157 194.515 95.9613 194.865C95.7387 195.215 95.5479 196.042 95.5479 196.71C95.5479 197.538 95.7705 198.111 96.3429 198.684C96.8836 199.225 97.4878 199.479 98.251 199.479C98.8553 199.479 99.6503 199.32 100 199.161C100.35 199.002 100.859 198.365 101.145 197.824C101.431 197.251 101.558 196.519 101.463 196.233C101.304 195.788 101.972 195.151 107.633 191.205H123.693C137.749 191.205 139.753 191.268 139.753 191.682C139.753 191.937 139.435 192.987 139.053 194.005C138.703 194.992 138.035 196.36 137.622 197.029C137.24 197.665 136.255 198.843 134.06 201.07L48.9578 201.102L46.9224 199.734C45.7775 198.97 44.1556 197.57 43.3288 196.615C42.4701 195.66 41.2616 193.846 40.6574 192.637C40.0532 191.428 39.3535 189.391 39.0991 188.182C38.8447 186.972 38.6221 185.286 38.6221 182.931H63.1097L77.5797 172.747ZM114.311 176.884C114.566 176.852 114.979 177.043 115.202 177.266C115.424 177.489 115.551 178.03 115.52 178.475C115.456 179.048 115.202 179.303 114.629 179.366C114.184 179.398 113.643 179.271 113.421 179.048C113.198 178.825 112.975 178.412 112.975 178.157C112.944 177.871 113.103 177.489 113.357 177.266C113.611 177.043 114.025 176.884 114.311 176.884ZM284.134 180.162C284.739 180.226 285.725 180.576 286.297 180.957C286.933 181.403 287.442 182.103 287.696 182.867C287.951 183.758 287.951 184.363 287.696 185.413C287.442 186.336 286.997 186.972 286.297 187.45C285.725 187.831 284.739 188.182 284.134 188.245C283.467 188.341 282.608 188.15 281.94 187.8C281.368 187.481 280.604 186.718 280.286 186.113C279.937 185.508 279.682 184.649 279.682 184.204C279.682 183.758 279.937 182.899 280.286 182.294C280.604 181.689 281.368 180.926 281.94 180.607C282.608 180.257 283.467 180.066 284.134 180.162ZM57.0991 186.781C57.4489 186.94 57.7669 187.227 57.8624 187.386C57.9578 187.577 57.9578 187.991 57.8624 188.341C57.7669 188.691 57.4807 189.041 57.2263 189.136C56.9719 189.232 56.4631 189.168 56.1132 188.977C55.7634 188.818 55.4454 188.309 55.4136 187.895C55.3818 187.418 55.6044 186.972 55.9542 186.781C56.304 186.59 56.7493 186.59 57.0991 186.781ZM86.2934 190.25C86.5797 190.218 86.9931 190.441 87.2157 190.727C87.4065 190.982 87.5655 191.428 87.5337 191.714C87.4701 192 87.1839 192.414 86.8977 192.605C86.4843 192.86 86.1662 192.86 85.7846 192.605C85.4666 192.414 85.1804 192 85.1486 191.714C85.085 191.428 85.2122 190.982 85.403 190.727C85.5938 190.473 86.0072 190.25 86.2934 190.25ZM98.6963 195.406C99.3641 195.469 99.5231 195.66 99.5231 196.424C99.5231 196.965 99.3005 197.506 98.9825 197.697C98.5691 197.952 98.251 197.952 97.8694 197.697C97.5514 197.506 97.2652 197.092 97.2334 196.806C97.1698 196.519 97.297 196.074 97.5196 195.819C97.7104 195.533 98.2192 195.342 98.6963 195.406V195.406Z" fill="white"></path></svg>