<svg xmlns="http://www.w3.org/2000/svg" width="399" height="399" viewBox="0 0 399 399" fill="none"><path d="M175.158 1.72328C179.656 1.15313 184.978 0.64633 186.879 0.51963C188.779 0.45628 192.898 0.32958 196.066 0.20288C199.233 0.0761803 206.203 0.32958 211.588 0.70968C216.974 1.08978 224.387 1.78663 228.061 2.35678C231.736 2.86358 238.008 4.00388 242 4.89078C245.992 5.77768 252.707 7.48813 256.889 8.69178C261.071 9.95878 268.04 12.3661 272.412 14.1399C276.783 15.8503 283.753 19.0178 287.934 21.1084C292.116 23.1989 297.501 26.0497 299.972 27.5067C302.443 28.9004 307.258 32.0046 310.743 34.3485C314.228 36.6925 320.12 41.0636 323.858 44.0411C327.66 47.0185 333.742 52.4033 337.417 56.0142C341.155 59.5618 346.477 65.2 349.391 68.4942C352.242 71.7884 356.678 77.3632 359.275 80.8474C361.873 84.3317 365.928 90.2866 368.335 94.1509C370.743 98.0153 374.798 105.237 377.332 110.305C379.866 115.373 383.224 122.785 384.745 126.776C386.329 130.767 388.61 137.356 389.814 141.347C391.017 145.338 392.791 152.053 393.742 156.234C394.692 160.415 395.959 167.954 396.656 173.022C397.29 178.09 398.05 187.465 398.24 193.927C398.494 201.466 398.367 208.814 397.86 214.516C397.48 219.394 396.403 227.503 395.579 232.571C394.756 237.639 393.045 245.494 391.841 249.992C390.701 254.49 388.673 261.205 387.406 264.879C386.076 268.553 383.668 274.825 381.894 278.816C380.183 282.807 377.205 289.079 375.241 292.753C373.277 296.427 369.983 302.129 367.828 305.423C365.738 308.717 362.063 314.165 359.592 317.46C357.184 320.754 353.003 326.012 350.278 329.179C347.554 332.347 342.295 337.922 338.494 341.596C334.756 345.27 329.814 349.831 327.533 351.795C325.252 353.696 321.007 357.053 318.029 359.334C315.051 361.551 309.096 365.606 304.724 368.33C300.352 371.054 293.51 374.981 289.518 377.009C285.527 379.036 279.064 381.95 275.263 383.534C271.461 385.117 264.555 387.588 260.057 389.045C255.559 390.502 248.272 392.529 243.901 393.48C239.529 394.493 232.813 395.76 229.012 396.267C225.21 396.837 218.874 397.534 215.073 397.914C211.271 398.231 203.859 398.548 198.6 398.548C193.405 398.548 185.231 398.104 180.543 397.661C175.854 397.154 169.139 396.267 165.654 395.697C162.169 395.127 155.453 393.733 150.765 392.529C146.076 391.326 138.917 389.235 134.925 387.905C130.934 386.511 125.168 384.357 122.127 383.09C119.023 381.823 113.701 379.416 110.216 377.642C106.731 375.932 100.839 372.637 97.1008 370.42C93.2993 368.203 86.8368 363.895 82.6552 360.854C78.4736 357.814 73.2149 353.759 70.934 351.795C68.6531 349.895 63.7112 345.27 59.9731 341.596C56.1717 337.922 50.913 332.347 48.1886 329.179C45.4642 326.012 41.2826 320.754 38.8116 317.46C36.404 314.165 32.6659 308.717 30.5751 305.423C28.5477 302.129 25.063 296.111 22.9088 292.12C20.818 288.129 18.0303 282.427 16.6998 279.45C15.4326 276.472 13.3418 271.087 12.0113 267.413C10.6808 263.739 8.71669 257.784 7.70296 254.11C6.62588 250.435 5.04194 243.91 4.15493 239.539C3.26792 235.168 2.06412 228.326 1.4939 224.335C0.923682 220.027 0.416819 211.285 0.290104 202.796C0.163388 193.8 0.416819 185.628 0.923682 180.624C1.36719 176.253 2.06412 170.551 2.50763 167.954C2.88777 165.356 4.09157 159.338 5.16865 154.65C6.24573 149.962 8.08311 142.994 9.28691 139.129C10.5541 135.265 12.5815 129.437 13.912 126.143C15.2425 122.848 17.3333 117.971 18.5371 115.373C19.7409 112.776 22.3386 107.644 24.3661 103.97C26.3301 100.296 30.3217 93.7708 33.2361 89.3997C36.0872 85.0285 40.9658 78.3768 44.0703 74.5124C47.1115 70.7114 53.6373 63.5529 58.5159 58.6116C63.4578 53.7336 70.6172 47.2086 74.4187 44.1044C78.2202 41.0636 84.9361 36.1857 89.3078 33.3349C93.6795 30.4842 99.7618 26.6832 102.93 24.9727C106.098 23.1989 111.926 20.2848 115.918 18.4477C119.91 16.6105 126.499 13.8865 130.49 12.4294C134.482 10.9724 140.944 8.81848 144.746 7.74153C148.547 6.66458 155.136 5.08083 159.318 4.25728C163.5 3.37038 170.659 2.23008 175.158 1.72328Z" fill="#0081C9"></path><path d="M179.782 51.39C181.556 50.6931 185.294 49.7429 188.018 49.2361C190.743 48.7293 195.305 48.4759 198.282 48.6026C201.26 48.7293 205.949 49.4261 208.736 50.123C211.524 50.8832 215.262 52.2769 216.973 53.2905C218.747 54.2407 221.471 56.458 223.055 58.1684C224.639 59.8155 226.793 62.9197 227.87 65.0102C228.948 67.1008 230.278 70.9018 230.848 73.3724C231.419 75.9064 231.862 80.7844 231.925 84.1419C231.925 87.5628 232.115 90.5403 232.242 90.7937C232.369 91.1104 233.256 90.9204 234.27 90.4136C235.22 89.9068 236.36 89.7167 236.867 89.9068C237.374 90.1602 238.134 91.1104 238.578 92.0607C239.085 93.0743 239.465 94.468 239.465 95.2282C239.465 96.0517 238.768 97.8255 237.818 99.2192C236.614 101.056 235.917 103.084 235.537 106.504C235.22 109.102 234.65 112.333 234.333 113.6C234.016 114.93 233.193 116.577 232.496 117.274C231.799 117.971 230.722 118.478 230.151 118.351C229.264 118.224 228.631 119.428 227.047 124.242C225.97 127.537 223.816 132.541 222.295 135.329C220.774 138.116 218.43 141.474 217.163 142.741C215.833 144.071 213.425 145.845 211.778 146.668C210.067 147.492 207.152 148.632 205.252 149.202C203.351 149.773 199.55 150.216 196.889 150.216C194.164 150.216 190.426 149.899 188.652 149.519C186.815 149.139 183.33 147.745 180.922 146.478C178.515 145.211 175.6 143.121 174.46 141.79C173.256 140.523 171.102 137.103 169.645 134.188C168.187 131.338 166.287 126.586 165.336 123.609C164.323 120.315 163.309 118.224 162.739 118.161C162.232 118.098 161.472 118.034 161.091 118.034C160.648 117.971 159.824 117.274 159.317 116.45C158.811 115.69 157.924 112.079 157.417 108.405C156.656 103.4 156.023 101.183 154.882 99.536C153.869 98.1423 153.298 96.4318 153.298 94.9114C153.298 93.2643 153.742 92.124 154.882 90.9837C156.34 89.5267 156.593 89.4633 158.24 90.3502C159.191 90.857 160.141 91.0471 160.394 90.7937C160.648 90.5403 160.711 89.4633 160.521 88.4497C160.331 87.3728 160.458 83.5718 160.775 79.8975C161.218 75.8431 162.105 71.5353 163.055 68.8112C163.942 66.3406 165.78 62.8563 167.047 60.9558C168.378 59.0553 171.039 56.458 172.939 55.0643C174.84 53.7339 177.945 52.0235 179.782 51.39Z" fill="white"></path><path d="M144.745 157.121C148.23 155.981 155.326 154.017 160.521 152.75C165.717 151.42 170.088 150.406 170.152 150.469C170.215 150.469 173.446 163.076 177.311 178.407C181.112 193.737 184.534 206.978 184.914 207.864C185.231 208.751 185.548 209.131 185.611 208.815C185.611 208.498 185.928 205.647 186.244 202.48C186.561 199.312 187.131 193.927 187.512 190.443C187.828 186.959 188.335 182.524 188.525 180.624C188.715 178.723 189.096 175.303 189.349 173.022C189.792 169.031 189.729 168.841 185.104 161.936L186.625 159.528C187.448 158.261 188.652 157.184 189.286 157.184C189.856 157.184 193.467 157.058 197.205 156.994C203.858 156.868 204.111 156.931 205.252 158.451C205.949 159.338 206.646 160.542 206.836 161.112C207.026 161.809 206.202 163.646 204.935 165.547C203.224 168.081 202.781 169.411 202.971 170.805C203.098 171.818 203.414 174.542 203.668 176.823C203.858 179.104 204.175 181.954 204.301 183.158C204.491 184.362 204.872 188.353 205.252 192.027C205.632 195.701 206.075 200.516 206.265 202.796C206.456 205.077 206.772 207.358 206.899 207.864C207.026 208.371 207.279 208.688 207.406 208.498C207.596 208.308 210.891 195.638 214.755 180.307C218.62 164.977 221.978 151.99 222.232 151.356C222.612 150.469 223.752 150.596 233.446 153.067C239.402 154.587 247.195 156.868 250.869 158.135C254.544 159.465 259.549 161.492 261.957 162.696C264.428 163.963 268.103 166.117 270.193 167.637C272.284 169.094 275.135 171.692 276.593 173.402C277.986 175.113 279.951 177.773 280.838 179.357C281.725 180.941 283.055 183.791 283.752 185.692C284.449 187.592 285.589 191.457 286.286 194.244C286.983 197.032 287.997 202.036 288.567 205.33C289.137 208.625 289.518 211.349 289.391 211.412C289.264 211.412 281.344 214.896 271.777 219.077C262.21 223.322 248.082 229.53 240.415 232.888C232.749 236.245 221.978 240.997 206.519 247.775L170.405 223.702L133.531 236.055C113.193 242.834 96.5298 248.282 96.4665 248.218C96.4031 248.155 96.5932 246.951 96.9734 245.558C97.2901 244.164 99.0008 234.471 100.711 224.019C102.485 213.566 104.513 202.163 105.21 198.679C105.97 195.194 107.427 189.936 108.441 186.959C109.518 183.982 111.482 179.864 112.749 177.773C114.08 175.683 116.804 172.452 118.832 170.551C120.923 168.714 124.154 166.244 126.055 165.103C127.955 164.026 131.567 162.189 133.974 161.176C136.445 160.099 141.26 158.261 144.745 157.121Z" fill="white"></path><path d="M310.616 206.788C310.552 206.534 310.109 205.204 309.602 203.81L308.652 201.339L318.916 201.783L319.716 201.819C325.148 202.066 331.665 202.362 334.502 202.543C337.479 202.796 339.95 203.05 340.077 203.177C340.14 203.303 336.022 208.498 330.89 214.643C325.822 220.851 321.26 226.363 320.816 226.869C320.056 227.693 319.803 227.376 317.395 221.801L315.368 222.688C314.227 223.132 293.002 232.444 268.293 243.34C243.583 254.237 219.19 264.943 214.122 267.223C209.053 269.441 204.745 271.214 204.491 271.214C204.175 271.214 195.875 265.83 185.928 259.178C175.98 252.526 167.491 247.141 167.11 247.141C166.667 247.141 148.04 253.223 125.801 260.635C87.7231 273.242 85.2522 274.192 84.3018 275.902C83.7316 276.916 82.4644 278.69 81.3873 279.893C80.3736 281.097 78.2195 282.491 76.6355 283.061C74.6081 283.821 72.834 283.948 70.6165 283.631C68.9059 283.441 66.4983 282.617 65.2945 281.794C64.0907 281.034 62.38 279.26 61.493 277.93C60.1625 275.839 59.8457 274.699 59.8457 271.151C59.8457 267.477 60.0991 266.527 61.7464 264.119C62.8869 262.536 64.851 260.825 66.4983 259.938C68.2723 259.051 70.4898 258.544 72.3905 258.544C74.0378 258.544 76.0653 258.861 76.9523 259.178C78.2828 259.685 85.8224 257.404 169.771 229.403L206.202 253.603L210.32 251.703C212.601 250.626 219.444 247.585 225.526 244.924C231.609 242.2 245.04 236.309 255.304 231.811C265.568 227.25 280.014 220.915 287.3 217.684C294.586 214.453 302.886 210.842 305.674 209.575C308.462 208.371 310.679 207.104 310.616 206.788Z" fill="white"></path><path d="M287.662 240.561L287.68 240.553C293.382 237.956 298.198 235.802 298.261 235.802C298.324 235.738 298.451 253.286 298.451 313.659H272.474V247.141L274.819 246.191C276.148 245.622 281.903 243.092 287.662 240.561Z" fill="white"></path><path d="M138.536 261.839L150.827 257.721C157.607 255.44 163.499 253.54 163.943 253.54C164.576 253.476 164.766 259.875 164.766 313.659H138.789L138.536 261.839Z" fill="white"></path><path d="M228.441 266.653L240.479 261.332C247.068 258.418 252.833 256.074 253.277 256.01C253.911 256.01 254.101 262.219 254.101 313.659H228.124L228.441 266.653Z" fill="white"></path><path d="M183.14 313.659V288.952C183.14 275.396 183.33 264.246 183.583 264.246C183.837 264.246 188.652 267.223 204.365 277.486L206.582 276.282C207.786 275.649 208.99 275.269 209.243 275.522C209.56 275.776 209.75 284.011 209.75 293.894C209.75 303.713 209.56 312.202 209.433 312.709C209.117 313.532 207.089 313.659 183.14 313.659Z" fill="white"></path><path d="M94.249 276.599L106.857 272.355C113.763 270.074 119.655 268.11 119.909 268.11C120.162 268.11 120.416 278.31 120.416 313.659H94.1222L94.249 276.599Z" fill="white"></path><path d="M68.9065 271.024C68.8431 270.201 69.1599 269.251 69.6667 268.807C70.1735 268.364 71.3771 268.047 72.3274 268.047C73.531 268.047 74.4179 268.554 75.0514 269.631C75.875 271.024 75.875 271.404 75.0514 272.798C74.4179 273.812 73.531 274.382 72.5174 274.382C71.6305 274.382 70.4902 273.938 69.9834 273.432C69.4766 272.925 68.9698 271.848 68.9065 271.024Z" fill="#0081C9"></path></svg>