<svg xmlns="http://www.w3.org/2000/svg" width="500" height="500" viewBox="0 0 500 500" fill="none"><circle cx="250" cy="250" r="250" fill="#E20A17"></circle><g opacity="0.49"><mask id="mask0_357_2" style="mask-type:alpha" maskUnits="userSpaceOnUse" x="0" y="0" width="500" height="500"><circle cx="250" cy="250" r="250" fill="#6B00C9"></circle></mask><g mask="url(#mask0_357_2)"><path d="M46.4492 455.189L452.986 69.2477" stroke="white" stroke-width="2.14592" stroke-linecap="round"></path><path d="M26.7168 431.309L471.125 9.41409" stroke="white" stroke-width="2.14592" stroke-linecap="round"></path><path d="M7.52344 415.732L529.993 -80.2688" stroke="white" stroke-width="2.14592" stroke-linecap="round"></path><path d="M4.16602 399.814L402.974 21.21" stroke="white" stroke-width="2.14592" stroke-linecap="round"></path><path d="M-2.70117 374.007L403.063 -11.2012" stroke="white" stroke-width="2.14592" stroke-linecap="round"></path><path d="M-2.80664 349.129L380.544 -14.801" stroke="white" stroke-width="2.14592" stroke-linecap="round"></path><path d="M-10.3691 321.04L353.659 -24.5466" stroke="white" stroke-width="2.14592" stroke-linecap="round"></path><path d="M-16.8086 278.66L361.904 -80.8673" stroke="white" stroke-width="2.14592" stroke-linecap="round"></path><path d="M-30.043 236.856L304.616 -80.8485" stroke="white" stroke-width="2.14592" stroke-linecap="round"></path><path d="M-17.4727 188.184L261.538 -76.6928" stroke="white" stroke-width="2.14592" stroke-linecap="round"></path><path d="M-27.7344 264.053L426.721 -167.38" stroke="white" stroke-width="2.14592" stroke-linecap="round"></path><path d="M-13.4512 294.575L357.533 -57.615" stroke="white" stroke-width="2.14592" stroke-linecap="round"></path><path d="M75.1914 451.414L473.999 72.8096" stroke="white" stroke-width="2.14592" stroke-linecap="round"></path><path d="M98.1719 466.333L496.98 87.7285" stroke="white" stroke-width="2.14592" stroke-linecap="round"></path><path d="M139.076 487.749L529.382 117.216" stroke="white" stroke-width="2.14592" stroke-linecap="round"></path><path d="M115.938 478.854L554.163 62.8298" stroke="white" stroke-width="2.14592" stroke-linecap="round"></path><path d="M7.84766 142.104L150.058 7.09823" stroke="white" stroke-width="2.14592" stroke-linecap="round"></path><path d="M162.096 501.162L506.802 173.919" stroke="white" stroke-width="2.14592" stroke-linecap="round"></path><path d="M185.35 505.535L561.744 148.209" stroke="white" stroke-width="2.14592" stroke-linecap="round"></path><path d="M204.779 512.07L516.251 216.377" stroke="white" stroke-width="2.14592" stroke-linecap="round"></path><path d="M239.432 512.972L532.355 234.888" stroke="white" stroke-width="2.14592" stroke-linecap="round"></path><path d="M273.469 508.579L529.293 265.715" stroke="white" stroke-width="2.14592" stroke-linecap="round"></path><path d="M317.355 502.181L495.119 333.423" stroke="white" stroke-width="2.14592" stroke-linecap="round"></path><path d="M220.619 511.729L613.244 138.994" stroke="white" stroke-width="2.14592" stroke-linecap="round"></path><path d="M150.238 493.315L519.677 142.593" stroke="white" stroke-width="2.14592" stroke-linecap="round"></path><path d="M300.051 500.977L592.201 223.627" stroke="white" stroke-width="2.14592" stroke-linecap="round"></path><path d="M360.207 477.666L506.282 338.991" stroke="white" stroke-width="2.14592" stroke-linecap="round"></path><path d="M40.1172 437.686C218.109 268.71 396.102 99.7351 574.094 -69.2401C584.943 -79.5395 595.792 -89.8389 606.641 -100.138" stroke="white" stroke-width="2.14592" stroke-linecap="round"></path></g></g><path d="M344.87 369.814C322.482 369.814 303.931 362.444 289.219 347.702C275.146 332.961 268.11 311.811 268.11 284.252C268.11 254.77 276.425 225.608 293.057 196.767C310.328 167.926 334.316 145.494 365.02 129.471L387.088 163.119C353.826 186.192 333.996 215.353 327.599 250.604C333.356 248.04 340.073 246.758 347.749 246.758C365.66 246.758 380.372 252.527 391.886 264.063C403.4 275.599 409.157 290.341 409.157 308.286C409.157 326.232 403.08 340.973 390.927 352.509C378.773 364.046 363.421 369.814 344.87 369.814ZM168.321 369.814C145.933 369.814 127.382 362.444 112.67 347.702C98.5969 332.961 91.5605 311.811 91.5605 284.252C91.5605 254.77 99.8763 225.608 116.508 196.767C133.779 167.926 157.766 145.494 188.471 129.471L210.539 163.119C177.276 186.192 157.447 215.353 151.05 250.604C156.807 248.04 163.524 246.758 171.2 246.758C189.11 246.758 203.823 252.527 215.337 264.063C226.851 275.599 232.608 290.341 232.608 308.286C232.608 326.232 226.531 340.973 214.377 352.509C202.224 364.046 186.871 369.814 168.321 369.814Z" fill="white"></path></svg>